<?xml version="1.0" encoding="UTF-8"?>
<!DOCTYPE svg PUBLIC "-//W3C//DTD SVG 1.1//EN" "http://www.w3.org/Graphics/SVG/1.1/DTD/svg11.dtd">
<!-- Creator: CorelDRAW 2020 (64-Bit) -->
<svg xmlns="http://www.w3.org/2000/svg" xml:space="preserve" width="2480px" height="3508px" version="1.1" style="shape-rendering:geometricPrecision; text-rendering:geometricPrecision; image-rendering:optimizeQuality; fill-rule:evenodd; clip-rule:evenodd"
viewBox="0 0 2480 3507.43"
 xmlns:xlink="http://www.w3.org/1999/xlink"
 xmlns:xodm="http://www.corel.com/coreldraw/odm/2003">
 <defs>
  <style type="text/css">
   <![CDATA[
    .str0 {stroke:black;stroke-width:0.9;stroke-miterlimit:22.9256}
    .fil15 {fill:black}
    .fil1 {fill:#009933}
    .fil7 {fill:#023047}
    .fil0 {fill:#3A3285}
    .fil2 {fill:#999999}
    .fil17 {fill:white}
    .fil16 {fill:black;fill-rule:nonzero}
    .fil5 {fill:#009933;fill-rule:nonzero}
    .fil9 {fill:#023047;fill-rule:nonzero}
    .fil4 {fill:#3A3285;fill-rule:nonzero}
    .fil6 {fill:#999999;fill-rule:nonzero}
    .fil12 {fill:white;fill-rule:nonzero}
    .fil18 {fill:white;fill-rule:nonzero}
    .fil10 {fill:url(#id0)}
    .fil8 {fill:url(#id1)}
    .fil3 {fill:url(#id2)}
    .fil11 {fill:url(#id3)}
    .fil14 {fill:url(#id4);fill-rule:nonzero}
    .fil13 {fill:url(#id5);fill-rule:nonzero}
   ]]>
  </style>
  <linearGradient id="id0" gradientUnits="userSpaceOnUse" x1="188.18" y1="655.19" x2="776.66" y2="655.19">
   <stop offset="0" style="stop-opacity:1; stop-color:#1C265A"/>
   <stop offset="1" style="stop-opacity:1; stop-color:#3CBCDD"/>
  </linearGradient>
  <radialGradient id="id1" gradientUnits="objectBoundingBox" cx="25%" cy="31.9998%" r="32.9994%" fx="25%" fy="31.9998%">
   <stop offset="0" style="stop-opacity:1; stop-color:#99FF00"/>
   <stop offset="1" style="stop-opacity:1; stop-color:#006633"/>
  </radialGradient>
  <radialGradient id="id2" gradientUnits="objectBoundingBox" cx="25%" cy="31.9998%" r="32.9994%" fx="25%" fy="31.9998%">
   <stop offset="0" style="stop-opacity:1; stop-color:#FFFF66"/>
   <stop offset="1" style="stop-opacity:1; stop-color:#FFCC00"/>
  </radialGradient>
  <radialGradient id="id3" gradientUnits="objectBoundingBox" cx="31.0001%" cy="33.9991%" r="36.0005%" fx="31.0001%" fy="33.9991%">
   <stop offset="0" style="stop-opacity:1; stop-color:#3CBCDD"/>
   <stop offset="1" style="stop-opacity:1; stop-color:#1C265A"/>
  </radialGradient>
  <linearGradient id="id4" gradientUnits="userSpaceOnUse" xlink:href="#id0" x1="200.09" y1="1080.83" x2="764.75" y2="1080.83">
  </linearGradient>
  <linearGradient id="id5" gradientUnits="userSpaceOnUse" xlink:href="#id0" x1="200.09" y1="1009.72" x2="764.75" y2="1009.72">
  </linearGradient>
 </defs>
 <g id="Слой_x0020_1">
  <metadata id="CorelCorpID_0Corel-Layer"/>
  <g id="_1596214650016">
   <path class="fil0" d="M2065.62 358.2l-348.7 0c-10.17,0 -15.26,5.09 -15.26,15.26l0 510.4c5.18,-15.53 19.33,-26.97 36.3,-28.16l1.47 -18.33c-8.1,-12.68 -14.64,-26.58 -19.5,-41.72l-2.91 -9.06 27.8 -16.09 12.12 -150.64c-9.29,-19.7 -14.53,-42.35 -14.53,-68.4 0,-34.83 8.99,-65.95 27.29,-92.86 -18.17,-4.37 -31.67,-20.73 -31.67,-40.25 0,-22.86 18.54,-41.4 41.4,-41.4 20.05,0 36.77,14.26 40.58,33.19 34.23,-21.78 74.07,-30.39 115.72,-30.39 43.03,0 83.9,9.85 120.94,31.91 36.74,21.9 62.93,53.32 79.4,92.75l3.98 9.54 -7.45 4.35 28.86 8.7c6.36,-13.04 19.75,-22.03 35.23,-22.03 21.63,0 39.17,17.54 39.17,39.17 0,19.5 -14.27,35.67 -32.92,38.66l0 159.86c22.82,-15.93 41.72,-36.19 56.68,-60.77 20.34,-33.42 30.51,-70.48 30.51,-111.17 0,-59.58 -21.25,-109.89 -63.75,-150.95 -42.51,-41.05 -96.1,-61.57 -160.76,-61.57zm-363.96 551.86l0 26.85c0,10.18 5.45,15.26 16.35,15.26l144.9 0c9.43,0 289.57,0 321.51,0l79.56 0c5.81,0 9.99,-1.63 12.53,-4.9 2.55,-3.27 2.36,-7.45 -0.54,-12.53l-73.03 -130.01 0 40.87c18.65,2.99 32.92,19.17 32.92,38.67 0,21.63 -17.54,39.17 -39.17,39.17 -19.13,0 -35.06,-13.73 -38.49,-31.87l-76.22 2.12c-41.02,27.92 -91.29,36.93 -140.48,36.93 -45.55,0 -91.42,-7.68 -131.66,-29.35l-27.89 0.77c-2.51,20.44 -19.93,36.28 -41.05,36.28 -18.26,0 -33.76,-11.84 -39.24,-28.26zm488.78 -127.58l-13.65 -24.3c4.68,-2.34 9.23,-4.83 13.65,-7.46l0 -167.92c-7.76,-1.24 -14.75,-4.76 -20.28,-9.85l-78.88 62.06c1.08,0.73 2.14,1.47 3.21,2.22 18.44,12.91 32.48,29.67 41.79,50.16 9.98,21.96 13.67,46.1 13.67,70.08 0,23.21 -3.44,45.11 -10.98,65.13l33.51 30.88c5.11,-4.03 11.25,-6.8 17.96,-7.88l0 -63.12zm-336.35 -75.25c-4.34,-1.98 -8.61,-4.06 -12.8,-6.22l-8.98 18.83 21.78 -12.61zm-23.78 -12.21c-25.24,-14.57 -46.89,-32.87 -62.39,-55.87l-9.96 123.74 55.24 -31.98 17.11 -35.89zm287.58 -168.12l-14.18 8.29 46.14 1.35 -31.96 -9.64zm-34.49 20.15l-79.88 46.68c13.71,4.43 27.31,9.34 40.53,14.92 12.55,5.3 24.65,11.85 36.23,19.13l82.16 -64.64c-2.35,-4.22 -3.94,-8.92 -4.59,-13.91l-74.45 -2.18zm50.36 287.71c-8.21,17.04 -19.75,32.51 -35.07,46.01l59.17 -1.65c0.79,-6.03 2.96,-11.63 6.17,-16.47l-30.27 -27.89zm-343.4 54.59c-3.89,-2.68 -7.66,-5.47 -11.3,-8.36 1.15,2.73 2.01,5.61 2.55,8.6l8.75 -0.24zm-36.95 -33.1c-0.92,-1.07 -1.82,-2.16 -2.71,-3.25l-0.29 3.69c0.83,0.2 1.65,0.42 2.47,0.67l0.53 -1.11zm109.9 -144.98l2.02 5.14c8.82,22.42 21.55,38.49 39.18,47.66l36.77 -28.1c-3.85,-1.07 -7.7,-2.09 -11.5,-3.11 -9.5,-2.56 -19.01,-5.18 -28.43,-8.02 -13.03,-3.94 -25.78,-8.43 -38.04,-13.57zm54.69 58.17c8.16,2.38 17.17,3.59 27.1,3.59 8.13,0 31.55,-0.77 36.19,-9.54 0.75,-1.4 0.98,-3.01 0.98,-4.58 0,-2.44 -0.51,-4.64 -1.81,-6.71 -1.4,-2.25 -6,-4.49 -8.32,-5.49 -5.29,-2.26 -10.69,-4.45 -16.15,-6.3l-37.99 29.03zm80.08 -177.44l-3.47 -8.86c-6.98,-17.8 -16.75,-31.97 -31.25,-39.6l-9.46 -0.28c-1.95,10.74 -8.03,20.04 -16.55,26.18l2.28 4.45c1.4,0.49 2.79,0.96 4.16,1.43 13.16,4.47 26.55,8.46 39.9,12.34 4.8,1.4 9.6,2.84 14.39,4.34z"/>
   <path class="fil1" d="M1941.5 918.81c-40.01,0 -75.14,-6.09 -105.4,-18.27l221.71 -6.18c-31.46,16.3 -70.23,24.45 -116.31,24.45zm-129.88 -30.05c-2.36,-1.34 -4.69,-2.73 -6.98,-4.16 -6.87,-4.3 -13.31,-8.87 -19.33,-13.74l121.43 -92.8c11.36,4.52 24.15,6.78 38.36,6.78 32.65,0 48.98,-8.65 48.98,-25.93 0,-4.8 -1.2,-9.13 -3.6,-12.97 -1.41,-2.25 -3.57,-4.34 -6.46,-6.27 4.25,1.49 8.81,2.3 13.56,2.3 9.73,0 18.67,-3.38 25.71,-9.02l101.36 93.41c-8.82,19.63 -21.97,36.4 -39.45,50.32 -2,1.59 -4.05,3.13 -6.13,4.63l-267.45 7.45zm162.86 -153.88c-2.58,-1.09 -5.03,-2.08 -7.36,-2.98l1.91 -1.45c1.68,1.63 3.51,3.11 5.45,4.43zm-198.78 127.64c-2.69,-2.51 -5.28,-5.09 -7.76,-7.73l55.37 -116.09 31.03 -17.97c9.25,23.52 22.57,40.57 39.96,51.14l-118.6 90.65zm-16.68 -18.03c-2.41,-3.02 -4.7,-6.13 -6.88,-9.31l4.66 -57.98 47.4 -27.44 -45.18 94.73zm-17.9 -28.02c-3.9,-7.76 -7.21,-15.9 -9.95,-24.43l12.49 -7.23 -2.54 31.66zm211.8 -89.4c-5.02,-1.5 -11.71,-3.37 -20.07,-5.62 -12.48,-3.36 -21.85,-6 -28.09,-7.92 -21.85,-6.59 -41.31,-14.3 -58.4,-23.14l54.82 -114.91c3.79,1.14 7.81,1.76 11.98,1.76 1,0 1.99,-0.04 2.96,-0.11 3.73,1.84 8.48,3.85 14.27,6.02l43.11 84.23c-10.36,7.48 -17.1,19.65 -17.1,33.4 0,7.17 1.83,13.9 5.05,19.77l-8.53 6.52zm-117.53 -42.69c-30.59,-17.8 -52.53,-39.7 -65.82,-65.7l12.66 -157.37c0.43,-0.59 0.87,-1.17 1.31,-1.76 8.53,-0.84 16.31,-4.28 22.52,-9.51l72.24 63.46c-4.14,6.45 -6.54,14.11 -6.54,22.34 0,14.24 7.19,26.8 18.14,34.25l-54.51 114.29zm-76.17 -92.8c-3.33,-12.58 -5,-25.95 -5,-40.12 0,-23.93 4.5,-45.72 13.49,-65.38l-8.49 105.5zm57.6 -155.44l285.63 86.1 -21.03 12.29 -116.59 -3.41c-3.54,-1.55 -7.25,-2.78 -11.12,-3.68 -3.88,-18.84 -20.57,-33 -40.55,-33 -10.14,0 -19.43,3.65 -26.63,9.71l-72.24 -63.46c0.94,-1.45 1.78,-2.97 2.53,-4.55zm3.62 -12.1c30.96,-21.65 69.39,-32.48 115.29,-32.48 42.74,0 81.04,10.08 114.89,30.25 33.86,20.17 58.71,49.22 74.55,87.16l-8.01 4.68 -296.74 -89.46 0.02 -0.15zm240.67 122.36l-55.51 32.43c-5.69,-14.54 -12.92,-26.1 -21.68,-34.69l77.19 2.26zm-113.72 42.65c9.4,3.06 20.4,6.38 33,9.95 24.01,7.21 43.7,14.05 59.07,20.53 10,4.22 20.32,9.56 30.93,16.03l-44.67 35.15c-7.37,-6.89 -17.26,-11.11 -28.14,-11.11 -4.54,0 -8.92,0.74 -13.01,2.1l-37.18 -72.65zm134.15 53.62c2.05,1.37 4.11,2.78 6.18,4.23 16.8,11.77 29.41,26.89 37.81,45.38 8.41,18.49 12.61,40.22 12.61,65.19 0,20.7 -2.87,39.51 -8.6,56.44l-97.79 -90.12c4.43,-6.57 7.02,-14.49 7.02,-23.01 0,-7.37 -1.94,-14.28 -5.33,-20.27l48.1 -37.84z"/>
   <g>
    <path class="fil2" d="M1913.16 506.25c16.34,0 29.59,13.25 29.59,29.59 0,16.34 -13.25,29.59 -29.59,29.59 -16.34,0 -29.59,-13.25 -29.59,-29.59 0,-16.34 13.25,-29.59 29.59,-29.59z"/>
    <path class="fil2" d="M1997.58 671.41c16.23,0 29.38,13.15 29.38,29.37 0,16.23 -13.15,29.38 -29.38,29.38 -16.22,0 -29.37,-13.15 -29.37,-29.38 0,-16.22 13.15,-29.37 29.37,-29.37z"/>
    <path class="fil2" d="M1740.9 867.4c16.32,0 29.55,13.24 29.55,29.56 0,16.32 -13.23,29.55 -29.55,29.55 -16.32,0 -29.55,-13.23 -29.55,-29.55 0,-16.32 13.23,-29.56 29.55,-29.56z"/>
    <path class="fil2" d="M2196.69 516.78c15.11,0 27.36,12.25 27.36,27.36 0,15.1 -12.25,27.35 -27.36,27.35 -15.11,0 -27.36,-12.25 -27.36,-27.35 0,-15.11 12.25,-27.36 27.36,-27.36z"/>
    <path class="fil2" d="M2196.69 856.91c15.11,0 27.36,12.25 27.36,27.36 0,15.11 -12.25,27.36 -27.36,27.36 -15.11,0 -27.36,-12.25 -27.36,-27.36 0,-15.11 12.25,-27.36 27.36,-27.36z"/>
    <path class="fil2" d="M1779.43 388.76c16.34,0 29.59,13.25 29.59,29.59 0,16.35 -13.25,29.6 -29.59,29.6 -16.34,0 -29.59,-13.25 -29.59,-29.6 0,-16.34 13.25,-29.59 29.59,-29.59z"/>
   </g>
   <path class="fil3" d="M1913.16 506.25c16.34,0 29.59,13.25 29.59,29.59 0,16.34 -13.25,29.59 -29.59,29.59 -16.34,0 -29.59,-13.25 -29.59,-29.59 0,-16.34 13.25,-29.59 29.59,-29.59z"/>
   <path class="fil3" d="M1997.58 671.41c16.23,0 29.38,13.15 29.38,29.37 0,16.23 -13.15,29.38 -29.38,29.38 -16.22,0 -29.37,-13.15 -29.37,-29.38 0,-16.22 13.15,-29.37 29.37,-29.37z"/>
   <path class="fil3" d="M1740.9 867.4c16.32,0 29.55,13.24 29.55,29.56 0,16.32 -13.23,29.55 -29.55,29.55 -16.32,0 -29.55,-13.23 -29.55,-29.55 0,-16.32 13.23,-29.56 29.55,-29.56z"/>
   <path class="fil3" d="M2196.69 516.78c15.11,0 27.36,12.25 27.36,27.36 0,15.1 -12.25,27.35 -27.36,27.35 -15.11,0 -27.36,-12.25 -27.36,-27.35 0,-15.11 12.25,-27.36 27.36,-27.36z"/>
   <path class="fil3" d="M2196.69 856.91c15.11,0 27.36,12.25 27.36,27.36 0,15.11 -12.25,27.36 -27.36,27.36 -15.11,0 -27.36,-12.25 -27.36,-27.36 0,-15.11 12.25,-27.36 27.36,-27.36z"/>
   <path class="fil3" d="M1779.43 388.76c16.34,0 29.59,13.25 29.59,29.59 0,16.35 -13.25,29.6 -29.59,29.6 -16.34,0 -29.59,-13.25 -29.59,-29.6 0,-16.34 13.25,-29.59 29.59,-29.59z"/>
   <path class="fil4" d="M1981.97 698.37c0.72,0.62 1.08,1.42 1.08,2.41 0,0.99 -0.36,1.8 -1.08,2.41 -0.72,0.62 -1.68,0.99 -2.89,1.11l0 1 -1.66 0 0 -1c-1.22,-0.13 -2.18,-0.5 -2.89,-1.11 -0.71,-0.62 -1.06,-1.42 -1.06,-2.41 0,-0.99 0.35,-1.79 1.06,-2.41 0.71,-0.61 1.67,-0.98 2.89,-1.1l0 -1.01 1.66 0 0 1.01c1.21,0.11 2.17,0.48 2.89,1.1zm-2.89 4.37c1.51,-0.18 2.26,-0.83 2.26,-1.96 0,-1.14 -0.75,-1.79 -2.26,-1.97l0 3.93zm-3.92 -1.96c0,1.13 0.75,1.78 2.26,1.94l0 -3.89c-1.51,0.16 -2.26,0.81 -2.26,1.95zm13.98 4.33l0 -5.25 -3.7 5.25 -1.32 0 0 -8.66 1.71 0 0 5.3 3.71 -5.3 1.3 0 0 8.66 -1.7 0zm9.04 -8.66l0 1.63 -2.34 0 0 7.03 -1.7 0 0 -7.03 -2.33 0 0 -1.63 6.37 0zm5.88 0l1.7 0 0 8.66 -1.7 0 0 -3.59 -3.21 0 0 3.59 -1.71 0 0 -8.66 1.71 0 0 3.44 3.21 0 0 -3.44zm5.02 7.03l3.65 0 0 1.63 -5.36 0 0 -8.66 5.3 0 0 1.63 -3.59 0 0 1.85 3.28 0 0 1.61 -3.28 0 0 1.94zm8.9 1.81c-1.31,0 -2.38,-0.44 -3.23,-1.3 -0.85,-0.87 -1.28,-1.94 -1.28,-3.21 0,-1.28 0.43,-2.35 1.28,-3.21 0.85,-0.86 1.92,-1.29 3.23,-1.29 0.78,0 1.51,0.18 2.17,0.55 0.66,0.36 1.18,0.86 1.55,1.49l-1.47 0.85c-0.21,-0.39 -0.52,-0.69 -0.92,-0.91 -0.39,-0.22 -0.84,-0.33 -1.33,-0.33 -0.84,0 -1.52,0.27 -2.04,0.8 -0.51,0.52 -0.77,1.21 -0.77,2.05 0,0.83 0.26,1.52 0.77,2.04 0.52,0.53 1.2,0.8 2.04,0.8 0.49,0 0.94,-0.11 1.34,-0.33 0.4,-0.22 0.7,-0.52 0.91,-0.9l1.47 0.85c-0.37,0.63 -0.88,1.13 -1.54,1.5 -0.66,0.36 -1.39,0.55 -2.18,0.55z"/>
   <path class="fil4" d="M2181.41 879.63l1.8 0 0 9.18 -1.8 0 0 -3.8 -3.41 0 0 3.8 -1.81 0 0 -9.18 1.81 0 0 3.65 3.41 0 0 -3.65zm9.54 9.18l-0.59 -1.65 -3.77 0 -0.55 1.65 -1.96 0 3.22 -9.18 2.24 0 3.24 9.18 -1.83 0zm-3.77 -3.34l2.58 0 -1.32 -3.75 -1.26 3.75zm11.04 -5.84l1.81 0 -2.75 6.66c-0.74,1.78 -1.95,2.62 -3.62,2.52l0 -1.69c0.49,0.04 0.88,-0.02 1.19,-0.2 0.3,-0.18 0.55,-0.47 0.75,-0.88l-3 -6.41 1.81 0 2.01 4.42 1.8 -4.42zm9.97 9.18l-2.08 0 -3.28 -4.3 0 4.3 -1.81 0 0 -9.18 1.81 0 0 4.05 3.15 -4.05 2.08 0 -3.4 4.46 3.53 4.72zm7.17 0l-0.59 -1.65 -3.77 0 -0.55 1.65 -1.96 0 3.22 -9.18 2.24 0 3.24 9.18 -1.83 0zm-3.77 -3.34l2.58 0 -1.32 -3.75 -1.26 3.75z"/>
   <path class="fil4" d="M2184.06 536.92c1.39,0 2.55,0.47 3.5,1.41 0.95,0.93 1.42,2.08 1.42,3.44 0,1.36 -0.47,2.5 -1.42,3.44 -0.95,0.93 -2.11,1.4 -3.5,1.4l-2.54 0 0 4.74 -2.84 0 0 -14.43 5.38 0zm0 7.03c0.6,0 1.1,-0.21 1.5,-0.63 0.4,-0.42 0.6,-0.94 0.6,-1.55 0,-0.64 -0.2,-1.16 -0.6,-1.57 -0.4,-0.41 -0.9,-0.62 -1.5,-0.62l-2.54 0 0 4.37 2.54 0zm18.05 7.4l-3.28 0 -5.15 -6.76 0 6.76 -2.84 0 0 -14.43 2.84 0 0 6.36 4.95 -6.36 3.27 0 -5.33 7.01 5.54 7.42zm9.75 0l0 -8.75 -6.16 8.75 -2.19 0 0 -14.43 2.84 0 0 8.82 6.18 -8.82 2.17 0 0 14.43 -2.84 0z"/>
   <path class="fil4" d="M1765.55 420.6l1.11 0 0 3.94 -2.05 0 0 -1.99 -5.74 0 0 1.99 -2.05 0 0 -3.94 1.01 0c0.58,-0.81 0.86,-1.98 0.86,-3.52l0 -4.91 6.86 0 0 8.43zm-5.52 0l3.47 0 0 -6.52 -2.76 0 0 3.03c0,1.5 -0.24,2.66 -0.71,3.49zm14 1.95l0 -6.3 -4.43 6.3 -1.57 0 0 -10.38 2.04 0 0 6.35 4.46 -6.35 1.55 0 0 10.38 -2.05 0zm6.03 -1.95l4.38 0 0 1.95 -6.43 0 0 -10.38 6.35 0 0 1.96 -4.3 0 0 2.21 3.93 0 0 1.92 -3.93 0 0 2.34zm12.69 -8.43l0 1.96 -2.81 0 0 8.42 -2.05 0 0 -8.42 -2.79 0 0 -1.96 7.65 0zm7.21 10.38l-0.66 -1.87 -4.27 0 -0.62 1.87 -2.21 0 3.63 -10.38 2.54 0 3.66 10.38 -2.07 0zm-4.26 -3.78l2.92 0 -1.5 -4.24 -1.42 4.24z"/>
   <path class="fil4" d="M1897.68 533.93c1.46,0 2.66,0.44 3.59,1.3 0.94,0.87 1.4,2 1.4,3.37 0,1.4 -0.46,2.53 -1.4,3.4 -0.93,0.86 -2.13,1.3 -3.59,1.3l-5.78 0 0 -15.08 9.48 0 0 2.85 -6.5 0 0 2.86 2.8 0zm0 6.59c0.59,0 1.07,-0.17 1.46,-0.5 0.39,-0.34 0.58,-0.81 0.58,-1.42 0,-0.6 -0.19,-1.06 -0.58,-1.4 -0.39,-0.33 -0.87,-0.49 -1.46,-0.49l-2.8 0 0 3.81 2.8 0zm24.2 2.78l-3.31 0 -4.68 -6.88 0 6.88 -2.97 0 0 -6.87 -4.67 6.87 -3.3 0 5.24 -7.69 -5.02 -7.39 3.29 0 4.46 6.72 0 -6.72 2.97 0 0 6.73 4.46 -6.73 3.32 0 -5.04 7.39 5.25 7.69zm9.57 -15.08l2.97 0 -4.53 10.94c-1.21,2.92 -3.19,4.29 -5.94,4.14l0 -2.78c0.81,0.07 1.46,-0.04 1.95,-0.33 0.5,-0.3 0.91,-0.77 1.24,-1.43l-4.93 -10.54 2.97 0 3.31 7.27 2.96 -7.27z"/>
   <path class="fil4" d="M1723.82 903.26c-1.82,0 -3.33,-0.6 -4.52,-1.82 -1.19,-1.21 -1.78,-2.7 -1.78,-4.48 0,-1.79 0.59,-3.29 1.78,-4.5 1.19,-1.21 2.7,-1.81 4.52,-1.81 1.1,0 2.12,0.26 3.05,0.77 0.92,0.52 1.65,1.21 2.17,2.09l-2.06 1.19c-0.3,-0.54 -0.73,-0.96 -1.28,-1.27 -0.56,-0.31 -1.18,-0.46 -1.88,-0.46 -1.17,0 -2.12,0.37 -2.85,1.11 -0.72,0.74 -1.08,1.7 -1.08,2.88 0,1.16 0.36,2.12 1.08,2.86 0.73,0.74 1.68,1.1 2.85,1.1 0.7,0 1.32,-0.15 1.88,-0.45 0.57,-0.31 0.99,-0.73 1.28,-1.26l2.06 1.2c-0.52,0.87 -1.24,1.57 -2.17,2.08 -0.92,0.52 -1.94,0.77 -3.05,0.77zm13.71 -0.24l0 -7.36 -5.18 7.36 -1.84 0 0 -12.13 2.39 0 0 7.42 5.2 -7.42 1.82 0 0 12.13 -2.39 0zm3.71 0l0 -2.22c0.71,0.11 1.25,-0.04 1.61,-0.43 0.36,-0.39 0.54,-1.16 0.54,-2.3l0 -7.18 8.24 0 0 12.13 -2.37 0 0 -9.84 -3.5 0 0 4.82c0,1.05 -0.13,1.93 -0.38,2.65 -0.25,0.71 -0.6,1.24 -1.05,1.59 -0.44,0.35 -0.92,0.58 -1.42,0.69 -0.5,0.12 -1.06,0.15 -1.67,0.09zm20.62 0l-0.77 -2.18 -4.99 0 -0.72 2.18 -2.59 0 4.25 -12.13 2.96 0 4.28 12.13 -2.42 0zm-4.98 -4.42l3.42 0 -1.75 -4.95 -1.67 4.95z"/>
   <path class="fil5" d="M1743.25 1036.29l-10.94 -18.78 -8.07 0 0 18.78 -10.67 0 0 -54.1 21.64 0c5,0 9.25,1.75 12.75,5.25 3.51,3.51 5.26,7.73 5.26,12.68 0,3.35 -0.96,6.45 -2.86,9.31 -1.91,2.86 -4.43,5.01 -7.58,6.46l11.98 20.4 -11.51 0zm-19.01 -44.13l0 16 10.97 0c2.01,0 3.74,-0.79 5.18,-2.36 1.44,-1.57 2.16,-3.47 2.16,-5.68 0,-2.22 -0.72,-4.1 -2.16,-5.64 -1.44,-1.55 -3.17,-2.32 -5.18,-2.32l-10.97 0zm72.35 44.13l-3.44 -9.74 -22.23 0 -3.25 9.74 -11.51 0 18.93 -54.1 13.22 0 19.09 54.1 -10.81 0zm-22.19 -19.71l15.22 0 -7.81 -22.1 -7.41 22.1zm91.19 -34.39l0 54.1 -10.59 0 0 -35.09 -15.25 25.09 -1.25 0.06 -15.18 -25.02 0 34.96 -10.67 0 0 -54.1 10.98 0 15.5 25.54 15.45 -25.54 11.01 0zm10.05 0l10.67 0 0 54.1 -10.67 0 0 -54.1zm38.33 55.18c-5.35,0 -9.86,-1.2 -13.52,-3.59 -3.66,-2.4 -6.24,-5.66 -7.73,-9.78l9.12 -5.33c2.11,5.51 6.26,8.27 12.44,8.27 2.99,0 5.18,-0.54 6.57,-1.63 1.39,-1.08 2.09,-2.44 2.09,-4.09 0,-1.91 -0.85,-3.39 -2.55,-4.45 -1.7,-1.05 -4.74,-2.2 -9.12,-3.43 -2.42,-0.73 -4.47,-1.45 -6.14,-2.17 -1.68,-0.72 -3.35,-1.69 -5.03,-2.9 -1.67,-1.21 -2.95,-2.74 -3.82,-4.6 -0.88,-1.85 -1.32,-4.01 -1.32,-6.49 0,-4.89 1.74,-8.79 5.22,-11.71 3.48,-2.91 7.66,-4.36 12.56,-4.36 4.38,0 8.23,1.07 11.55,3.2 3.33,2.14 5.91,5.12 7.77,8.93l-8.97 5.18c-2.16,-4.64 -5.61,-6.96 -10.35,-6.96 -2.22,0 -3.96,0.51 -5.22,1.51 -1.26,1 -1.89,2.31 -1.89,3.9 0,1.7 0.71,3.08 2.12,4.14 1.42,1.05 4.14,2.2 8.16,3.44 1.64,0.51 2.89,0.91 3.74,1.19 0.85,0.29 2.01,0.73 3.48,1.32 1.47,0.59 2.6,1.15 3.4,1.66 0.8,0.52 1.72,1.21 2.75,2.09 1.03,0.87 1.81,1.77 2.35,2.7 0.55,0.93 1.01,2.05 1.4,3.36 0.38,1.32 0.58,2.75 0.58,4.29 0,5 -1.82,8.97 -5.45,11.91 -3.64,2.93 -8.36,4.4 -14.19,4.4zm64.38 0c-5.35,0 -9.86,-1.2 -13.52,-3.59 -3.66,-2.4 -6.24,-5.66 -7.73,-9.78l9.12 -5.33c2.11,5.51 6.26,8.27 12.44,8.27 2.99,0 5.18,-0.54 6.57,-1.63 1.39,-1.08 2.09,-2.44 2.09,-4.09 0,-1.91 -0.85,-3.39 -2.55,-4.45 -1.7,-1.05 -4.74,-2.2 -9.12,-3.43 -2.42,-0.73 -4.47,-1.45 -6.15,-2.17 -1.67,-0.72 -3.34,-1.69 -5.02,-2.9 -1.67,-1.21 -2.95,-2.74 -3.83,-4.6 -0.87,-1.85 -1.31,-4.01 -1.31,-6.49 0,-4.89 1.74,-8.79 5.22,-11.71 3.48,-2.91 7.66,-4.36 12.56,-4.36 4.38,0 8.23,1.07 11.55,3.2 3.33,2.14 5.91,5.12 7.77,8.93l-8.97 5.18c-2.16,-4.64 -5.61,-6.96 -10.35,-6.96 -2.22,0 -3.96,0.51 -5.22,1.51 -1.26,1 -1.89,2.31 -1.89,3.9 0,1.7 0.71,3.08 2.12,4.14 1.42,1.05 4.14,2.2 8.16,3.44 1.64,0.51 2.89,0.91 3.74,1.19 0.85,0.29 2.01,0.73 3.48,1.32 1.47,0.59 2.6,1.15 3.4,1.66 0.8,0.52 1.72,1.21 2.75,2.09 1.03,0.87 1.81,1.77 2.35,2.7 0.54,0.93 1.01,2.05 1.39,3.36 0.39,1.32 0.58,2.75 0.58,4.29 0,5 -1.81,8.97 -5.44,11.91 -3.64,2.93 -8.36,4.4 -14.19,4.4zm61.3 -1.08l-3.43 -9.74 -22.24 0 -3.24 9.74 -11.52 0 18.94 -54.1 13.21 0 19.09 54.1 -10.81 0zm-22.19 -19.71l15.23 0 -7.81 -22.1 -7.42 22.1zm69.02 -34.39l10.59 0 0 54.1 -10.59 0 0 -22.41 -20.1 0 0 22.41 -10.66 0 0 -54.1 10.66 0 0 21.48 20.1 0 0 -21.48zm20.63 0l10.67 0 0 54.1 -10.67 0 0 -54.1zm53.41 26.04c4.74,2.73 7.11,6.86 7.11,12.37 0,4.59 -1.63,8.35 -4.87,11.28 -3.25,2.94 -7.24,4.41 -11.98,4.41l-22.95 0 0 -54.1 21.33 0c4.63,0 8.54,1.43 11.71,4.29 3.16,2.86 4.75,6.5 4.75,10.93 0,4.49 -1.7,8.09 -5.1,10.82zm-11.36 -16.07l-10.67 0 0 11.9 10.67 0c1.65,0 3.02,-0.57 4.13,-1.7 1.11,-1.13 1.66,-2.55 1.66,-4.25 0,-1.7 -0.54,-3.12 -1.62,-4.25 -1.08,-1.13 -2.47,-1.7 -4.17,-1.7zm1.62 34.16c1.8,0 3.3,-0.61 4.48,-1.82 1.19,-1.21 1.78,-2.74 1.78,-4.6 0,-1.8 -0.59,-3.31 -1.78,-4.52 -1.18,-1.21 -2.68,-1.81 -4.48,-1.81l-12.29 0 0 12.75 12.29 0zm69.33 2.9c-5.47,5.43 -12.11,8.15 -19.94,8.15 -7.84,0 -14.47,-2.72 -19.91,-8.15 -5.43,-5.44 -8.15,-12.1 -8.15,-19.98 0,-7.88 2.72,-14.54 8.15,-19.98 5.44,-5.44 12.07,-8.15 19.91,-8.15 7.83,0 14.47,2.71 19.94,8.15 5.46,5.44 8.19,12.1 8.19,19.98 0,7.88 -2.73,14.54 -8.19,19.98zm-32.39 -7.27c3.35,3.33 7.5,4.99 12.45,4.99 4.94,0 9.09,-1.66 12.44,-4.99 3.35,-3.32 5.02,-7.56 5.02,-12.71 0,-5.15 -1.67,-9.4 -5.02,-12.75 -3.35,-3.35 -7.5,-5.03 -12.44,-5.03 -4.95,0 -9.1,1.68 -12.45,5.03 -3.35,3.35 -5.02,7.6 -5.02,12.75 0,5.15 1.67,9.39 5.02,12.71zm59.05 14.34l-18.16 -54.1 11.59 0 13.23 41.59 13.12 -41.59 11.67 0 -18.23 54.1 -13.22 0z"/>
   <path class="fil6" d="M1746.01 1071.35c2.95,2.34 4.43,5.51 4.43,9.48 0,3.98 -1.48,7.14 -4.43,9.49 -2.95,2.35 -6.88,3.68 -11.81,4.01l0 3.86 -4.44 0 0 -3.86c-4.89,-0.33 -8.81,-1.66 -11.76,-4.01 -2.95,-2.35 -4.43,-5.51 -4.43,-9.49 0,-3.97 1.48,-7.14 4.43,-9.48 2.95,-2.35 6.87,-3.69 11.76,-4.01l0 -3.87 4.44 0 0 3.87c4.93,0.32 8.86,1.66 11.81,4.01zm-11.81 18.82c3.69,-0.26 6.56,-1.16 8.61,-2.71 2.05,-1.55 3.08,-3.76 3.08,-6.63 0,-2.86 -1.03,-5.07 -3.08,-6.62 -2.05,-1.55 -4.92,-2.46 -8.61,-2.72l0 18.68zm-16.13 -9.34c0,2.84 1.03,5.03 3.08,6.58 2.05,1.55 4.92,2.45 8.61,2.71l0 -18.63c-3.69,0.26 -6.56,1.17 -8.61,2.72 -2.05,1.55 -3.08,3.76 -3.08,6.62zm70.85 17.12l0 -25.63 -17.69 25.63 -3.58 0 0 -34.23 4.55 0 0 25.57 17.6 -25.57 3.67 0 0 34.23 -4.55 0zm46.01 -34.23l0 4.3 -10.12 0 0 29.93 -4.5 0 0 -29.93 -10.07 0 0 -4.3 24.69 0zm37.9 0l4.49 0 0 34.23 -4.49 0 0 -15.41 -16.63 0 0 15.41 -4.55 0 0 -34.23 4.55 0 0 14.52 16.63 0 0 -14.52zm28.6 29.92l15.89 0 0 4.31 -20.44 0 0 -34.23 20.2 0 0 4.3 -15.65 0 0 10.52 14.42 0 0 4.25 -14.42 0 0 10.85zm49.43 4.94c-5.18,0 -9.46,-1.71 -12.83,-5.13 -3.37,-3.42 -5.06,-7.63 -5.06,-12.62 0,-4.98 1.69,-9.19 5.06,-12.61 3.37,-3.42 7.65,-5.14 12.83,-5.14 3.13,0 6.01,0.75 8.63,2.25 2.63,1.5 4.67,3.52 6.14,6.07l-3.96 2.29c-0.98,-1.89 -2.44,-3.39 -4.38,-4.52 -1.94,-1.12 -4.08,-1.69 -6.43,-1.69 -3.94,0 -7.16,1.28 -9.65,3.82 -2.5,2.54 -3.74,5.72 -3.74,9.53 0,3.79 1.24,6.95 3.74,9.49 2.49,2.54 5.71,3.81 9.65,3.81 2.35,0 4.49,-0.56 6.43,-1.68 1.94,-1.13 3.4,-2.62 4.38,-4.48l3.96 2.25c-1.43,2.54 -3.47,4.57 -6.11,6.09 -2.64,1.51 -5.53,2.27 -8.66,2.27zm65.23 -25.08l0 24.45 -4.25 0 0 -20.39 -12.67 0 0 20.39 -4.25 0 0 -24.45 21.17 0zm39.31 21.37c-2.51,2.47 -5.55,3.71 -9.14,3.71 -3.59,0 -6.63,-1.24 -9.12,-3.71 -2.49,-2.48 -3.74,-5.53 -3.74,-9.15 0,-3.62 1.25,-6.66 3.74,-9.14 2.49,-2.48 5.53,-3.72 9.12,-3.72 3.59,0 6.63,1.24 9.14,3.72 2.51,2.48 3.77,5.52 3.77,9.14 0,3.62 -1.26,6.67 -3.77,9.15zm-9.14 -0.44c2.45,0 4.5,-0.84 6.16,-2.5 1.66,-1.66 2.5,-3.73 2.5,-6.21 0,-2.47 -0.84,-4.55 -2.5,-6.21 -1.66,-1.66 -3.71,-2.49 -6.16,-2.49 -2.41,0 -4.45,0.83 -6.11,2.49 -1.66,1.66 -2.5,3.74 -2.5,6.21 0,2.48 0.84,4.55 2.5,6.21 1.66,1.66 3.7,2.5 6.11,2.5zm64.01 -30.71l4.49 0 0 34.23 -4.49 0 0 -15.41 -16.63 0 0 15.41 -4.55 0 0 -34.23 4.55 0 0 14.52 16.63 0 0 -14.52zm46.59 34.23l-2.79 -7.68 -15.39 0 -2.79 7.68 -4.84 0 12.76 -34.23 5.13 0 12.76 34.23 -4.84 0zm-16.63 -11.93l12.29 0 -6.14 -16.9 -6.15 16.9zm55.41 -22.3l4.59 0 -11 26.11c-1.24,2.93 -2.82,5.06 -4.74,6.38 -1.92,1.32 -4.27,1.9 -7.04,1.74l0 -4.21c1.89,0.2 3.41,-0.08 4.59,-0.83 1.17,-0.75 2.15,-2.04 2.93,-3.87l0.34 -0.81 -11.58 -24.51 4.6 0 9.07 19.55 8.24 -19.55zm45.86 34.23l-5.57 0 -14.77 -16.45 0 16.45 -4.55 0 0 -34.23 4.55 0 0 15.49 14.28 -15.49 5.57 0 -15.1 16.62 15.59 17.61zm20.83 -4.31l15.89 0 0 4.31 -20.44 0 0 -34.23 20.2 0 0 4.3 -15.65 0 0 10.52 14.43 0 0 4.25 -14.43 0 0 10.85z"/>
   <path class="fil2" d="M1301.72 358.2l-348.7 0c-10.17,0 -15.26,5.09 -15.26,15.26l0 510.4c5.18,-15.53 19.33,-26.97 36.3,-28.16l1.47 -18.33c-8.1,-12.68 -14.64,-26.58 -19.5,-41.72l-2.91 -9.06 27.8 -16.09 12.12 -150.64c-9.29,-19.7 -14.53,-42.35 -14.53,-68.4 0,-34.83 8.99,-65.95 27.29,-92.86 -18.17,-4.37 -31.67,-20.73 -31.67,-40.25 0,-22.86 18.54,-41.4 41.4,-41.4 20.04,0 36.77,14.26 40.58,33.19 34.23,-21.78 74.07,-30.39 115.72,-30.39 43.03,0 83.9,9.85 120.93,31.91 36.75,21.9 62.94,53.32 79.41,92.75l3.98 9.54 -7.45 4.35 28.86 8.7c6.36,-13.04 19.75,-22.03 35.23,-22.03 21.62,0 39.17,17.54 39.17,39.17 0,19.5 -14.27,35.67 -32.92,38.66l0 159.86c22.82,-15.93 41.71,-36.19 56.68,-60.77 20.34,-33.42 30.51,-70.48 30.51,-111.17 0,-59.58 -21.25,-109.89 -63.75,-150.95 -42.51,-41.05 -96.1,-61.57 -160.76,-61.57zm-363.96 551.86l0 26.85c0,10.18 5.45,15.26 16.35,15.26l144.9 0c9.43,0 289.57,0 321.51,0l79.56 0c5.81,0 9.99,-1.63 12.53,-4.9 2.54,-3.27 2.36,-7.45 -0.54,-12.53l-73.03 -130.01 0 40.87c18.65,2.99 32.92,19.17 32.92,38.67 0,21.63 -17.55,39.17 -39.17,39.17 -19.13,0 -35.06,-13.73 -38.49,-31.87l-76.22 2.12c-41.02,27.92 -91.29,36.93 -140.48,36.93 -45.55,0 -91.42,-7.68 -131.66,-29.35l-27.89 0.77c-2.51,20.44 -19.94,36.28 -41.05,36.28 -18.26,0 -33.76,-11.84 -39.24,-28.26zm488.78 -127.58l-13.65 -24.3c4.68,-2.34 9.23,-4.83 13.65,-7.46l0 -167.92c-7.76,-1.24 -14.75,-4.76 -20.28,-9.85l-78.88 62.06c1.08,0.73 2.14,1.47 3.21,2.22 18.44,12.91 32.48,29.67 41.79,50.16 9.98,21.96 13.67,46.1 13.67,70.08 0,23.21 -3.44,45.11 -10.98,65.13l33.51 30.88c5.11,-4.03 11.25,-6.8 17.96,-7.88l0 -63.12zm-336.35 -75.25c-4.34,-1.98 -8.61,-4.06 -12.8,-6.22l-8.98 18.83 21.78 -12.61zm-23.78 -12.21c-25.24,-14.57 -46.89,-32.87 -62.39,-55.87l-9.96 123.74 55.24 -31.98 17.11 -35.89zm287.58 -168.12l-14.18 8.29 46.14 1.35 -31.96 -9.64zm-34.49 20.15l-79.88 46.68c13.71,4.43 27.31,9.34 40.53,14.92 12.55,5.3 24.65,11.85 36.23,19.13l82.16 -64.64c-2.35,-4.22 -3.94,-8.92 -4.59,-13.91l-74.45 -2.18zm50.36 287.71c-8.21,17.04 -19.75,32.51 -35.07,46.01l59.17 -1.65c0.79,-6.03 2.96,-11.63 6.17,-16.47l-30.27 -27.89zm-343.4 54.59c-3.89,-2.68 -7.66,-5.47 -11.3,-8.36 1.15,2.73 2.01,5.61 2.55,8.6l8.75 -0.24zm-36.95 -33.1c-0.92,-1.07 -1.82,-2.16 -2.71,-3.25l-0.29 3.69c0.83,0.2 1.65,0.42 2.47,0.67l0.53 -1.11zm109.9 -144.98l2.02 5.14c8.82,22.42 21.55,38.49 39.18,47.66l36.77 -28.1c-3.85,-1.07 -7.7,-2.09 -11.5,-3.11 -9.5,-2.56 -19.01,-5.18 -28.43,-8.02 -13.03,-3.94 -25.78,-8.43 -38.04,-13.57zm54.69 58.17c8.16,2.38 17.17,3.59 27.1,3.59 8.13,0 31.55,-0.77 36.19,-9.54 0.75,-1.4 0.98,-3.01 0.98,-4.58 0,-2.44 -0.52,-4.64 -1.81,-6.71 -1.4,-2.25 -6,-4.49 -8.32,-5.49 -5.29,-2.26 -10.69,-4.45 -16.15,-6.3l-37.99 29.03zm80.08 -177.44l-3.47 -8.86c-6.98,-17.8 -16.75,-31.97 -31.25,-39.6l-9.46 -0.28c-1.95,10.74 -8.03,20.04 -16.55,26.18l2.28 4.45c1.4,0.49 2.79,0.96 4.16,1.43 13.16,4.47 26.55,8.46 39.9,12.34 4.8,1.4 9.6,2.84 14.39,4.34z"/>
   <path class="fil7" d="M1177.6 918.81c-40.01,0 -75.14,-6.09 -105.4,-18.27l221.71 -6.18c-31.46,16.3 -70.23,24.45 -116.31,24.45zm-129.88 -30.05c-2.36,-1.34 -4.69,-2.73 -6.98,-4.16 -6.87,-4.3 -13.31,-8.87 -19.33,-13.74l121.43 -92.8c11.36,4.52 24.15,6.78 38.36,6.78 32.65,0 48.98,-8.65 48.98,-25.93 0,-4.8 -1.2,-9.13 -3.6,-12.97 -1.41,-2.25 -3.57,-4.34 -6.46,-6.27 4.25,1.49 8.81,2.3 13.56,2.3 9.73,0 18.67,-3.38 25.71,-9.02l101.36 93.41c-8.82,19.63 -21.97,36.4 -39.45,50.32 -2,1.59 -4.05,3.13 -6.13,4.63l-267.45 7.45zm162.86 -153.88c-2.58,-1.09 -5.03,-2.08 -7.36,-2.98l1.91 -1.45c1.68,1.63 3.51,3.11 5.45,4.43zm-198.78 127.64c-2.69,-2.51 -5.28,-5.09 -7.76,-7.73l55.37 -116.09 31.03 -17.97c9.25,23.52 22.57,40.57 39.96,51.14l-118.6 90.65zm-16.68 -18.03c-2.41,-3.02 -4.7,-6.13 -6.88,-9.31l4.66 -57.98 47.4 -27.44 -45.18 94.73zm-17.9 -28.02c-3.9,-7.76 -7.21,-15.9 -9.95,-24.43l12.49 -7.23 -2.54 31.66zm211.8 -89.4c-5.02,-1.5 -11.71,-3.37 -20.07,-5.62 -12.48,-3.36 -21.85,-6 -28.09,-7.92 -21.85,-6.59 -41.31,-14.3 -58.4,-23.14l54.81 -114.91c3.8,1.14 7.82,1.76 11.99,1.76 1,0 1.99,-0.04 2.96,-0.11 3.73,1.84 8.48,3.85 14.27,6.02l43.11 84.23c-10.36,7.48 -17.1,19.65 -17.1,33.4 0,7.17 1.83,13.9 5.05,19.77l-8.53 6.52zm-117.53 -42.69c-30.59,-17.8 -52.53,-39.7 -65.82,-65.7l12.66 -157.37c0.43,-0.59 0.87,-1.17 1.31,-1.76 8.53,-0.84 16.31,-4.28 22.52,-9.51l72.24 63.46c-4.14,6.45 -6.54,14.11 -6.54,22.34 0,14.24 7.19,26.8 18.14,34.25l-54.51 114.29zm-76.17 -92.8c-3.33,-12.58 -5,-25.95 -5,-40.12 0,-23.93 4.5,-45.72 13.49,-65.38l-8.49 105.5zm57.6 -155.44l285.63 86.1 -21.03 12.29 -116.59 -3.41c-3.54,-1.55 -7.25,-2.78 -11.12,-3.68 -3.88,-18.84 -20.57,-33 -40.55,-33 -10.14,0 -19.43,3.65 -26.63,9.71l-72.24 -63.46c0.94,-1.45 1.78,-2.97 2.53,-4.55zm3.62 -12.1c30.96,-21.65 69.39,-32.48 115.29,-32.48 42.74,0 81.04,10.08 114.89,30.25 33.86,20.17 58.7,49.22 74.55,87.16l-8.01 4.68 -296.74 -89.46 0.02 -0.15zm240.67 122.36l-55.51 32.43c-5.7,-14.54 -12.92,-26.1 -21.68,-34.69l77.19 2.26zm-113.72 42.65c9.4,3.06 20.4,6.38 33,9.95 24.01,7.21 43.7,14.05 59.07,20.53 10,4.22 20.32,9.56 30.93,16.03l-44.67 35.15c-7.37,-6.89 -17.26,-11.11 -28.14,-11.11 -4.54,0 -8.92,0.74 -13.01,2.1l-37.18 -72.65zm134.15 53.62c2.05,1.37 4.11,2.78 6.18,4.23 16.8,11.77 29.41,26.89 37.81,45.38 8.41,18.49 12.61,40.22 12.61,65.19 0,20.7 -2.87,39.51 -8.6,56.44l-97.79 -90.12c4.43,-6.57 7.02,-14.49 7.02,-23.01 0,-7.37 -1.94,-14.28 -5.33,-20.27l48.1 -37.84z"/>
   <g>
    <path class="fil2" d="M1149.26 506.25c16.34,0 29.59,13.25 29.59,29.59 0,16.34 -13.25,29.59 -29.59,29.59 -16.34,0 -29.59,-13.25 -29.59,-29.59 0,-16.34 13.25,-29.59 29.59,-29.59z"/>
    <path class="fil2" d="M1233.68 671.41c16.23,0 29.38,13.15 29.38,29.37 0,16.23 -13.15,29.38 -29.38,29.38 -16.22,0 -29.37,-13.15 -29.37,-29.38 0,-16.22 13.15,-29.37 29.37,-29.37z"/>
    <path class="fil2" d="M977 867.4c16.32,0 29.55,13.24 29.55,29.56 0,16.32 -13.23,29.55 -29.55,29.55 -16.32,0 -29.55,-13.23 -29.55,-29.55 0,-16.32 13.23,-29.56 29.55,-29.56z"/>
    <path class="fil2" d="M1432.79 516.78c15.11,0 27.36,12.25 27.36,27.36 0,15.1 -12.25,27.35 -27.36,27.35 -15.11,0 -27.36,-12.25 -27.36,-27.35 0,-15.11 12.25,-27.36 27.36,-27.36z"/>
    <path class="fil2" d="M1432.79 856.91c15.11,0 27.36,12.25 27.36,27.36 0,15.11 -12.25,27.36 -27.36,27.36 -15.11,0 -27.36,-12.25 -27.36,-27.36 0,-15.11 12.25,-27.36 27.36,-27.36z"/>
    <path class="fil2" d="M1015.53 388.76c16.34,0 29.59,13.25 29.59,29.59 0,16.35 -13.25,29.6 -29.59,29.6 -16.35,0 -29.59,-13.25 -29.59,-29.6 0,-16.34 13.24,-29.59 29.59,-29.59z"/>
   </g>
   <path class="fil8" d="M1149.26 506.25c16.34,0 29.59,13.25 29.59,29.59 0,16.34 -13.25,29.59 -29.59,29.59 -16.34,0 -29.59,-13.25 -29.59,-29.59 0,-16.34 13.25,-29.59 29.59,-29.59z"/>
   <path class="fil8" d="M1233.68 671.41c16.23,0 29.38,13.15 29.38,29.37 0,16.23 -13.15,29.38 -29.38,29.38 -16.22,0 -29.37,-13.15 -29.37,-29.38 0,-16.22 13.15,-29.37 29.37,-29.37z"/>
   <path class="fil8" d="M977 867.4c16.32,0 29.55,13.24 29.55,29.56 0,16.32 -13.23,29.55 -29.55,29.55 -16.32,0 -29.55,-13.23 -29.55,-29.55 0,-16.32 13.23,-29.56 29.55,-29.56z"/>
   <path class="fil8" d="M1432.79 516.78c15.11,0 27.36,12.25 27.36,27.36 0,15.1 -12.25,27.35 -27.36,27.35 -15.11,0 -27.36,-12.25 -27.36,-27.35 0,-15.11 12.25,-27.36 27.36,-27.36z"/>
   <path class="fil8" d="M1432.79 856.91c15.11,0 27.36,12.25 27.36,27.36 0,15.11 -12.25,27.36 -27.36,27.36 -15.11,0 -27.36,-12.25 -27.36,-27.36 0,-15.11 12.25,-27.36 27.36,-27.36z"/>
   <path class="fil8" d="M1015.53 388.76c16.34,0 29.59,13.25 29.59,29.59 0,16.35 -13.25,29.6 -29.59,29.6 -16.35,0 -29.59,-13.25 -29.59,-29.6 0,-16.34 13.24,-29.59 29.59,-29.59z"/>
   <g>
    <path class="fil9" d="M1218.07 698.37c0.72,0.62 1.08,1.42 1.08,2.41 0,0.99 -0.36,1.8 -1.08,2.41 -0.72,0.62 -1.68,0.99 -2.89,1.11l0 1 -1.67 0 0 -1c-1.21,-0.13 -2.17,-0.5 -2.88,-1.11 -0.71,-0.62 -1.06,-1.42 -1.06,-2.41 0,-0.99 0.35,-1.79 1.06,-2.41 0.71,-0.61 1.67,-0.98 2.88,-1.1l0 -1.01 1.67 0 0 1.01c1.21,0.11 2.17,0.48 2.89,1.1zm-2.89 4.37c1.51,-0.18 2.26,-0.83 2.26,-1.96 0,-1.14 -0.75,-1.79 -2.26,-1.97l0 3.93zm-3.92 -1.96c0,1.13 0.75,1.78 2.25,1.94l0 -3.89c-1.5,0.16 -2.25,0.81 -2.25,1.95zm13.98 4.33l0 -5.25 -3.7 5.25 -1.32 0 0 -8.66 1.71 0 0 5.3 3.71 -5.3 1.3 0 0 8.66 -1.7 0zm9.04 -8.66l0 1.63 -2.34 0 0 7.03 -1.7 0 0 -7.03 -2.33 0 0 -1.63 6.37 0zm5.88 0l1.7 0 0 8.66 -1.7 0 0 -3.59 -3.21 0 0 3.59 -1.71 0 0 -8.66 1.71 0 0 3.44 3.21 0 0 -3.44zm5.02 7.03l3.65 0 0 1.63 -5.36 0 0 -8.66 5.3 0 0 1.63 -3.59 0 0 1.85 3.28 0 0 1.61 -3.28 0 0 1.94zm8.9 1.81c-1.31,0 -2.38,-0.44 -3.23,-1.3 -0.85,-0.87 -1.28,-1.94 -1.28,-3.21 0,-1.28 0.43,-2.35 1.28,-3.21 0.85,-0.86 1.92,-1.29 3.23,-1.29 0.78,0 1.51,0.18 2.17,0.55 0.66,0.36 1.18,0.86 1.55,1.49l-1.47 0.85c-0.21,-0.39 -0.52,-0.69 -0.92,-0.91 -0.39,-0.22 -0.84,-0.33 -1.33,-0.33 -0.85,0 -1.52,0.27 -2.04,0.8 -0.52,0.52 -0.77,1.21 -0.77,2.05 0,0.83 0.25,1.52 0.77,2.04 0.52,0.53 1.19,0.8 2.04,0.8 0.49,0 0.94,-0.11 1.34,-0.33 0.4,-0.22 0.7,-0.52 0.91,-0.9l1.47 0.85c-0.37,0.63 -0.88,1.13 -1.54,1.5 -0.66,0.36 -1.39,0.55 -2.18,0.55z"/>
    <path class="fil9" d="M1417.51 879.63l1.8 0 0 9.18 -1.8 0 0 -3.8 -3.41 0 0 3.8 -1.81 0 0 -9.18 1.81 0 0 3.65 3.41 0 0 -3.65zm9.54 9.18l-0.59 -1.65 -3.77 0 -0.55 1.65 -1.96 0 3.22 -9.18 2.24 0 3.24 9.18 -1.83 0zm-3.77 -3.34l2.58 0 -1.32 -3.75 -1.26 3.75zm11.04 -5.84l1.81 0 -2.75 6.66c-0.74,1.78 -1.95,2.62 -3.62,2.52l0 -1.69c0.49,0.04 0.88,-0.02 1.19,-0.2 0.3,-0.18 0.55,-0.47 0.75,-0.88l-3 -6.41 1.81 0 2.01 4.42 1.8 -4.42zm9.97 9.18l-2.08 0 -3.28 -4.3 0 4.3 -1.81 0 0 -9.18 1.81 0 0 4.05 3.15 -4.05 2.08 0 -3.4 4.46 3.53 4.72zm7.17 0l-0.59 -1.65 -3.77 0 -0.55 1.65 -1.96 0 3.22 -9.18 2.24 0 3.24 9.18 -1.83 0zm-3.77 -3.34l2.58 0 -1.32 -3.75 -1.26 3.75z"/>
    <path class="fil9" d="M1420.16 536.92c1.39,0 2.55,0.47 3.5,1.41 0.95,0.93 1.42,2.08 1.42,3.44 0,1.36 -0.47,2.5 -1.42,3.44 -0.95,0.93 -2.11,1.4 -3.5,1.4l-2.54 0 0 4.74 -2.84 0 0 -14.43 5.38 0zm0 7.03c0.6,0 1.1,-0.21 1.5,-0.63 0.4,-0.42 0.6,-0.94 0.6,-1.55 0,-0.64 -0.2,-1.16 -0.6,-1.57 -0.4,-0.41 -0.9,-0.62 -1.5,-0.62l-2.54 0 0 4.37 2.54 0zm18.05 7.4l-3.28 0 -5.15 -6.76 0 6.76 -2.84 0 0 -14.43 2.84 0 0 6.36 4.94 -6.36 3.28 0 -5.33 7.01 5.54 7.42zm9.75 0l0 -8.75 -6.16 8.75 -2.19 0 0 -14.43 2.84 0 0 8.82 6.18 -8.82 2.17 0 0 14.43 -2.84 0z"/>
    <path class="fil9" d="M1001.65 420.6l1.11 0 0 3.94 -2.05 0 0 -1.99 -5.74 0 0 1.99 -2.05 0 0 -3.94 1.01 0c0.58,-0.81 0.86,-1.98 0.86,-3.52l0 -4.91 6.86 0 0 8.43zm-5.52 0l3.47 0 0 -6.52 -2.76 0 0 3.03c0,1.5 -0.24,2.66 -0.71,3.49zm14 1.95l0 -6.3 -4.43 6.3 -1.57 0 0 -10.38 2.04 0 0 6.35 4.45 -6.35 1.56 0 0 10.38 -2.05 0zm6.03 -1.95l4.38 0 0 1.95 -6.43 0 0 -10.38 6.35 0 0 1.96 -4.3 0 0 2.21 3.93 0 0 1.92 -3.93 0 0 2.34zm12.69 -8.43l0 1.96 -2.81 0 0 8.42 -2.05 0 0 -8.42 -2.79 0 0 -1.96 7.65 0zm7.21 10.38l-0.66 -1.87 -4.27 0 -0.62 1.87 -2.21 0 3.63 -10.38 2.54 0 3.66 10.38 -2.07 0zm-4.26 -3.78l2.92 0 -1.5 -4.24 -1.42 4.24z"/>
    <path class="fil9" d="M1133.78 533.93c1.46,0 2.66,0.44 3.59,1.3 0.94,0.87 1.4,2 1.4,3.37 0,1.4 -0.46,2.53 -1.4,3.4 -0.93,0.86 -2.13,1.3 -3.59,1.3l-5.78 0 0 -15.08 9.48 0 0 2.85 -6.5 0 0 2.86 2.8 0zm0 6.59c0.58,0 1.07,-0.17 1.46,-0.5 0.39,-0.34 0.58,-0.81 0.58,-1.42 0,-0.6 -0.19,-1.06 -0.58,-1.4 -0.39,-0.33 -0.88,-0.49 -1.46,-0.49l-2.8 0 0 3.81 2.8 0zm24.2 2.78l-3.31 0 -4.68 -6.88 0 6.88 -2.97 0 0 -6.87 -4.67 6.87 -3.3 0 5.24 -7.69 -5.02 -7.39 3.29 0 4.46 6.72 0 -6.72 2.97 0 0 6.73 4.46 -6.73 3.32 0 -5.04 7.39 5.25 7.69zm9.57 -15.08l2.97 0 -4.53 10.94c-1.21,2.92 -3.19,4.29 -5.94,4.14l0 -2.78c0.81,0.07 1.46,-0.04 1.95,-0.33 0.5,-0.3 0.91,-0.77 1.24,-1.43l-4.93 -10.54 2.97 0 3.31 7.27 2.96 -7.27z"/>
    <path class="fil9" d="M959.92 903.26c-1.82,0 -3.33,-0.6 -4.52,-1.82 -1.19,-1.21 -1.78,-2.7 -1.78,-4.48 0,-1.79 0.59,-3.29 1.78,-4.5 1.19,-1.21 2.7,-1.81 4.52,-1.81 1.1,0 2.12,0.26 3.05,0.77 0.92,0.52 1.65,1.21 2.17,2.09l-2.06 1.19c-0.3,-0.54 -0.73,-0.96 -1.28,-1.27 -0.56,-0.31 -1.18,-0.46 -1.88,-0.46 -1.17,0 -2.12,0.37 -2.85,1.11 -0.72,0.74 -1.08,1.7 -1.08,2.88 0,1.16 0.36,2.12 1.08,2.86 0.73,0.74 1.68,1.1 2.85,1.1 0.7,0 1.32,-0.15 1.88,-0.45 0.57,-0.31 0.99,-0.73 1.28,-1.26l2.06 1.2c-0.52,0.87 -1.24,1.57 -2.17,2.08 -0.92,0.52 -1.94,0.77 -3.05,0.77zm13.71 -0.24l0 -7.36 -5.18 7.36 -1.84 0 0 -12.13 2.39 0 0 7.42 5.2 -7.42 1.82 0 0 12.13 -2.39 0zm3.71 0l0 -2.22c0.71,0.11 1.25,-0.04 1.61,-0.43 0.36,-0.39 0.54,-1.16 0.54,-2.3l0 -7.18 8.24 0 0 12.13 -2.37 0 0 -9.84 -3.5 0 0 4.82c0,1.05 -0.13,1.93 -0.38,2.65 -0.26,0.71 -0.6,1.24 -1.05,1.59 -0.44,0.35 -0.92,0.58 -1.42,0.69 -0.5,0.12 -1.06,0.15 -1.67,0.09zm20.62 0l-0.77 -2.18 -4.99 0 -0.72 2.18 -2.59 0 4.25 -12.13 2.96 0 4.28 12.13 -2.42 0zm-4.98 -4.42l3.42 0 -1.75 -4.95 -1.67 4.95z"/>
   </g>
   <path class="fil5" d="M979.35 1036.29l-10.94 -18.78 -8.07 0 0 18.78 -10.67 0 0 -54.1 21.64 0c5,0 9.25,1.75 12.75,5.25 3.51,3.51 5.26,7.73 5.26,12.68 0,3.35 -0.96,6.45 -2.86,9.31 -1.91,2.86 -4.43,5.01 -7.58,6.46l11.98 20.4 -11.51 0zm-19.01 -44.13l0 16 10.97 0c2.01,0 3.74,-0.79 5.18,-2.36 1.44,-1.57 2.16,-3.47 2.16,-5.68 0,-2.22 -0.72,-4.1 -2.16,-5.64 -1.44,-1.55 -3.17,-2.32 -5.18,-2.32l-10.97 0zm72.35 44.13l-3.44 -9.74 -22.23 0 -3.25 9.74 -11.51 0 18.93 -54.1 13.22 0 19.09 54.1 -10.81 0zm-22.2 -19.71l15.23 0 -7.81 -22.1 -7.42 22.1zm91.2 -34.39l0 54.1 -10.59 0 0 -35.09 -15.25 25.09 -1.25 0.06 -15.18 -25.02 0 34.96 -10.67 0 0 -54.1 10.98 0 15.5 25.54 15.45 -25.54 11.01 0zm10.05 0l10.67 0 0 54.1 -10.67 0 0 -54.1zm38.33 55.18c-5.35,0 -9.86,-1.2 -13.52,-3.59 -3.66,-2.4 -6.24,-5.66 -7.73,-9.78l9.12 -5.33c2.11,5.51 6.26,8.27 12.44,8.27 2.99,0 5.18,-0.54 6.57,-1.63 1.39,-1.08 2.09,-2.44 2.09,-4.09 0,-1.91 -0.85,-3.39 -2.55,-4.45 -1.7,-1.05 -4.74,-2.2 -9.12,-3.43 -2.42,-0.73 -4.47,-1.45 -6.14,-2.17 -1.68,-0.72 -3.35,-1.69 -5.03,-2.9 -1.67,-1.21 -2.95,-2.74 -3.82,-4.6 -0.88,-1.85 -1.32,-4.01 -1.32,-6.49 0,-4.89 1.74,-8.79 5.22,-11.71 3.48,-2.91 7.66,-4.36 12.56,-4.36 4.38,0 8.23,1.07 11.55,3.2 3.33,2.14 5.91,5.12 7.77,8.93l-8.97 5.18c-2.16,-4.64 -5.61,-6.96 -10.35,-6.96 -2.22,0 -3.96,0.51 -5.22,1.51 -1.26,1 -1.89,2.31 -1.89,3.9 0,1.7 0.71,3.08 2.12,4.14 1.42,1.05 4.14,2.2 8.16,3.44 1.64,0.51 2.89,0.91 3.74,1.19 0.85,0.29 2.01,0.73 3.48,1.32 1.47,0.59 2.6,1.15 3.4,1.66 0.8,0.52 1.72,1.21 2.75,2.09 1.03,0.87 1.81,1.77 2.35,2.7 0.54,0.93 1.01,2.05 1.4,3.36 0.38,1.32 0.57,2.75 0.57,4.29 0,5 -1.81,8.97 -5.44,11.91 -3.64,2.93 -8.36,4.4 -14.19,4.4zm64.38 0c-5.35,0 -9.86,-1.2 -13.52,-3.59 -3.66,-2.4 -6.24,-5.66 -7.73,-9.78l9.12 -5.33c2.11,5.51 6.26,8.27 12.44,8.27 2.99,0 5.18,-0.54 6.57,-1.63 1.39,-1.08 2.09,-2.44 2.09,-4.09 0,-1.91 -0.85,-3.39 -2.55,-4.45 -1.7,-1.05 -4.74,-2.2 -9.12,-3.43 -2.42,-0.73 -4.47,-1.45 -6.15,-2.17 -1.67,-0.72 -3.34,-1.69 -5.02,-2.9 -1.67,-1.21 -2.95,-2.74 -3.83,-4.6 -0.87,-1.85 -1.31,-4.01 -1.31,-6.49 0,-4.89 1.74,-8.79 5.22,-11.71 3.48,-2.91 7.66,-4.36 12.56,-4.36 4.38,0 8.23,1.07 11.55,3.2 3.32,2.14 5.91,5.12 7.77,8.93l-8.97 5.18c-2.16,-4.64 -5.61,-6.96 -10.35,-6.96 -2.22,0 -3.96,0.51 -5.22,1.51 -1.26,1 -1.89,2.31 -1.89,3.9 0,1.7 0.71,3.08 2.12,4.14 1.42,1.05 4.14,2.2 8.16,3.44 1.64,0.51 2.89,0.91 3.74,1.19 0.85,0.29 2.01,0.73 3.48,1.32 1.47,0.59 2.6,1.15 3.4,1.66 0.8,0.52 1.72,1.21 2.75,2.09 1.03,0.87 1.81,1.77 2.35,2.7 0.54,0.93 1.01,2.05 1.39,3.36 0.39,1.32 0.58,2.75 0.58,4.29 0,5 -1.81,8.97 -5.44,11.91 -3.64,2.93 -8.36,4.4 -14.19,4.4zm61.3 -1.08l-3.43 -9.74 -22.24 0 -3.24 9.74 -11.52 0 18.94 -54.1 13.21 0 19.09 54.1 -10.81 0zm-22.19 -19.71l15.23 0 -7.81 -22.1 -7.42 22.1zm69.02 -34.39l10.59 0 0 54.1 -10.59 0 0 -22.41 -20.1 0 0 22.41 -10.66 0 0 -54.1 10.66 0 0 21.48 20.1 0 0 -21.48zm20.63 0l10.67 0 0 54.1 -10.67 0 0 -54.1zm53.41 26.04c4.74,2.73 7.11,6.86 7.11,12.37 0,4.59 -1.63,8.35 -4.87,11.28 -3.25,2.94 -7.24,4.41 -11.98,4.41l-22.95 0 0 -54.1 21.33 0c4.63,0 8.54,1.43 11.71,4.29 3.16,2.86 4.75,6.5 4.75,10.93 0,4.49 -1.7,8.09 -5.1,10.82zm-11.36 -16.07l-10.67 0 0 11.9 10.67 0c1.65,0 3.02,-0.57 4.13,-1.7 1.11,-1.13 1.66,-2.55 1.66,-4.25 0,-1.7 -0.54,-3.12 -1.62,-4.25 -1.08,-1.13 -2.47,-1.7 -4.17,-1.7zm1.62 34.16c1.8,0 3.3,-0.61 4.48,-1.82 1.19,-1.21 1.78,-2.74 1.78,-4.6 0,-1.8 -0.59,-3.31 -1.78,-4.52 -1.18,-1.21 -2.68,-1.81 -4.48,-1.81l-12.29 0 0 12.75 12.29 0zm69.33 2.9c-5.47,5.43 -12.11,8.15 -19.94,8.15 -7.84,0 -14.47,-2.72 -19.91,-8.15 -5.43,-5.44 -8.15,-12.1 -8.15,-19.98 0,-7.88 2.72,-14.54 8.15,-19.98 5.44,-5.44 12.07,-8.15 19.91,-8.15 7.83,0 14.47,2.71 19.94,8.15 5.46,5.44 8.19,12.1 8.19,19.98 0,7.88 -2.73,14.54 -8.19,19.98zm-32.39 -7.27c3.35,3.33 7.5,4.99 12.45,4.99 4.94,0 9.09,-1.66 12.44,-4.99 3.35,-3.32 5.02,-7.56 5.02,-12.71 0,-5.15 -1.67,-9.4 -5.02,-12.75 -3.35,-3.35 -7.5,-5.03 -12.44,-5.03 -4.95,0 -9.1,1.68 -12.45,5.03 -3.35,3.35 -5.02,7.6 -5.02,12.75 0,5.15 1.67,9.39 5.02,12.71zm59.05 14.34l-18.16 -54.1 11.59 0 13.23 41.59 13.12 -41.59 11.67 0 -18.23 54.1 -13.22 0z"/>
   <path class="fil6" d="M982.11 1071.35c2.95,2.34 4.43,5.51 4.43,9.48 0,3.98 -1.48,7.14 -4.43,9.49 -2.95,2.35 -6.88,3.68 -11.81,4.01l0 3.86 -4.45 0 0 -3.86c-4.88,-0.33 -8.81,-1.66 -11.76,-4.01 -2.95,-2.35 -4.42,-5.51 -4.42,-9.49 0,-3.97 1.47,-7.14 4.42,-9.48 2.95,-2.35 6.88,-3.69 11.76,-4.01l0 -3.87 4.45 0 0 3.87c4.93,0.32 8.86,1.66 11.81,4.01zm-11.81 18.82c3.69,-0.26 6.56,-1.16 8.61,-2.71 2.05,-1.55 3.08,-3.76 3.08,-6.63 0,-2.86 -1.03,-5.07 -3.08,-6.62 -2.05,-1.55 -4.92,-2.46 -8.61,-2.72l0 18.68zm-16.13 -9.34c0,2.84 1.03,5.03 3.08,6.58 2.05,1.55 4.92,2.45 8.6,2.71l0 -18.63c-3.68,0.26 -6.55,1.17 -8.6,2.72 -2.05,1.55 -3.08,3.76 -3.08,6.62zm70.85 17.12l0 -25.63 -17.69 25.63 -3.58 0 0 -34.23 4.55 0 0 25.57 17.6 -25.57 3.67 0 0 34.23 -4.55 0zm46.01 -34.23l0 4.3 -10.12 0 0 29.93 -4.5 0 0 -29.93 -10.07 0 0 -4.3 24.69 0zm37.89 0l4.5 0 0 34.23 -4.5 0 0 -15.41 -16.62 0 0 15.41 -4.55 0 0 -34.23 4.55 0 0 14.52 16.62 0 0 -14.52zm28.61 29.92l15.89 0 0 4.31 -20.44 0 0 -34.23 20.2 0 0 4.3 -15.65 0 0 10.52 14.42 0 0 4.25 -14.42 0 0 10.85zm49.43 4.94c-5.18,0 -9.46,-1.71 -12.83,-5.13 -3.38,-3.42 -5.06,-7.63 -5.06,-12.62 0,-4.98 1.68,-9.19 5.06,-12.61 3.37,-3.42 7.65,-5.14 12.83,-5.14 3.13,0 6.01,0.75 8.63,2.25 2.63,1.5 4.67,3.52 6.14,6.07l-3.96 2.29c-0.98,-1.89 -2.44,-3.39 -4.38,-4.52 -1.94,-1.12 -4.08,-1.69 -6.43,-1.69 -3.94,0 -7.16,1.28 -9.65,3.82 -2.5,2.54 -3.74,5.72 -3.74,9.53 0,3.79 1.24,6.95 3.74,9.49 2.49,2.54 5.71,3.81 9.65,3.81 2.35,0 4.49,-0.56 6.43,-1.68 1.94,-1.13 3.4,-2.62 4.38,-4.48l3.96 2.25c-1.43,2.54 -3.47,4.57 -6.11,6.09 -2.64,1.51 -5.53,2.27 -8.66,2.27zm65.23 -25.08l0 24.45 -4.25 0 0 -20.39 -12.67 0 0 20.39 -4.25 0 0 -24.45 21.17 0zm39.31 21.37c-2.51,2.47 -5.55,3.71 -9.14,3.71 -3.59,0 -6.63,-1.24 -9.12,-3.71 -2.49,-2.48 -3.74,-5.53 -3.74,-9.15 0,-3.62 1.25,-6.66 3.74,-9.14 2.49,-2.48 5.53,-3.72 9.12,-3.72 3.59,0 6.63,1.24 9.14,3.72 2.51,2.48 3.77,5.52 3.77,9.14 0,3.62 -1.26,6.67 -3.77,9.15zm-9.14 -0.44c2.45,0 4.5,-0.84 6.16,-2.5 1.66,-1.66 2.49,-3.73 2.49,-6.21 0,-2.47 -0.83,-4.55 -2.49,-6.21 -1.66,-1.66 -3.71,-2.49 -6.16,-2.49 -2.41,0 -4.45,0.83 -6.11,2.49 -1.66,1.66 -2.5,3.74 -2.5,6.21 0,2.48 0.84,4.55 2.5,6.21 1.66,1.66 3.7,2.5 6.11,2.5zm64 -30.71l4.5 0 0 34.23 -4.5 0 0 -15.41 -16.62 0 0 15.41 -4.55 0 0 -34.23 4.55 0 0 14.52 16.62 0 0 -14.52zm46.6 34.23l-2.79 -7.68 -15.39 0 -2.79 7.68 -4.84 0 12.76 -34.23 5.13 0 12.76 34.23 -4.84 0zm-16.63 -11.93l12.29 0 -6.15 -16.9 -6.14 16.9zm55.41 -22.3l4.59 0 -11 26.11c-1.24,2.93 -2.82,5.06 -4.74,6.38 -1.92,1.32 -4.27,1.9 -7.04,1.74l0 -4.21c1.89,0.2 3.41,-0.08 4.59,-0.83 1.17,-0.75 2.15,-2.04 2.93,-3.87l0.33 -0.81 -11.57 -24.51 4.6 0 9.07 19.55 8.24 -19.55zm45.86 34.23l-5.57 0 -14.77 -16.45 0 16.45 -4.55 0 0 -34.23 4.55 0 0 15.49 14.28 -15.49 5.57 0 -15.11 16.62 15.6 17.61zm20.83 -4.31l15.89 0 0 4.31 -20.44 0 0 -34.23 20.2 0 0 4.3 -15.65 0 0 10.52 14.43 0 0 4.25 -14.43 0 0 10.85z"/>
   <path class="fil10" d="M552.15 358.2l-348.71 0c-10.17,0 -15.26,5.09 -15.26,15.26l0 510.4c5.19,-15.53 19.33,-26.97 36.3,-28.16l1.48 -18.33c-8.11,-12.68 -14.65,-26.58 -19.51,-41.72l-2.91 -9.06 27.8 -16.09 12.13 -150.64c-9.3,-19.7 -14.54,-42.35 -14.54,-68.4 0,-34.83 9,-65.95 27.3,-92.86 -18.17,-4.37 -31.68,-20.73 -31.68,-40.25 0,-22.86 18.54,-41.4 41.4,-41.4 20.05,0 36.77,14.26 40.59,33.19 34.22,-21.78 74.07,-30.39 115.72,-30.39 43.02,0 83.9,9.85 120.93,31.91 36.75,21.9 62.93,53.32 79.4,92.75l3.99 9.54 -7.45 4.35 28.86 8.7c6.35,-13.04 19.74,-22.03 35.22,-22.03 21.63,0 39.17,17.54 39.17,39.17 0,19.5 -14.26,35.67 -32.92,38.66l0 159.86c22.82,-15.93 41.72,-36.19 56.68,-60.77 20.35,-33.42 30.52,-70.48 30.52,-111.17 0,-59.58 -21.25,-109.89 -63.76,-150.95 -42.5,-41.05 -96.09,-61.57 -160.75,-61.57zm-363.97 551.86l0 26.85c0,10.18 5.45,15.26 16.35,15.26l144.9 0c9.44,0 289.58,0 321.51,0l79.56 0c5.81,0 9.99,-1.63 12.53,-4.9 2.55,-3.27 2.37,-7.45 -0.54,-12.53l-73.03 -130.01 0 40.87c18.66,2.99 32.92,19.17 32.92,38.67 0,21.63 -17.54,39.17 -39.17,39.17 -19.13,0 -35.06,-13.73 -38.48,-31.87l-76.22 2.12c-41.03,27.92 -91.3,36.93 -140.49,36.93 -45.54,0 -91.42,-7.68 -131.65,-29.35l-27.9 0.77c-2.51,20.44 -19.93,36.28 -41.05,36.28 -18.26,0 -33.76,-11.84 -39.24,-28.26zm488.78 -127.58l-13.65 -24.3c4.68,-2.34 9.23,-4.83 13.65,-7.46l0 -167.92c-7.75,-1.24 -14.75,-4.76 -20.27,-9.85l-78.89 62.06c1.08,0.73 2.15,1.47 3.21,2.22 18.44,12.91 32.48,29.67 41.8,50.16 9.98,21.96 13.66,46.1 13.66,70.08 0,23.21 -3.44,45.11 -10.98,65.13l33.51 30.88c5.11,-4.03 11.26,-6.8 17.96,-7.88l0 -63.12zm-336.35 -75.25c-4.34,-1.98 -8.61,-4.06 -12.8,-6.22l-8.98 18.83 21.78 -12.61zm-23.77 -12.21c-25.25,-14.57 -46.9,-32.87 -62.4,-55.87l-9.96 123.74 55.24 -31.98 17.12 -35.89zm287.57 -168.12l-14.18 8.29 46.15 1.35 -31.97 -9.64zm-34.48 20.15l-79.89 46.68c13.72,4.43 27.31,9.34 40.53,14.92 12.55,5.3 24.65,11.85 36.23,19.13l82.16 -64.64c-2.35,-4.22 -3.94,-8.92 -4.59,-13.91l-74.44 -2.18zm50.36 287.71c-8.21,17.04 -19.75,32.51 -35.07,46.01l59.16 -1.65c0.79,-6.03 2.96,-11.63 6.17,-16.47l-30.26 -27.89zm-343.4 54.59c-3.9,-2.68 -7.67,-5.47 -11.3,-8.36 1.14,2.73 2,5.61 2.54,8.6l8.76 -0.24zm-36.96 -33.1c-0.92,-1.07 -1.82,-2.16 -2.7,-3.25l-0.3 3.69c0.83,0.2 1.66,0.42 2.47,0.67l0.53 -1.11zm109.9 -144.98l2.03 5.14c8.81,22.42 21.55,38.49 39.18,47.66l36.76 -28.1c-3.84,-1.07 -7.7,-2.09 -11.49,-3.11 -9.5,-2.56 -19.02,-5.18 -28.44,-8.02 -13.02,-3.94 -25.78,-8.43 -38.04,-13.57zm54.7 58.17c8.16,2.38 17.16,3.59 27.09,3.59 8.13,0 31.56,-0.77 36.2,-9.54 0.74,-1.4 0.97,-3.01 0.97,-4.58 0,-2.44 -0.51,-4.64 -1.8,-6.71 -1.41,-2.25 -6.01,-4.49 -8.33,-5.49 -5.29,-2.26 -10.69,-4.45 -16.15,-6.3l-37.98 29.03zm80.07 -177.44l-3.47 -8.86c-6.97,-17.8 -16.75,-31.97 -31.25,-39.6l-9.46 -0.28c-1.94,10.74 -8.03,20.04 -16.55,26.18l2.28 4.45c1.41,0.49 2.8,0.96 4.16,1.43 13.17,4.47 26.55,8.46 39.9,12.34 4.8,1.4 9.6,2.84 14.39,4.34z"/>
   <path class="fil0" d="M428.02 918.81c-40.01,0 -75.14,-6.09 -105.4,-18.27l221.71 -6.18c-31.46,16.3 -70.23,24.45 -116.31,24.45zm-129.87 -30.05c-2.37,-1.34 -4.69,-2.73 -6.99,-4.16 -6.86,-4.3 -13.31,-8.87 -19.33,-13.74l121.43 -92.8c11.37,4.52 24.15,6.78 38.36,6.78 32.65,0 48.98,-8.65 48.98,-25.93 0,-4.8 -1.2,-9.13 -3.6,-12.97 -1.41,-2.25 -3.56,-4.34 -6.46,-6.27 4.25,1.49 8.81,2.3 13.57,2.3 9.72,0 18.66,-3.38 25.71,-9.02l101.35 93.41c-8.82,19.63 -21.97,36.4 -39.45,50.32 -2,1.59 -4.04,3.13 -6.12,4.63l-267.45 7.45zm162.86 -153.88c-2.59,-1.09 -5.04,-2.08 -7.36,-2.98l1.9 -1.45c1.69,1.63 3.51,3.11 5.46,4.43zm-198.79 127.64c-2.69,-2.51 -5.27,-5.09 -7.76,-7.73l55.38 -116.09 31.03 -17.97c9.24,23.52 22.56,40.57 39.96,51.14l-118.61 90.65zm-16.68 -18.03c-2.41,-3.02 -4.7,-6.13 -6.88,-9.31l4.67 -57.98 47.4 -27.44 -45.19 94.73zm-17.9 -28.02c-3.89,-7.76 -7.21,-15.9 -9.95,-24.43l12.5 -7.23 -2.55 31.66zm211.8 -89.4c-5.02,-1.5 -11.71,-3.37 -20.06,-5.62 -12.49,-3.36 -21.85,-6 -28.1,-7.92 -21.84,-6.59 -41.31,-14.3 -58.4,-23.14l54.82 -114.91c3.79,1.14 7.82,1.76 11.99,1.76 0.99,0 1.98,-0.04 2.96,-0.11 3.72,1.84 8.47,3.85 14.26,6.02l43.11 84.23c-10.36,7.48 -17.1,19.65 -17.1,33.4 0,7.17 1.83,13.9 5.05,19.77l-8.53 6.52zm-117.53 -42.69c-30.59,-17.8 -52.52,-39.7 -65.82,-65.7l12.67 -157.37c0.43,-0.59 0.86,-1.17 1.3,-1.76 8.54,-0.84 16.31,-4.28 22.53,-9.51l72.23 63.46c-4.14,6.45 -6.54,14.11 -6.54,22.34 0,14.24 7.2,26.8 18.15,34.25l-54.52 114.29zm-76.17 -92.8c-3.32,-12.58 -5,-25.95 -5,-40.12 0,-23.93 4.5,-45.72 13.5,-65.38l-8.5 105.5zm57.6 -155.44l285.63 86.1 -21.03 12.29 -116.58 -3.41c-3.55,-1.55 -7.25,-2.78 -11.13,-3.68 -3.88,-18.84 -20.56,-33 -40.54,-33 -10.15,0 -19.44,3.65 -26.64,9.71l-72.24 -63.46c0.94,-1.45 1.78,-2.97 2.53,-4.55zm3.62 -12.1c30.96,-21.65 69.39,-32.48 115.3,-32.48 42.74,0 81.03,10.08 114.88,30.25 33.86,20.17 58.71,49.22 74.56,87.16l-8.01 4.68 -296.75 -89.46 0.02 -0.15zm240.68 122.36l-55.51 32.43c-5.7,-14.54 -12.93,-26.1 -21.68,-34.69l77.19 2.26zm-113.73 42.65c9.4,3.06 20.4,6.38 33.01,9.95 24.01,7.21 43.69,14.05 59.06,20.53 10.01,4.22 20.32,9.56 30.94,16.03l-44.68 35.15c-7.36,-6.89 -17.26,-11.11 -28.13,-11.11 -4.55,0 -8.93,0.74 -13.02,2.1l-37.18 -72.65zm134.15 53.62c2.05,1.37 4.11,2.78 6.18,4.23 16.81,11.77 29.41,26.89 37.82,45.38 8.4,18.49 12.6,40.22 12.6,65.19 0,20.7 -2.87,39.51 -8.6,56.44l-97.79 -90.12c4.43,-6.57 7.02,-14.49 7.02,-23.01 0,-7.37 -1.93,-14.28 -5.33,-20.27l48.1 -37.84z"/>
   <g>
    <path class="fil2" d="M399.69 506.25c16.34,0 29.59,13.25 29.59,29.59 0,16.34 -13.25,29.59 -29.59,29.59 -16.35,0 -29.6,-13.25 -29.6,-29.59 0,-16.34 13.25,-29.59 29.6,-29.59z"/>
    <path class="fil2" d="M484.11 671.41c16.22,0 29.37,13.15 29.37,29.37 0,16.23 -13.15,29.38 -29.37,29.38 -16.23,0 -29.38,-13.15 -29.38,-29.38 0,-16.22 13.15,-29.37 29.38,-29.37z"/>
    <path class="fil2" d="M227.42 867.4c16.32,0 29.56,13.24 29.56,29.56 0,16.32 -13.24,29.55 -29.56,29.55 -16.32,0 -29.55,-13.23 -29.55,-29.55 0,-16.32 13.23,-29.56 29.55,-29.56z"/>
    <path class="fil2" d="M683.21 516.78c15.11,0 27.36,12.25 27.36,27.36 0,15.1 -12.25,27.35 -27.36,27.35 -15.11,0 -27.36,-12.25 -27.36,-27.35 0,-15.11 12.25,-27.36 27.36,-27.36z"/>
    <path class="fil2" d="M683.21 856.91c15.11,0 27.36,12.25 27.36,27.36 0,15.11 -12.25,27.36 -27.36,27.36 -15.11,0 -27.36,-12.25 -27.36,-27.36 0,-15.11 12.25,-27.36 27.36,-27.36z"/>
    <path class="fil2" d="M265.95 388.76c16.34,0 29.59,13.25 29.59,29.59 0,16.35 -13.25,29.6 -29.59,29.6 -16.34,0 -29.59,-13.25 -29.59,-29.6 0,-16.34 13.25,-29.59 29.59,-29.59z"/>
   </g>
   <path class="fil11" d="M399.69 506.25c16.34,0 29.59,13.25 29.59,29.59 0,16.34 -13.25,29.59 -29.59,29.59 -16.35,0 -29.6,-13.25 -29.6,-29.59 0,-16.34 13.25,-29.59 29.6,-29.59z"/>
   <path class="fil11" d="M484.11 671.41c16.22,0 29.37,13.15 29.37,29.37 0,16.23 -13.15,29.38 -29.37,29.38 -16.23,0 -29.38,-13.15 -29.38,-29.38 0,-16.22 13.15,-29.37 29.38,-29.37z"/>
   <path class="fil11" d="M227.42 867.4c16.32,0 29.56,13.24 29.56,29.56 0,16.32 -13.24,29.55 -29.56,29.55 -16.32,0 -29.55,-13.23 -29.55,-29.55 0,-16.32 13.23,-29.56 29.55,-29.56z"/>
   <path class="fil11" d="M683.21 516.78c15.11,0 27.36,12.25 27.36,27.36 0,15.1 -12.25,27.35 -27.36,27.35 -15.11,0 -27.36,-12.25 -27.36,-27.35 0,-15.11 12.25,-27.36 27.36,-27.36z"/>
   <path class="fil11" d="M683.21 856.91c15.11,0 27.36,12.25 27.36,27.36 0,15.11 -12.25,27.36 -27.36,27.36 -15.11,0 -27.36,-12.25 -27.36,-27.36 0,-15.11 12.25,-27.36 27.36,-27.36z"/>
   <path class="fil11" d="M265.95 388.76c16.34,0 29.59,13.25 29.59,29.59 0,16.35 -13.25,29.6 -29.59,29.6 -16.34,0 -29.59,-13.25 -29.59,-29.6 0,-16.34 13.25,-29.59 29.59,-29.59z"/>
   <path class="fil12" d="M468.49 698.37c0.72,0.62 1.08,1.42 1.08,2.41 0,0.99 -0.36,1.8 -1.08,2.41 -0.71,0.62 -1.68,0.99 -2.88,1.11l0 1 -1.67 0 0 -1c-1.22,-0.13 -2.18,-0.5 -2.89,-1.11 -0.71,-0.62 -1.06,-1.42 -1.06,-2.41 0,-0.99 0.35,-1.79 1.06,-2.41 0.71,-0.61 1.67,-0.98 2.89,-1.1l0 -1.01 1.67 0 0 1.01c1.2,0.11 2.17,0.48 2.88,1.1zm-2.88 4.37c1.5,-0.18 2.25,-0.83 2.25,-1.96 0,-1.14 -0.75,-1.79 -2.25,-1.97l0 3.93zm-3.92 -1.96c0,1.13 0.75,1.78 2.25,1.94l0 -3.89c-1.5,0.16 -2.25,0.81 -2.25,1.95zm13.97 4.33l0 -5.25 -3.7 5.25 -1.31 0 0 -8.66 1.7 0 0 5.3 3.72 -5.3 1.3 0 0 8.66 -1.71 0zm9.05 -8.66l0 1.63 -2.34 0 0 7.03 -1.71 0 0 -7.03 -2.33 0 0 -1.63 6.38 0zm5.88 0l1.69 0 0 8.66 -1.69 0 0 -3.59 -3.22 0 0 3.59 -1.71 0 0 -8.66 1.71 0 0 3.44 3.22 0 0 -3.44zm5.01 7.03l3.65 0 0 1.63 -5.36 0 0 -8.66 5.3 0 0 1.63 -3.59 0 0 1.85 3.28 0 0 1.61 -3.28 0 0 1.94zm8.9 1.81c-1.3,0 -2.38,-0.44 -3.23,-1.3 -0.85,-0.87 -1.27,-1.94 -1.27,-3.21 0,-1.28 0.42,-2.35 1.27,-3.21 0.85,-0.86 1.93,-1.29 3.23,-1.29 0.78,0 1.51,0.18 2.17,0.55 0.67,0.36 1.18,0.86 1.56,1.49l-1.48 0.85c-0.21,-0.39 -0.52,-0.69 -0.91,-0.91 -0.4,-0.22 -0.84,-0.33 -1.34,-0.33 -0.84,0 -1.52,0.27 -2.04,0.8 -0.51,0.52 -0.77,1.21 -0.77,2.05 0,0.83 0.26,1.52 0.77,2.04 0.52,0.53 1.2,0.8 2.04,0.8 0.5,0 0.94,-0.11 1.34,-0.33 0.4,-0.22 0.71,-0.52 0.91,-0.9l1.48 0.85c-0.38,0.63 -0.89,1.13 -1.55,1.5 -0.66,0.36 -1.39,0.55 -2.18,0.55z"/>
   <path class="fil12" d="M667.93 879.63l1.8 0 0 9.18 -1.8 0 0 -3.8 -3.41 0 0 3.8 -1.81 0 0 -9.18 1.81 0 0 3.65 3.41 0 0 -3.65zm9.54 9.18l-0.58 -1.65 -3.78 0 -0.55 1.65 -1.95 0 3.21 -9.18 2.24 0 3.24 9.18 -1.83 0zm-3.77 -3.34l2.59 0 -1.33 -3.75 -1.26 3.75zm11.05 -5.84l1.81 0 -2.76 6.66c-0.74,1.78 -1.94,2.62 -3.62,2.52l0 -1.69c0.49,0.04 0.89,-0.02 1.19,-0.2 0.3,-0.18 0.55,-0.47 0.75,-0.88l-3 -6.41 1.81 0 2.01 4.42 1.81 -4.42zm9.97 9.18l-2.09 0 -3.28 -4.3 0 4.3 -1.81 0 0 -9.18 1.81 0 0 4.05 3.15 -4.05 2.08 0 -3.39 4.46 3.53 4.72zm7.16 0l-0.59 -1.65 -3.77 0 -0.55 1.65 -1.95 0 3.21 -9.18 2.24 0 3.24 9.18 -1.83 0zm-3.77 -3.34l2.59 0 -1.33 -3.75 -1.26 3.75z"/>
   <path class="fil12" d="M670.58 536.92c1.39,0 2.56,0.47 3.5,1.41 0.95,0.93 1.43,2.08 1.43,3.44 0,1.36 -0.48,2.5 -1.43,3.44 -0.94,0.93 -2.11,1.4 -3.5,1.4l-2.53 0 0 4.74 -2.85 0 0 -14.43 5.38 0zm0 7.03c0.61,0 1.11,-0.21 1.51,-0.63 0.39,-0.42 0.59,-0.94 0.59,-1.55 0,-0.64 -0.2,-1.16 -0.59,-1.57 -0.4,-0.41 -0.9,-0.62 -1.51,-0.62l-2.53 0 0 4.37 2.53 0zm18.05 7.4l-3.27 0 -5.16 -6.76 0 6.76 -2.84 0 0 -14.43 2.84 0 0 6.36 4.95 -6.36 3.28 0 -5.34 7.01 5.54 7.42zm9.75 0l0 -8.75 -6.16 8.75 -2.19 0 0 -14.43 2.85 0 0 8.82 6.18 -8.82 2.16 0 0 14.43 -2.84 0z"/>
   <path class="fil12" d="M252.07 420.6l1.11 0 0 3.94 -2.04 0 0 -1.99 -5.75 0 0 1.99 -2.04 0 0 -3.94 1.01 0c0.57,-0.81 0.86,-1.98 0.86,-3.52l0 -4.91 6.85 0 0 8.43zm-5.52 0l3.47 0 0 -6.52 -2.76 0 0 3.03c0,1.5 -0.23,2.66 -0.71,3.49zm14.01 1.95l0 -6.3 -4.44 6.3 -1.57 0 0 -10.38 2.05 0 0 6.35 4.45 -6.35 1.56 0 0 10.38 -2.05 0zm6.02 -1.95l4.38 0 0 1.95 -6.42 0 0 -10.38 6.35 0 0 1.96 -4.31 0 0 2.21 3.93 0 0 1.92 -3.93 0 0 2.34zm12.69 -8.43l0 1.96 -2.81 0 0 8.42 -2.04 0 0 -8.42 -2.79 0 0 -1.96 7.64 0zm7.21 10.38l-0.66 -1.87 -4.27 0 -0.62 1.87 -2.21 0 3.64 -10.38 2.53 0 3.67 10.38 -2.08 0zm-4.26 -3.78l2.92 0 -1.49 -4.24 -1.43 4.24z"/>
   <path class="fil12" d="M384.2 533.93c1.46,0 2.66,0.44 3.6,1.3 0.93,0.87 1.4,2 1.4,3.37 0,1.4 -0.47,2.53 -1.4,3.4 -0.94,0.86 -2.14,1.3 -3.6,1.3l-5.77 0 0 -15.08 9.48 0 0 2.85 -6.51 0 0 2.86 2.8 0zm0 6.59c0.59,0 1.08,-0.17 1.46,-0.5 0.39,-0.34 0.59,-0.81 0.59,-1.42 0,-0.6 -0.2,-1.06 -0.59,-1.4 -0.38,-0.33 -0.87,-0.49 -1.46,-0.49l-2.8 0 0 3.81 2.8 0zm24.21 2.78l-3.32 0 -4.67 -6.88 0 6.88 -2.97 0 0 -6.87 -4.68 6.87 -3.29 0 5.23 -7.69 -5.02 -7.39 3.3 0 4.46 6.72 0 -6.72 2.97 0 0 6.73 4.46 -6.73 3.31 0 -5.04 7.39 5.26 7.69zm9.56 -15.08l2.97 0 -4.53 10.94c-1.2,2.92 -3.18,4.29 -5.93,4.14l0 -2.78c0.8,0.07 1.45,-0.04 1.95,-0.33 0.49,-0.3 0.9,-0.77 1.23,-1.43l-4.93 -10.54 2.97 0 3.31 7.27 2.96 -7.27z"/>
   <path class="fil12" d="M210.35 903.26c-1.83,0 -3.33,-0.6 -4.52,-1.82 -1.19,-1.21 -1.79,-2.7 -1.79,-4.48 0,-1.79 0.6,-3.29 1.79,-4.5 1.19,-1.21 2.69,-1.81 4.52,-1.81 1.1,0 2.11,0.26 3.04,0.77 0.93,0.52 1.65,1.21 2.17,2.09l-2.06 1.19c-0.3,-0.54 -0.73,-0.96 -1.28,-1.27 -0.56,-0.31 -1.18,-0.46 -1.87,-0.46 -1.18,0 -2.13,0.37 -2.85,1.11 -0.72,0.74 -1.08,1.7 -1.08,2.88 0,1.16 0.36,2.12 1.08,2.86 0.72,0.74 1.67,1.1 2.85,1.1 0.69,0 1.32,-0.15 1.88,-0.45 0.56,-0.31 0.98,-0.73 1.27,-1.26l2.06 1.2c-0.52,0.87 -1.24,1.57 -2.16,2.08 -0.93,0.52 -1.94,0.77 -3.05,0.77zm13.7 -0.24l0 -7.36 -5.17 7.36 -1.84 0 0 -12.13 2.39 0 0 7.42 5.2 -7.42 1.81 0 0 12.13 -2.39 0zm3.71 0l0 -2.22c0.72,0.11 1.26,-0.04 1.61,-0.43 0.36,-0.39 0.54,-1.16 0.54,-2.3l0 -7.18 8.25 0 0 12.13 -2.38 0 0 -9.84 -3.5 0 0 4.82c0,1.05 -0.12,1.93 -0.38,2.65 -0.25,0.71 -0.6,1.24 -1.05,1.59 -0.44,0.35 -0.91,0.58 -1.42,0.69 -0.5,0.12 -1.06,0.15 -1.67,0.09zm20.62 0l-0.77 -2.18 -4.98 0 -0.73 2.18 -2.58 0 4.24 -12.13 2.96 0 4.28 12.13 -2.42 0zm-4.97 -4.42l3.41 0 -1.75 -4.95 -1.66 4.95z"/>
   <path class="fil13" d="M229.77 1036.77l-10.93 -18.78 -8.08 0 0 18.78 -10.67 0 0 -54.1 21.64 0c5,0 9.25,1.75 12.76,5.25 3.5,3.5 5.25,7.73 5.25,12.68 0,3.35 -0.95,6.45 -2.86,9.31 -1.9,2.86 -4.43,5.01 -7.57,6.45l11.98 20.41 -11.52 0zm-19.01 -44.13l0 15.99 10.97 0c2.01,0 3.74,-0.78 5.18,-2.35 1.44,-1.57 2.17,-3.47 2.17,-5.68 0,-2.22 -0.73,-4.1 -2.17,-5.65 -1.44,-1.54 -3.17,-2.31 -5.18,-2.31l-10.97 0zm72.35 44.13l-3.44 -9.74 -22.23 0 -3.25 9.74 -11.51 0 18.93 -54.1 13.22 0 19.09 54.1 -10.81 0zm-22.19 -19.71l15.22 0 -7.8 -22.11 -7.42 22.11zm91.2 -34.39l0 54.1 -10.59 0 0 -35.09 -15.25 25.09 -1.25 0.05 -15.19 -25.01 0 34.96 -10.66 0 0 -54.1 10.97 0 15.51 25.54 15.44 -25.54 11.02 0zm10.04 0l10.67 0 0 54.1 -10.67 0 0 -54.1zm38.34 55.18c-5.36,0 -9.87,-1.2 -13.53,-3.6 -3.66,-2.39 -6.23,-5.65 -7.73,-9.77l9.12 -5.33c2.12,5.51 6.26,8.26 12.45,8.26 2.98,0 5.18,-0.54 6.57,-1.62 1.39,-1.08 2.08,-2.45 2.08,-4.09 0,-1.91 -0.85,-3.39 -2.55,-4.45 -1.7,-1.05 -4.74,-2.2 -9.12,-3.44 -2.42,-0.72 -4.47,-1.44 -6.14,-2.16 -1.68,-0.72 -3.35,-1.69 -5.03,-2.9 -1.67,-1.21 -2.95,-2.74 -3.82,-4.6 -0.88,-1.85 -1.31,-4.02 -1.31,-6.49 0,-4.89 1.73,-8.8 5.21,-11.71 3.48,-2.91 7.67,-4.37 12.56,-4.37 4.38,0 8.23,1.07 11.56,3.21 3.32,2.14 5.91,5.11 7.76,8.93l-8.96 5.18c-2.17,-4.64 -5.62,-6.96 -10.36,-6.96 -2.21,0 -3.95,0.5 -5.22,1.51 -1.26,1 -1.89,2.3 -1.89,3.9 0,1.7 0.71,3.08 2.13,4.14 1.41,1.05 4.13,2.2 8.15,3.43 1.65,0.52 2.9,0.92 3.75,1.2 0.85,0.29 2.01,0.72 3.48,1.32 1.46,0.59 2.6,1.14 3.4,1.66 0.8,0.51 1.71,1.21 2.74,2.08 1.03,0.88 1.82,1.78 2.36,2.71 0.54,0.93 1,2.05 1.39,3.36 0.38,1.32 0.58,2.75 0.58,4.29 0,5 -1.82,8.97 -5.45,11.9 -3.63,2.94 -8.36,4.41 -14.18,4.41zm64.38 0c-5.36,0 -9.87,-1.2 -13.53,-3.6 -3.66,-2.39 -6.23,-5.65 -7.73,-9.77l9.12 -5.33c2.12,5.51 6.26,8.26 12.45,8.26 2.98,0 5.18,-0.54 6.57,-1.62 1.39,-1.08 2.08,-2.45 2.08,-4.09 0,-1.91 -0.85,-3.39 -2.55,-4.45 -1.7,-1.05 -4.74,-2.2 -9.12,-3.44 -2.42,-0.72 -4.47,-1.44 -6.14,-2.16 -1.68,-0.72 -3.35,-1.69 -5.03,-2.9 -1.67,-1.21 -2.95,-2.74 -3.82,-4.6 -0.88,-1.85 -1.31,-4.02 -1.31,-6.49 0,-4.89 1.73,-8.8 5.21,-11.71 3.48,-2.91 7.67,-4.37 12.56,-4.37 4.38,0 8.23,1.07 11.56,3.21 3.32,2.14 5.91,5.11 7.76,8.93l-8.96 5.18c-2.17,-4.64 -5.62,-6.96 -10.36,-6.96 -2.21,0 -3.95,0.5 -5.22,1.51 -1.26,1 -1.89,2.3 -1.89,3.9 0,1.7 0.71,3.08 2.13,4.14 1.41,1.05 4.13,2.2 8.15,3.43 1.65,0.52 2.9,0.92 3.75,1.2 0.85,0.29 2.01,0.72 3.48,1.32 1.46,0.59 2.6,1.14 3.4,1.66 0.79,0.51 1.71,1.21 2.74,2.08 1.03,0.88 1.82,1.78 2.36,2.71 0.54,0.93 1,2.05 1.39,3.36 0.38,1.32 0.58,2.75 0.58,4.29 0,5 -1.82,8.97 -5.45,11.9 -3.63,2.94 -8.36,4.41 -14.18,4.41zm61.3 -1.08l-3.44 -9.74 -22.23 0 -3.25 9.74 -11.52 0 18.94 -54.1 13.22 0 19.08 54.1 -10.8 0zm-22.2 -19.71l15.23 0 -7.81 -22.11 -7.42 22.11zm69.02 -34.39l10.59 0 0 54.1 -10.59 0 0 -22.42 -20.09 0 0 22.42 -10.67 0 0 -54.1 10.67 0 0 21.48 20.09 0 0 -21.48zm20.64 0l10.66 0 0 54.1 -10.66 0 0 -54.1zm53.4 26.04c4.74,2.73 7.11,6.85 7.11,12.37 0,4.58 -1.62,8.34 -4.87,11.28 -3.24,2.94 -7.24,4.41 -11.98,4.41l-22.95 0 0 -54.1 21.33 0c4.64,0 8.54,1.43 11.71,4.28 3.17,2.87 4.75,6.51 4.75,10.94 0,4.48 -1.7,8.09 -5.1,10.82zm-11.36 -16.07l-10.67 0 0 11.9 10.67 0c1.65,0 3.03,-0.57 4.14,-1.7 1.1,-1.14 1.66,-2.55 1.66,-4.25 0,-1.7 -0.54,-3.12 -1.63,-4.25 -1.08,-1.14 -2.47,-1.7 -4.17,-1.7zm1.62 34.16c1.81,0 3.3,-0.61 4.49,-1.82 1.18,-1.21 1.77,-2.74 1.77,-4.6 0,-1.8 -0.59,-3.31 -1.77,-4.52 -1.19,-1.21 -2.68,-1.82 -4.49,-1.82l-12.29 0 0 12.76 12.29 0zm69.33 2.89c-5.46,5.44 -12.11,8.16 -19.94,8.16 -7.83,0 -14.47,-2.72 -19.9,-8.16 -5.44,-5.43 -8.16,-12.09 -8.16,-19.97 0,-7.89 2.72,-14.55 8.16,-19.98 5.43,-5.44 12.07,-8.16 19.9,-8.16 7.83,0 14.48,2.72 19.94,8.16 5.46,5.43 8.19,12.09 8.19,19.98 0,7.88 -2.73,14.54 -8.19,19.97zm-32.38 -7.26c3.35,3.32 7.49,4.98 12.44,4.98 4.95,0 9.09,-1.66 12.44,-4.98 3.35,-3.32 5.03,-7.56 5.03,-12.71 0,-5.16 -1.68,-9.41 -5.03,-12.76 -3.35,-3.35 -7.49,-5.02 -12.44,-5.02 -4.95,0 -9.09,1.67 -12.44,5.02 -3.35,3.35 -5.03,7.6 -5.03,12.76 0,5.15 1.68,9.39 5.03,12.71zm59.04 14.34l-18.16 -54.1 11.59 0 13.23 41.59 13.13 -41.59 11.67 0 -18.24 54.1 -13.22 0z"/>
   <path class="fil14" d="M232.54 1071.35c2.95,2.34 4.42,5.51 4.42,9.48 0,3.98 -1.47,7.14 -4.42,9.49 -2.95,2.35 -6.89,3.68 -11.81,4.01l0 3.86 -4.45 0 0 -3.86c-4.89,-0.33 -8.81,-1.66 -11.76,-4.01 -2.95,-2.35 -4.43,-5.51 -4.43,-9.49 0,-3.97 1.48,-7.14 4.43,-9.48 2.95,-2.35 6.87,-3.69 11.76,-4.01l0 -3.87 4.45 0 0 3.87c4.92,0.32 8.86,1.66 11.81,4.01zm-11.81 18.82c3.68,-0.26 6.55,-1.16 8.6,-2.71 2.06,-1.55 3.08,-3.76 3.08,-6.63 0,-2.86 -1.02,-5.07 -3.08,-6.62 -2.05,-1.55 -4.92,-2.46 -8.6,-2.72l0 18.68zm-16.14 -9.34c0,2.84 1.03,5.03 3.08,6.58 2.06,1.55 4.93,2.45 8.61,2.71l0 -18.63c-3.68,0.26 -6.55,1.17 -8.61,2.72 -2.05,1.55 -3.08,3.76 -3.08,6.62zm70.85 17.12l0 -25.63 -17.69 25.63 -3.58 0 0 -34.23 4.55 0 0 25.57 17.6 -25.57 3.67 0 0 34.23 -4.55 0zm46.01 -34.23l0 4.3 -10.12 0 0 29.93 -4.5 0 0 -29.93 -10.07 0 0 -4.3 24.69 0zm37.9 0l4.5 0 0 34.23 -4.5 0 0 -15.41 -16.63 0 0 15.41 -4.54 0 0 -34.23 4.54 0 0 14.52 16.63 0 0 -14.52zm28.6 29.92l15.89 0 0 4.31 -20.43 0 0 -34.23 20.19 0 0 4.3 -15.65 0 0 10.52 14.43 0 0 4.25 -14.43 0 0 10.85zm49.44 4.94c-5.19,0 -9.46,-1.71 -12.84,-5.13 -3.37,-3.42 -5.06,-7.63 -5.06,-12.62 0,-4.98 1.69,-9.19 5.06,-12.61 3.38,-3.42 7.65,-5.14 12.84,-5.14 3.13,0 6,0.75 8.63,2.25 2.62,1.5 4.67,3.52 6.13,6.07l-3.96 2.29c-0.98,-1.89 -2.43,-3.39 -4.37,-4.52 -1.94,-1.12 -4.09,-1.69 -6.43,-1.69 -3.95,0 -7.17,1.28 -9.66,3.82 -2.49,2.54 -3.74,5.72 -3.74,9.53 0,3.79 1.25,6.95 3.74,9.49 2.49,2.54 5.71,3.81 9.66,3.81 2.34,0 4.49,-0.56 6.43,-1.68 1.94,-1.13 3.39,-2.62 4.37,-4.48l3.96 2.25c-1.43,2.54 -3.47,4.57 -6.11,6.09 -2.64,1.51 -5.52,2.27 -8.65,2.27zm65.23 -25.08l0 24.45 -4.26 0 0 -20.39 -12.66 0 0 20.39 -4.26 0 0 -24.45 21.18 0zm39.31 21.37c-2.51,2.47 -5.56,3.71 -9.15,3.71 -3.58,0 -6.62,-1.24 -9.12,-3.71 -2.49,-2.48 -3.74,-5.53 -3.74,-9.15 0,-3.62 1.25,-6.66 3.74,-9.14 2.5,-2.48 5.54,-3.72 9.12,-3.72 3.59,0 6.64,1.24 9.15,3.72 2.51,2.48 3.76,5.52 3.76,9.14 0,3.62 -1.25,6.67 -3.76,9.15zm-9.15 -0.44c2.45,0 4.5,-0.84 6.17,-2.5 1.66,-1.66 2.49,-3.73 2.49,-6.21 0,-2.47 -0.83,-4.55 -2.49,-6.21 -1.67,-1.66 -3.72,-2.49 -6.17,-2.49 -2.41,0 -4.45,0.83 -6.11,2.49 -1.66,1.66 -2.49,3.74 -2.49,6.21 0,2.48 0.83,4.55 2.49,6.21 1.66,1.66 3.7,2.5 6.11,2.5zm64.01 -30.71l4.5 0 0 34.23 -4.5 0 0 -15.41 -16.63 0 0 15.41 -4.54 0 0 -34.23 4.54 0 0 14.52 16.63 0 0 -14.52zm46.6 34.23l-2.8 -7.68 -15.38 0 -2.8 7.68 -4.84 0 12.76 -34.23 5.14 0 12.76 34.23 -4.84 0zm-16.64 -11.93l12.29 0 -6.14 -16.9 -6.15 16.9zm55.41 -22.3l4.6 0 -11 26.11c-1.24,2.93 -2.82,5.06 -4.75,6.38 -1.92,1.32 -4.27,1.9 -7.04,1.74l0 -4.21c1.89,0.2 3.42,-0.08 4.59,-0.83 1.17,-0.75 2.15,-2.04 2.93,-3.87l0.34 -0.81 -11.57 -24.51 4.59 0 9.07 19.55 8.24 -19.55zm45.87 34.23l-5.58 0 -14.76 -16.45 0 16.45 -4.55 0 0 -34.23 4.55 0 0 15.49 14.27 -15.49 5.58 0 -15.11 16.62 15.6 17.61zm20.83 -4.31l15.89 0 0 4.31 -20.44 0 0 -34.23 20.19 0 0 4.3 -15.64 0 0 10.52 14.42 0 0 4.25 -14.42 0 0 10.85z"/>
   <path class="fil15" d="M552.15 1496.13l-348.71 0c-10.17,0 -15.26,5.08 -15.26,15.26l0 510.4c5.19,-15.53 19.33,-26.97 36.3,-28.16l1.48 -18.33c-8.11,-12.68 -14.65,-26.58 -19.51,-41.72l-2.91 -9.06 27.8 -16.1 12.13 -150.63c-9.3,-19.7 -14.54,-42.35 -14.54,-68.4 0,-34.83 9,-65.95 27.3,-92.86 -18.17,-4.37 -31.68,-20.74 -31.68,-40.25 0,-22.86 18.54,-41.4 41.4,-41.4 20.05,0 36.77,14.26 40.59,33.18 34.22,-21.77 74.07,-30.38 115.72,-30.38 43.02,0 83.9,9.85 120.93,31.91 36.75,21.9 62.93,53.32 79.4,92.75l3.99 9.54 -7.45 4.35 28.86 8.7c6.35,-13.04 19.74,-22.03 35.22,-22.03 21.63,0 39.17,17.54 39.17,39.16 0,19.5 -14.26,35.68 -32.92,38.67l0 159.86c22.82,-15.93 41.72,-36.19 56.68,-60.77 20.35,-33.43 30.52,-70.48 30.52,-111.17 0,-59.58 -21.25,-109.9 -63.76,-150.95 -42.5,-41.05 -96.09,-61.57 -160.75,-61.57zm-363.97 551.86l0 26.85c0,10.18 5.45,15.26 16.35,15.26l144.9 0c9.44,0 289.58,0 321.51,0l79.56 0c5.81,0 9.99,-1.63 12.53,-4.9 2.55,-3.27 2.37,-7.45 -0.54,-12.54l-73.03 -130 0 40.87c18.66,2.99 32.92,19.17 32.92,38.67 0,21.62 -17.54,39.17 -39.17,39.17 -19.13,0 -35.06,-13.73 -38.48,-31.87l-76.22 2.12c-41.03,27.91 -91.3,36.93 -140.49,36.93 -45.54,0 -91.42,-7.68 -131.65,-29.35l-27.9 0.77c-2.51,20.44 -19.93,36.28 -41.05,36.28 -18.26,0 -33.76,-11.84 -39.24,-28.26zm488.78 -127.58l-13.65 -24.3c4.68,-2.34 9.23,-4.83 13.65,-7.46l0 -167.92c-7.75,-1.24 -14.75,-4.76 -20.27,-9.85l-78.89 62.06c1.08,0.73 2.15,1.47 3.21,2.22 18.44,12.91 32.48,29.67 41.8,50.16 9.98,21.96 13.66,46.1 13.66,70.08 0,23.21 -3.44,45.11 -10.98,65.13l33.51 30.88c5.11,-4.03 11.26,-6.8 17.96,-7.88l0 -63.12zm-336.35 -75.25c-4.34,-1.98 -8.61,-4.06 -12.8,-6.22l-8.98 18.83 21.78 -12.61zm-23.77 -12.21c-25.25,-14.57 -46.9,-32.87 -62.4,-55.87l-9.96 123.74 55.24 -31.98 17.12 -35.89zm287.57 -168.12l-14.18 8.28 46.15 1.35 -31.97 -9.63zm-34.48 20.15l-79.89 46.68c13.72,4.43 27.31,9.34 40.53,14.92 12.55,5.3 24.65,11.85 36.23,19.13l82.16 -64.64c-2.35,-4.22 -3.94,-8.92 -4.59,-13.91l-74.44 -2.18zm50.36 287.71c-8.21,17.04 -19.75,32.51 -35.07,46.01l59.16 -1.65c0.79,-6.03 2.96,-11.63 6.17,-16.47l-30.26 -27.89zm-343.4 54.59c-3.9,-2.68 -7.67,-5.47 -11.3,-8.36 1.14,2.73 2,5.61 2.54,8.6l8.76 -0.24zm-36.96 -33.1c-0.92,-1.07 -1.82,-2.16 -2.7,-3.25l-0.3 3.69c0.83,0.2 1.66,0.42 2.47,0.67l0.53 -1.11zm109.9 -144.99l2.03 5.15c8.81,22.42 21.55,38.49 39.18,47.65l36.76 -28.09c-3.84,-1.07 -7.7,-2.09 -11.49,-3.12 -9.5,-2.55 -19.02,-5.17 -28.44,-8.02 -13.02,-3.93 -25.78,-8.42 -38.04,-13.57zm54.7 58.18c8.16,2.38 17.16,3.59 27.09,3.59 8.13,0 31.56,-0.77 36.2,-9.54 0.74,-1.4 0.97,-3.01 0.97,-4.58 0,-2.44 -0.51,-4.64 -1.8,-6.71 -1.41,-2.25 -6.01,-4.5 -8.33,-5.49 -5.29,-2.27 -10.69,-4.45 -16.15,-6.3l-37.98 29.03zm80.07 -177.44l-3.47 -8.86c-6.97,-17.8 -16.75,-31.97 -31.25,-39.6l-9.46 -0.28c-1.94,10.74 -8.03,20.04 -16.55,26.18l2.28 4.45c1.41,0.49 2.8,0.96 4.16,1.43 13.17,4.47 26.55,8.46 39.9,12.34 4.8,1.4 9.6,2.84 14.39,4.34z"/>
   <path class="fil15" d="M428.02 2056.74c-40.01,0 -75.14,-6.09 -105.4,-18.27l221.71 -6.18c-31.46,16.3 -70.23,24.45 -116.31,24.45zm-129.87 -30.05c-2.37,-1.34 -4.69,-2.73 -6.99,-4.16 -6.86,-4.3 -13.31,-8.88 -19.33,-13.74l121.43 -92.8c11.37,4.51 24.15,6.78 38.36,6.78 32.65,0 48.98,-8.65 48.98,-25.93 0,-4.81 -1.2,-9.13 -3.6,-12.97 -1.41,-2.25 -3.56,-4.34 -6.46,-6.27 4.25,1.49 8.81,2.3 13.57,2.3 9.72,0 18.66,-3.38 25.71,-9.02l101.35 93.41c-8.82,19.63 -21.97,36.4 -39.45,50.31 -2,1.6 -4.04,3.14 -6.12,4.64l-267.45 7.45zm162.86 -153.88c-2.59,-1.09 -5.04,-2.08 -7.36,-2.98l1.9 -1.45c1.69,1.63 3.51,3.11 5.46,4.43zm-198.79 127.63c-2.69,-2.5 -5.27,-5.08 -7.76,-7.72l55.38 -116.1 31.03 -17.96c9.24,23.52 22.56,40.56 39.96,51.14l-118.61 90.64zm-16.68 -18.02c-2.41,-3.02 -4.7,-6.13 -6.88,-9.31l4.67 -57.98 47.4 -27.44 -45.19 94.73zm-17.9 -28.03c-3.89,-7.75 -7.21,-15.89 -9.95,-24.42l12.5 -7.23 -2.55 31.65zm211.8 -89.39c-5.02,-1.5 -11.71,-3.37 -20.06,-5.62 -12.49,-3.36 -21.85,-6 -28.1,-7.92 -21.84,-6.59 -41.31,-14.3 -58.4,-23.14l54.82 -114.92c3.79,1.15 7.82,1.77 11.99,1.77 0.99,0 1.98,-0.04 2.96,-0.11 3.72,1.84 8.47,3.85 14.26,6.02l43.11 84.23c-10.36,7.48 -17.1,19.65 -17.1,33.4 0,7.16 1.83,13.9 5.05,19.77l-8.53 6.52zm-117.53 -42.69c-30.59,-17.8 -52.52,-39.7 -65.82,-65.7l12.67 -157.37c0.43,-0.59 0.86,-1.17 1.3,-1.76 8.54,-0.84 16.31,-4.28 22.53,-9.51l72.23 63.46c-4.14,6.45 -6.54,14.11 -6.54,22.34 0,14.24 7.2,26.8 18.15,34.25l-54.52 114.29zm-76.17 -92.8c-3.32,-12.58 -5,-25.95 -5,-40.12 0,-23.93 4.5,-45.72 13.5,-65.38l-8.5 105.5zm57.6 -155.44l285.63 86.1 -21.03 12.29 -116.58 -3.41c-3.55,-1.55 -7.25,-2.78 -11.13,-3.68 -3.88,-18.84 -20.56,-33 -40.54,-33 -10.15,0 -19.44,3.65 -26.64,9.71l-72.24 -63.46c0.94,-1.45 1.78,-2.97 2.53,-4.55zm3.62 -12.1c30.96,-21.65 69.39,-32.48 115.3,-32.48 42.74,0 81.03,10.08 114.88,30.25 33.86,20.17 58.71,49.22 74.56,87.15l-8.01 4.68 -296.75 -89.45 0.02 -0.15zm240.68 122.36l-55.51 32.43c-5.7,-14.54 -12.93,-26.1 -21.68,-34.69l77.19 2.26zm-113.73 42.65c9.4,3.06 20.4,6.38 33.01,9.95 24.01,7.2 43.69,14.05 59.06,20.53 10.01,4.22 20.32,9.56 30.94,16.03l-44.68 35.15c-7.36,-6.89 -17.26,-11.11 -28.13,-11.11 -4.55,0 -8.93,0.74 -13.02,2.1l-37.18 -72.65zm134.15 53.62c2.05,1.37 4.11,2.78 6.18,4.23 16.81,11.77 29.41,26.89 37.82,45.38 8.4,18.49 12.6,40.22 12.6,65.19 0,20.7 -2.87,39.51 -8.6,56.43l-97.79 -90.12c4.43,-6.56 7.02,-14.48 7.02,-23 0,-7.37 -1.93,-14.28 -5.33,-20.27l48.1 -37.84z"/>
   <g>
    <path class="fil15" d="M399.69 1644.18c16.34,0 29.59,13.25 29.59,29.59 0,16.34 -13.25,29.59 -29.59,29.59 -16.35,0 -29.6,-13.25 -29.6,-29.59 0,-16.34 13.25,-29.59 29.6,-29.59z"/>
    <path class="fil15" d="M484.11 1809.34c16.22,0 29.37,13.15 29.37,29.37 0,16.22 -13.15,29.38 -29.37,29.38 -16.23,0 -29.38,-13.16 -29.38,-29.38 0,-16.22 13.15,-29.37 29.38,-29.37z"/>
    <path class="fil15" d="M227.42 2005.33c16.32,0 29.56,13.24 29.56,29.56 0,16.32 -13.24,29.55 -29.56,29.55 -16.32,0 -29.55,-13.23 -29.55,-29.55 0,-16.32 13.23,-29.56 29.55,-29.56z"/>
    <path class="fil15" d="M683.21 1654.71c15.11,0 27.36,12.25 27.36,27.35 0,15.11 -12.25,27.36 -27.36,27.36 -15.11,0 -27.36,-12.25 -27.36,-27.36 0,-15.1 12.25,-27.35 27.36,-27.35z"/>
    <path class="fil15" d="M683.21 1994.84c15.11,0 27.36,12.25 27.36,27.36 0,15.11 -12.25,27.36 -27.36,27.36 -15.11,0 -27.36,-12.25 -27.36,-27.36 0,-15.11 12.25,-27.36 27.36,-27.36z"/>
    <path class="fil15" d="M265.95 1526.69c16.34,0 29.59,13.25 29.59,29.59 0,16.35 -13.25,29.6 -29.59,29.6 -16.34,0 -29.59,-13.25 -29.59,-29.6 0,-16.34 13.25,-29.59 29.59,-29.59z"/>
   </g>
   <path class="fil15" d="M399.69 1644.18c16.34,0 29.59,13.25 29.59,29.59 0,16.34 -13.25,29.59 -29.59,29.59 -16.35,0 -29.6,-13.25 -29.6,-29.59 0,-16.34 13.25,-29.59 29.6,-29.59z"/>
   <path class="fil15" d="M484.11 1809.34c16.22,0 29.37,13.15 29.37,29.37 0,16.22 -13.15,29.38 -29.37,29.38 -16.23,0 -29.38,-13.16 -29.38,-29.38 0,-16.22 13.15,-29.37 29.38,-29.37z"/>
   <path class="fil15" d="M227.42 2005.33c16.32,0 29.56,13.24 29.56,29.56 0,16.32 -13.24,29.55 -29.56,29.55 -16.32,0 -29.55,-13.23 -29.55,-29.55 0,-16.32 13.23,-29.56 29.55,-29.56z"/>
   <path class="fil15" d="M683.21 1654.71c15.11,0 27.36,12.25 27.36,27.35 0,15.11 -12.25,27.36 -27.36,27.36 -15.11,0 -27.36,-12.25 -27.36,-27.36 0,-15.1 12.25,-27.35 27.36,-27.35z"/>
   <path class="fil15" d="M683.21 1994.84c15.11,0 27.36,12.25 27.36,27.36 0,15.11 -12.25,27.36 -27.36,27.36 -15.11,0 -27.36,-12.25 -27.36,-27.36 0,-15.11 12.25,-27.36 27.36,-27.36z"/>
   <path class="fil15" d="M265.95 1526.69c16.34,0 29.59,13.25 29.59,29.59 0,16.35 -13.25,29.6 -29.59,29.6 -16.34,0 -29.59,-13.25 -29.59,-29.6 0,-16.34 13.25,-29.59 29.59,-29.59z"/>
   <path class="fil16" d="M229.77 2174.7l-10.93 -18.79 -8.08 0 0 18.79 -10.67 0 0 -54.11 21.64 0c5,0 9.25,1.76 12.76,5.26 3.5,3.5 5.25,7.73 5.25,12.68 0,3.34 -0.95,6.45 -2.86,9.31 -1.9,2.86 -4.43,5.01 -7.57,6.45l11.98 20.41 -11.52 0zm-19.01 -44.14l0 16 10.97 0c2.01,0 3.74,-0.78 5.18,-2.35 1.44,-1.58 2.17,-3.47 2.17,-5.68 0,-2.22 -0.73,-4.1 -2.17,-5.65 -1.44,-1.54 -3.17,-2.32 -5.18,-2.32l-10.97 0zm72.35 44.14l-3.44 -9.74 -22.23 0 -3.25 9.74 -11.51 0 18.93 -54.11 13.22 0 19.09 54.11 -10.81 0zm-22.19 -19.71l15.22 0 -7.8 -22.11 -7.42 22.11zm91.2 -34.4l0 54.11 -10.59 0 0 -35.09 -15.25 25.09 -1.25 0.05 -15.19 -25.01 0 34.96 -10.66 0 0 -54.11 10.97 0 15.51 25.55 15.44 -25.55 11.02 0zm10.04 0l10.67 0 0 54.11 -10.67 0 0 -54.11zm38.34 55.19c-5.36,0 -9.87,-1.2 -13.53,-3.6 -3.66,-2.39 -6.23,-5.65 -7.73,-9.77l9.12 -5.34c2.12,5.52 6.26,8.27 12.45,8.27 2.98,0 5.18,-0.54 6.57,-1.62 1.39,-1.08 2.08,-2.45 2.08,-4.1 0,-1.9 -0.85,-3.38 -2.55,-4.44 -1.7,-1.06 -4.74,-2.2 -9.12,-3.44 -2.42,-0.72 -4.47,-1.44 -6.14,-2.16 -1.68,-0.72 -3.35,-1.69 -5.03,-2.9 -1.67,-1.21 -2.95,-2.74 -3.82,-4.6 -0.88,-1.85 -1.31,-4.02 -1.31,-6.49 0,-4.9 1.73,-8.8 5.21,-11.71 3.48,-2.91 7.67,-4.37 12.56,-4.37 4.38,0 8.23,1.07 11.56,3.21 3.32,2.14 5.91,5.11 7.76,8.93l-8.96 5.17c-2.17,-4.63 -5.62,-6.95 -10.36,-6.95 -2.21,0 -3.95,0.5 -5.22,1.51 -1.26,1 -1.89,2.3 -1.89,3.9 0,1.7 0.71,3.08 2.13,4.13 1.41,1.06 4.13,2.21 8.15,3.44 1.65,0.52 2.9,0.92 3.75,1.2 0.85,0.28 2.01,0.72 3.48,1.32 1.46,0.59 2.6,1.14 3.4,1.66 0.8,0.51 1.71,1.21 2.74,2.08 1.03,0.88 1.82,1.78 2.36,2.71 0.54,0.93 1,2.05 1.39,3.36 0.38,1.31 0.58,2.74 0.58,4.29 0,5 -1.82,8.97 -5.45,11.9 -3.63,2.94 -8.36,4.41 -14.18,4.41zm64.38 0c-5.36,0 -9.87,-1.2 -13.53,-3.6 -3.66,-2.39 -6.23,-5.65 -7.73,-9.77l9.12 -5.34c2.12,5.52 6.26,8.27 12.45,8.27 2.98,0 5.18,-0.54 6.57,-1.62 1.39,-1.08 2.08,-2.45 2.08,-4.1 0,-1.9 -0.85,-3.38 -2.55,-4.44 -1.7,-1.06 -4.74,-2.2 -9.12,-3.44 -2.42,-0.72 -4.47,-1.44 -6.14,-2.16 -1.68,-0.72 -3.35,-1.69 -5.03,-2.9 -1.67,-1.21 -2.95,-2.74 -3.82,-4.6 -0.88,-1.85 -1.31,-4.02 -1.31,-6.49 0,-4.9 1.73,-8.8 5.21,-11.71 3.48,-2.91 7.67,-4.37 12.56,-4.37 4.38,0 8.23,1.07 11.56,3.21 3.32,2.14 5.91,5.11 7.76,8.93l-8.96 5.17c-2.17,-4.63 -5.62,-6.95 -10.36,-6.95 -2.21,0 -3.95,0.5 -5.22,1.51 -1.26,1 -1.89,2.3 -1.89,3.9 0,1.7 0.71,3.08 2.13,4.13 1.41,1.06 4.13,2.21 8.15,3.44 1.65,0.52 2.9,0.92 3.75,1.2 0.85,0.28 2.01,0.72 3.48,1.32 1.46,0.59 2.6,1.14 3.4,1.66 0.79,0.51 1.71,1.21 2.74,2.08 1.03,0.88 1.82,1.78 2.36,2.71 0.54,0.93 1,2.05 1.39,3.36 0.38,1.31 0.58,2.74 0.58,4.29 0,5 -1.82,8.97 -5.45,11.9 -3.63,2.94 -8.36,4.41 -14.18,4.41zm61.3 -1.08l-3.44 -9.74 -22.23 0 -3.25 9.74 -11.52 0 18.94 -54.11 13.22 0 19.08 54.11 -10.8 0zm-22.2 -19.71l15.23 0 -7.81 -22.11 -7.42 22.11zm69.02 -34.4l10.59 0 0 54.11 -10.59 0 0 -22.42 -20.09 0 0 22.42 -10.67 0 0 -54.11 10.67 0 0 21.49 20.09 0 0 -21.49zm20.64 0l10.66 0 0 54.11 -10.66 0 0 -54.11zm53.4 26.05c4.74,2.73 7.11,6.85 7.11,12.37 0,4.58 -1.62,8.34 -4.87,11.28 -3.24,2.94 -7.24,4.41 -11.98,4.41l-22.95 0 0 -54.11 21.33 0c4.64,0 8.54,1.43 11.71,4.29 3.17,2.86 4.75,6.51 4.75,10.94 0,4.48 -1.7,8.09 -5.1,10.82zm-11.36 -16.08l-10.67 0 0 11.91 10.67 0c1.65,0 3.03,-0.57 4.14,-1.7 1.1,-1.14 1.66,-2.55 1.66,-4.25 0,-1.7 -0.54,-3.12 -1.63,-4.25 -1.08,-1.14 -2.47,-1.71 -4.17,-1.71zm1.62 34.17c1.81,0 3.3,-0.61 4.49,-1.82 1.18,-1.21 1.77,-2.74 1.77,-4.6 0,-1.8 -0.59,-3.31 -1.77,-4.52 -1.19,-1.21 -2.68,-1.82 -4.49,-1.82l-12.29 0 0 12.76 12.29 0zm69.33 2.89c-5.46,5.44 -12.11,8.16 -19.94,8.16 -7.83,0 -14.47,-2.72 -19.9,-8.16 -5.44,-5.43 -8.16,-12.09 -8.16,-19.97 0,-7.89 2.72,-14.55 8.16,-19.98 5.43,-5.44 12.07,-8.16 19.9,-8.16 7.83,0 14.48,2.72 19.94,8.16 5.46,5.43 8.19,12.09 8.19,19.98 0,7.88 -2.73,14.54 -8.19,19.97zm-32.38 -7.26c3.35,3.32 7.49,4.98 12.44,4.98 4.95,0 9.09,-1.66 12.44,-4.98 3.35,-3.32 5.03,-7.56 5.03,-12.71 0,-5.16 -1.68,-9.41 -5.03,-12.76 -3.35,-3.35 -7.49,-5.02 -12.44,-5.02 -4.95,0 -9.09,1.67 -12.44,5.02 -3.35,3.35 -5.03,7.6 -5.03,12.76 0,5.15 1.68,9.39 5.03,12.71zm59.04 14.34l-18.16 -54.11 11.59 0 13.23 41.6 13.13 -41.6 11.67 0 -18.24 54.11 -13.22 0z"/>
   <path class="fil16" d="M232.54 2209.28c2.95,2.34 4.42,5.51 4.42,9.48 0,3.98 -1.47,7.14 -4.42,9.49 -2.95,2.34 -6.89,3.68 -11.81,4.01l0 3.86 -4.45 0 0 -3.86c-4.89,-0.33 -8.81,-1.67 -11.76,-4.01 -2.95,-2.35 -4.43,-5.51 -4.43,-9.49 0,-3.97 1.48,-7.14 4.43,-9.48 2.95,-2.35 6.87,-3.69 11.76,-4.01l0 -3.87 4.45 0 0 3.87c4.92,0.32 8.86,1.66 11.81,4.01zm-11.81 18.82c3.68,-0.26 6.55,-1.16 8.6,-2.71 2.06,-1.55 3.08,-3.76 3.08,-6.63 0,-2.87 -1.02,-5.08 -3.08,-6.62 -2.05,-1.55 -4.92,-2.46 -8.6,-2.72l0 18.68zm-16.14 -9.34c0,2.84 1.03,5.03 3.08,6.58 2.06,1.55 4.93,2.45 8.61,2.71l0 -18.63c-3.68,0.26 -6.55,1.17 -8.61,2.72 -2.05,1.54 -3.08,3.75 -3.08,6.62zm70.85 17.12l0 -25.63 -17.69 25.63 -3.58 0 0 -34.23 4.55 0 0 25.57 17.6 -25.57 3.67 0 0 34.23 -4.55 0zm46.01 -34.23l0 4.3 -10.12 0 0 29.93 -4.5 0 0 -29.93 -10.07 0 0 -4.3 24.69 0zm37.9 0l4.5 0 0 34.23 -4.5 0 0 -15.41 -16.63 0 0 15.41 -4.54 0 0 -34.23 4.54 0 0 14.52 16.63 0 0 -14.52zm28.6 29.92l15.89 0 0 4.31 -20.43 0 0 -34.23 20.19 0 0 4.3 -15.65 0 0 10.51 14.43 0 0 4.26 -14.43 0 0 10.85zm49.44 4.94c-5.19,0 -9.46,-1.71 -12.84,-5.13 -3.37,-3.42 -5.06,-7.63 -5.06,-12.62 0,-4.99 1.69,-9.19 5.06,-12.61 3.38,-3.43 7.65,-5.14 12.84,-5.14 3.13,0 6,0.75 8.63,2.25 2.62,1.5 4.67,3.52 6.13,6.07l-3.96 2.29c-0.98,-1.89 -2.43,-3.39 -4.37,-4.52 -1.94,-1.12 -4.09,-1.69 -6.43,-1.69 -3.95,0 -7.17,1.28 -9.66,3.82 -2.49,2.54 -3.74,5.72 -3.74,9.53 0,3.78 1.25,6.95 3.74,9.49 2.49,2.54 5.71,3.81 9.66,3.81 2.34,0 4.49,-0.56 6.43,-1.68 1.94,-1.13 3.39,-2.62 4.37,-4.48l3.96 2.25c-1.43,2.54 -3.47,4.57 -6.11,6.09 -2.64,1.51 -5.52,2.27 -8.65,2.27zm65.23 -25.08l0 24.45 -4.26 0 0 -20.39 -12.66 0 0 20.39 -4.26 0 0 -24.45 21.18 0zm39.31 21.37c-2.51,2.47 -5.56,3.71 -9.15,3.71 -3.58,0 -6.62,-1.24 -9.12,-3.71 -2.49,-2.48 -3.74,-5.53 -3.74,-9.15 0,-3.62 1.25,-6.66 3.74,-9.14 2.5,-2.48 5.54,-3.72 9.12,-3.72 3.59,0 6.64,1.24 9.15,3.72 2.51,2.48 3.76,5.52 3.76,9.14 0,3.62 -1.25,6.67 -3.76,9.15zm-9.15 -0.44c2.45,0 4.5,-0.84 6.17,-2.5 1.66,-1.66 2.49,-3.73 2.49,-6.21 0,-2.48 -0.83,-4.55 -2.49,-6.21 -1.67,-1.66 -3.72,-2.49 -6.17,-2.49 -2.41,0 -4.45,0.83 -6.11,2.49 -1.66,1.66 -2.49,3.73 -2.49,6.21 0,2.48 0.83,4.55 2.49,6.21 1.66,1.66 3.7,2.5 6.11,2.5zm64.01 -30.71l4.5 0 0 34.23 -4.5 0 0 -15.41 -16.63 0 0 15.41 -4.54 0 0 -34.23 4.54 0 0 14.52 16.63 0 0 -14.52zm46.6 34.23l-2.8 -7.68 -15.38 0 -2.8 7.68 -4.84 0 12.76 -34.23 5.14 0 12.76 34.23 -4.84 0zm-16.64 -11.94l12.29 0 -6.14 -16.89 -6.15 16.89zm55.41 -22.29l4.6 0 -11 26.11c-1.24,2.93 -2.82,5.06 -4.75,6.38 -1.92,1.32 -4.27,1.9 -7.04,1.74l0 -4.21c1.89,0.2 3.42,-0.08 4.59,-0.83 1.17,-0.75 2.15,-2.04 2.93,-3.87l0.34 -0.81 -11.57 -24.51 4.59 0 9.07 19.55 8.24 -19.55zm45.87 34.23l-5.58 0 -14.76 -16.45 0 16.45 -4.55 0 0 -34.23 4.55 0 0 15.49 14.27 -15.49 5.58 0 -15.11 16.62 15.6 17.61zm20.83 -4.31l15.89 0 0 4.31 -20.44 0 0 -34.23 20.19 0 0 4.3 -15.64 0 0 10.51 14.42 0 0 4.26 -14.42 0 0 10.85z"/>
   <path class="fil17 str0" d="M552.15 2408.97l-348.71 0c-10.17,0 -15.26,5.09 -15.26,15.26l0 510.4c5.19,-15.53 19.33,-26.96 36.3,-28.16l1.48 -18.33c-8.11,-12.68 -14.65,-26.57 -19.51,-41.72l-2.91 -9.06 27.8 -16.09 12.13 -150.63c-9.3,-19.71 -14.54,-42.36 -14.54,-68.4 0,-34.84 9,-65.96 27.3,-92.86 -18.17,-4.38 -31.68,-20.74 -31.68,-40.25 0,-22.86 18.54,-41.4 41.4,-41.4 20.05,0 36.77,14.26 40.59,33.18 34.22,-21.78 74.07,-30.39 115.72,-30.39 43.02,0 83.9,9.86 120.93,31.92 36.75,21.89 62.93,53.31 79.4,92.75l3.99 9.53 -7.45 4.35 28.86 8.7c6.35,-13.04 19.74,-22.03 35.22,-22.03 21.63,0 39.17,17.54 39.17,39.17 0,19.5 -14.26,35.68 -32.92,38.67l0 159.86c22.82,-15.94 41.72,-36.2 56.68,-60.78 20.35,-33.42 30.52,-70.48 30.52,-111.16 0,-59.58 -21.25,-109.9 -63.76,-150.95 -42.5,-41.05 -96.09,-61.58 -160.75,-61.58zm-363.97 551.86l0 26.86c0,10.17 5.45,15.26 16.35,15.26l144.9 0c9.44,0 289.58,0 321.51,0l79.56 0c5.81,0 9.99,-1.64 12.53,-4.91 2.55,-3.27 2.37,-7.44 -0.54,-12.53l-73.03 -130.01 0 40.87c18.66,3 32.92,19.17 32.92,38.67 0,21.63 -17.54,39.17 -39.17,39.17 -19.13,0 -35.06,-13.73 -38.48,-31.86l-76.22 2.12c-41.03,27.91 -91.3,36.93 -140.49,36.93 -45.54,0 -91.42,-7.68 -131.65,-29.36l-27.9 0.78c-2.51,20.44 -19.93,36.27 -41.05,36.27 -18.26,0 -33.76,-11.84 -39.24,-28.26zm488.78 -127.58l-13.65 -24.3c4.68,-2.34 9.23,-4.82 13.65,-7.45l0 -167.92c-7.75,-1.25 -14.75,-4.77 -20.27,-9.86l-78.89 62.06c1.08,0.74 2.15,1.48 3.21,2.22 18.44,12.91 32.48,29.68 41.8,50.17 9.98,21.95 13.66,46.1 13.66,70.07 0,23.21 -3.44,45.11 -10.98,65.13l33.51 30.88c5.11,-4.02 11.26,-6.8 17.96,-7.88l0 -63.12zm-336.35 -75.24c-4.34,-1.99 -8.61,-4.06 -12.8,-6.22l-8.98 18.83 21.78 -12.61zm-23.77 -12.21c-25.25,-14.57 -46.9,-32.87 -62.4,-55.88l-9.96 123.74 55.24 -31.98 17.12 -35.88zm287.57 -168.13l-14.18 8.29 46.15 1.35 -31.97 -9.64zm-34.48 20.15l-79.89 46.68c13.72,4.43 27.31,9.35 40.53,14.92 12.55,5.3 24.65,11.85 36.23,19.13l82.16 -64.63c-2.35,-4.22 -3.94,-8.92 -4.59,-13.92l-74.44 -2.18zm50.36 287.72c-8.21,17.04 -19.75,32.5 -35.07,46l59.16 -1.65c0.79,-6.03 2.96,-11.62 6.17,-16.47l-30.26 -27.88zm-343.4 54.59c-3.9,-2.69 -7.67,-5.48 -11.3,-8.37 1.14,2.73 2,5.61 2.54,8.61l8.76 -0.24zm-36.96 -33.1c-0.92,-1.08 -1.82,-2.16 -2.7,-3.26l-0.3 3.7c0.83,0.2 1.66,0.42 2.47,0.67l0.53 -1.11zm109.9 -144.99l2.03 5.14c8.81,22.42 21.55,38.5 39.18,47.66l36.76 -28.1c-3.84,-1.06 -7.7,-2.09 -11.49,-3.11 -9.5,-2.56 -19.02,-5.18 -28.44,-8.02 -13.02,-3.93 -25.78,-8.43 -38.04,-13.57zm54.7 58.18c8.16,2.37 17.16,3.58 27.09,3.58 8.13,0 31.56,-0.77 36.2,-9.53 0.74,-1.41 0.97,-3.02 0.97,-4.59 0,-2.43 -0.51,-4.64 -1.8,-6.7 -1.41,-2.25 -6.01,-4.5 -8.33,-5.49 -5.29,-2.27 -10.69,-4.46 -16.15,-6.3l-37.98 29.03zm80.07 -177.44l-3.47 -8.86c-6.97,-17.8 -16.75,-31.97 -31.25,-39.61l-9.46 -0.27c-1.94,10.73 -8.03,20.03 -16.55,26.17l2.28 4.46c1.41,0.48 2.8,0.96 4.16,1.42 13.17,4.48 26.55,8.47 39.9,12.35 4.8,1.39 9.6,2.84 14.39,4.34z"/>
   <path class="fil17 str0" d="M428.02 2969.59c-40.01,0 -75.14,-6.1 -105.4,-18.28l221.71 -6.17c-31.46,16.3 -70.23,24.45 -116.31,24.45zm-129.87 -30.06c-2.37,-1.34 -4.69,-2.73 -6.99,-4.16 -6.86,-4.29 -13.31,-8.87 -19.33,-13.73l121.43 -92.81c11.37,4.52 24.15,6.78 38.36,6.78 32.65,0 48.98,-8.64 48.98,-25.93 0,-4.8 -1.2,-9.12 -3.6,-12.96 -1.41,-2.26 -3.56,-4.35 -6.46,-6.27 4.25,1.48 8.81,2.29 13.57,2.29 9.72,0 18.66,-3.37 25.71,-9.01l101.35 93.41c-8.82,19.62 -21.97,36.4 -39.45,50.31 -2,1.59 -4.04,3.14 -6.12,4.64l-267.45 7.44zm162.86 -153.88c-2.59,-1.08 -5.04,-2.07 -7.36,-2.97l1.9 -1.45c1.69,1.62 3.51,3.1 5.46,4.42zm-198.79 127.64c-2.69,-2.51 -5.27,-5.08 -7.76,-7.73l55.38 -116.09 31.03 -17.96c9.24,23.51 22.56,40.56 39.96,51.14l-118.61 90.64zm-16.68 -18.02c-2.41,-3.03 -4.7,-6.13 -6.88,-9.32l4.67 -57.97 47.4 -27.45 -45.19 94.74zm-17.9 -28.03c-3.89,-7.76 -7.21,-15.9 -9.95,-24.42l12.5 -7.24 -2.55 31.66zm211.8 -89.39c-5.02,-1.5 -11.71,-3.37 -20.06,-5.62 -12.49,-3.36 -21.85,-6.01 -28.1,-7.93 -21.84,-6.58 -41.31,-14.29 -58.4,-23.13l54.82 -114.92c3.79,1.15 7.82,1.77 11.99,1.77 0.99,0 1.98,-0.04 2.96,-0.11 3.72,1.84 8.47,3.84 14.26,6.02l43.11 84.22c-10.36,7.48 -17.1,19.66 -17.1,33.41 0,7.16 1.83,13.9 5.05,19.77l-8.53 6.52zm-117.53 -42.7c-30.59,-17.8 -52.52,-39.7 -65.82,-65.69l12.67 -157.37c0.43,-0.59 0.86,-1.18 1.3,-1.76 8.54,-0.84 16.31,-4.28 22.53,-9.51l72.23 63.46c-4.14,6.44 -6.54,14.11 -6.54,22.33 0,14.24 7.2,26.81 18.15,34.26l-54.52 114.28zm-76.17 -92.79c-3.32,-12.59 -5,-25.96 -5,-40.12 0,-23.93 4.5,-45.73 13.5,-65.39l-8.5 105.51zm57.6 -155.44l285.63 86.1 -21.03 12.29 -116.58 -3.41c-3.55,-1.55 -7.25,-2.78 -11.13,-3.69 -3.88,-18.83 -20.56,-33 -40.54,-33 -10.15,0 -19.44,3.65 -26.64,9.71l-72.24 -63.45c0.94,-1.46 1.78,-2.98 2.53,-4.55zm3.62 -12.1c30.96,-21.66 69.39,-32.49 115.3,-32.49 42.74,0 81.03,10.09 114.88,30.25 33.86,20.17 58.71,49.22 74.56,87.16l-8.01 4.68 -296.75 -89.45 0.02 -0.15zm240.68 122.35l-55.51 32.44c-5.7,-14.54 -12.93,-26.11 -21.68,-34.7l77.19 2.26zm-113.73 42.66c9.4,3.06 20.4,6.37 33.01,9.95 24.01,7.2 43.69,14.04 59.06,20.53 10.01,4.22 20.32,9.56 30.94,16.02l-44.68 35.15c-7.36,-6.89 -17.26,-11.11 -28.13,-11.11 -4.55,0 -8.93,0.74 -13.02,2.1l-37.18 -72.64zm134.15 53.62c2.05,1.37 4.11,2.78 6.18,4.23 16.81,11.76 29.41,26.89 37.82,45.37 8.4,18.49 12.6,40.22 12.6,65.19 0,20.71 -2.87,39.52 -8.6,56.44l-97.79 -90.12c4.43,-6.57 7.02,-14.48 7.02,-23 0,-7.37 -1.93,-14.29 -5.33,-20.27l48.1 -37.84z"/>
   <g>
    <path class="fil17 str0" d="M399.69 2557.02c16.34,0 29.59,13.25 29.59,29.59 0,16.35 -13.25,29.6 -29.59,29.6 -16.35,0 -29.6,-13.25 -29.6,-29.6 0,-16.34 13.25,-29.59 29.6,-29.59z"/>
    <path class="fil17 str0" d="M484.11 2722.18c16.22,0 29.37,13.15 29.37,29.38 0,16.22 -13.15,29.37 -29.37,29.37 -16.23,0 -29.38,-13.15 -29.38,-29.37 0,-16.23 13.15,-29.38 29.38,-29.38z"/>
    <path class="fil17 str0" d="M227.42 2918.18c16.32,0 29.56,13.23 29.56,29.55 0,16.32 -13.24,29.55 -29.56,29.55 -16.32,0 -29.55,-13.23 -29.55,-29.55 0,-16.32 13.23,-29.55 29.55,-29.55z"/>
    <path class="fil17 str0" d="M683.21 2567.55c15.11,0 27.36,12.25 27.36,27.36 0,15.11 -12.25,27.36 -27.36,27.36 -15.11,0 -27.36,-12.25 -27.36,-27.36 0,-15.11 12.25,-27.36 27.36,-27.36z"/>
    <path class="fil17 str0" d="M683.21 2907.69c15.11,0 27.36,12.24 27.36,27.35 0,15.11 -12.25,27.36 -27.36,27.36 -15.11,0 -27.36,-12.25 -27.36,-27.36 0,-15.11 12.25,-27.35 27.36,-27.35z"/>
    <path class="fil17 str0" d="M265.95 2439.54c16.34,0 29.59,13.25 29.59,29.59 0,16.34 -13.25,29.59 -29.59,29.59 -16.34,0 -29.59,-13.25 -29.59,-29.59 0,-16.34 13.25,-29.59 29.59,-29.59z"/>
   </g>
   <path class="fil17 str0" d="M399.69 2557.02c16.34,0 29.59,13.25 29.59,29.59 0,16.35 -13.25,29.6 -29.59,29.6 -16.35,0 -29.6,-13.25 -29.6,-29.6 0,-16.34 13.25,-29.59 29.6,-29.59z"/>
   <path class="fil17 str0" d="M484.11 2722.18c16.22,0 29.37,13.15 29.37,29.38 0,16.22 -13.15,29.37 -29.37,29.37 -16.23,0 -29.38,-13.15 -29.38,-29.37 0,-16.23 13.15,-29.38 29.38,-29.38z"/>
   <path class="fil17 str0" d="M227.42 2918.18c16.32,0 29.56,13.23 29.56,29.55 0,16.32 -13.24,29.55 -29.56,29.55 -16.32,0 -29.55,-13.23 -29.55,-29.55 0,-16.32 13.23,-29.55 29.55,-29.55z"/>
   <path class="fil17 str0" d="M683.21 2567.55c15.11,0 27.36,12.25 27.36,27.36 0,15.11 -12.25,27.36 -27.36,27.36 -15.11,0 -27.36,-12.25 -27.36,-27.36 0,-15.11 12.25,-27.36 27.36,-27.36z"/>
   <path class="fil17 str0" d="M683.21 2907.69c15.11,0 27.36,12.24 27.36,27.35 0,15.11 -12.25,27.36 -27.36,27.36 -15.11,0 -27.36,-12.25 -27.36,-27.36 0,-15.11 12.25,-27.35 27.36,-27.35z"/>
   <path class="fil17 str0" d="M265.95 2439.54c16.34,0 29.59,13.25 29.59,29.59 0,16.34 -13.25,29.59 -29.59,29.59 -16.34,0 -29.59,-13.25 -29.59,-29.59 0,-16.34 13.25,-29.59 29.59,-29.59z"/>
   <path class="fil18 str0" d="M229.77 3087.54l-10.93 -18.78 -8.08 0 0 18.78 -10.67 0 0 -54.1 21.64 0c5,0 9.25,1.75 12.76,5.26 3.5,3.5 5.25,7.72 5.25,12.67 0,3.35 -0.95,6.45 -2.86,9.31 -1.9,2.86 -4.43,5.01 -7.57,6.46l11.98 20.4 -11.52 0zm-19.01 -44.13l0 16 10.97 0c2.01,0 3.74,-0.79 5.18,-2.36 1.44,-1.57 2.17,-3.46 2.17,-5.68 0,-2.21 -0.73,-4.09 -2.17,-5.64 -1.44,-1.55 -3.17,-2.32 -5.18,-2.32l-10.97 0zm72.35 44.13l-3.44 -9.74 -22.23 0 -3.25 9.74 -11.51 0 18.93 -54.1 13.22 0 19.09 54.1 -10.81 0zm-22.19 -19.71l15.22 0 -7.8 -22.1 -7.42 22.1zm91.2 -34.39l0 54.1 -10.59 0 0 -35.09 -15.25 25.1 -1.25 0.05 -15.19 -25.02 0 34.96 -10.66 0 0 -54.1 10.97 0 15.51 25.54 15.44 -25.54 11.02 0zm10.04 0l10.67 0 0 54.1 -10.67 0 0 -54.1zm38.34 55.18c-5.36,0 -9.87,-1.19 -13.53,-3.59 -3.66,-2.4 -6.23,-5.66 -7.73,-9.78l9.12 -5.33c2.12,5.51 6.26,8.27 12.45,8.27 2.98,0 5.18,-0.54 6.57,-1.62 1.39,-1.09 2.08,-2.45 2.08,-4.1 0,-1.91 -0.85,-3.39 -2.55,-4.44 -1.7,-1.06 -4.74,-2.21 -9.12,-3.44 -2.42,-0.72 -4.47,-1.45 -6.14,-2.17 -1.68,-0.72 -3.35,-1.68 -5.03,-2.89 -1.67,-1.22 -2.95,-2.75 -3.82,-4.6 -0.88,-1.86 -1.31,-4.02 -1.31,-6.5 0,-4.89 1.73,-8.79 5.21,-11.7 3.48,-2.92 7.67,-4.37 12.56,-4.37 4.38,0 8.23,1.07 11.56,3.21 3.32,2.13 5.91,5.11 7.76,8.92l-8.96 5.18c-2.17,-4.64 -5.62,-6.96 -10.36,-6.96 -2.21,0 -3.95,0.51 -5.22,1.51 -1.26,1.01 -1.89,2.31 -1.89,3.91 0,1.69 0.71,3.07 2.13,4.13 1.41,1.06 4.13,2.2 8.15,3.44 1.65,0.51 2.9,0.91 3.75,1.2 0.85,0.28 2.01,0.72 3.48,1.31 1.46,0.59 2.6,1.15 3.4,1.66 0.8,0.52 1.71,1.21 2.74,2.09 1.03,0.88 1.82,1.78 2.36,2.7 0.54,0.93 1,2.05 1.39,3.37 0.38,1.31 0.58,2.74 0.58,4.29 0,4.99 -1.82,8.96 -5.45,11.9 -3.63,2.93 -8.36,4.4 -14.18,4.4zm64.38 0c-5.36,0 -9.87,-1.19 -13.53,-3.59 -3.66,-2.4 -6.23,-5.66 -7.73,-9.78l9.12 -5.33c2.12,5.51 6.26,8.27 12.45,8.27 2.98,0 5.18,-0.54 6.57,-1.62 1.39,-1.09 2.08,-2.45 2.08,-4.1 0,-1.91 -0.85,-3.39 -2.55,-4.44 -1.7,-1.06 -4.74,-2.21 -9.12,-3.44 -2.42,-0.72 -4.47,-1.45 -6.14,-2.17 -1.68,-0.72 -3.35,-1.68 -5.03,-2.89 -1.67,-1.22 -2.95,-2.75 -3.82,-4.6 -0.88,-1.86 -1.31,-4.02 -1.31,-6.5 0,-4.89 1.73,-8.79 5.21,-11.7 3.48,-2.92 7.67,-4.37 12.56,-4.37 4.38,0 8.23,1.07 11.56,3.21 3.32,2.13 5.91,5.11 7.76,8.92l-8.96 5.18c-2.17,-4.64 -5.62,-6.96 -10.36,-6.96 -2.21,0 -3.95,0.51 -5.22,1.51 -1.26,1.01 -1.89,2.31 -1.89,3.91 0,1.69 0.71,3.07 2.13,4.13 1.41,1.06 4.13,2.2 8.15,3.44 1.65,0.51 2.9,0.91 3.75,1.2 0.85,0.28 2.01,0.72 3.48,1.31 1.46,0.59 2.6,1.15 3.4,1.66 0.79,0.52 1.71,1.21 2.74,2.09 1.03,0.88 1.82,1.78 2.36,2.7 0.54,0.93 1,2.05 1.39,3.37 0.38,1.31 0.58,2.74 0.58,4.29 0,4.99 -1.82,8.96 -5.45,11.9 -3.63,2.93 -8.36,4.4 -14.18,4.4zm61.3 -1.08l-3.44 -9.74 -22.23 0 -3.25 9.74 -11.52 0 18.94 -54.1 13.22 0 19.08 54.1 -10.8 0zm-22.2 -19.71l15.23 0 -7.81 -22.1 -7.42 22.1zm69.02 -34.39l10.59 0 0 54.1 -10.59 0 0 -22.41 -20.09 0 0 22.41 -10.67 0 0 -54.1 10.67 0 0 21.49 20.09 0 0 -21.49zm20.64 0l10.66 0 0 54.1 -10.66 0 0 -54.1zm53.4 26.05c4.74,2.73 7.11,6.85 7.11,12.36 0,4.59 -1.62,8.35 -4.87,11.29 -3.24,2.93 -7.24,4.4 -11.98,4.4l-22.95 0 0 -54.1 21.33 0c4.64,0 8.54,1.43 11.71,4.29 3.17,2.86 4.75,6.51 4.75,10.94 0,4.48 -1.7,8.08 -5.1,10.82zm-11.36 -16.08l-10.67 0 0 11.9 10.67 0c1.65,0 3.03,-0.56 4.14,-1.7 1.1,-1.13 1.66,-2.55 1.66,-4.25 0,-1.7 -0.54,-3.12 -1.63,-4.25 -1.08,-1.13 -2.47,-1.7 -4.17,-1.7zm1.62 34.16c1.81,0 3.3,-0.6 4.49,-1.81 1.18,-1.22 1.77,-2.75 1.77,-4.6 0,-1.81 -0.59,-3.31 -1.77,-4.53 -1.19,-1.21 -2.68,-1.81 -4.49,-1.81l-12.29 0 0 12.75 12.29 0zm69.33 2.9c-5.46,5.44 -12.11,8.15 -19.94,8.15 -7.83,0 -14.47,-2.71 -19.9,-8.15 -5.44,-5.44 -8.16,-12.1 -8.16,-19.98 0,-7.88 2.72,-14.54 8.16,-19.98 5.43,-5.43 12.07,-8.15 19.9,-8.15 7.83,0 14.48,2.72 19.94,8.15 5.46,5.44 8.19,12.1 8.19,19.98 0,7.88 -2.73,14.54 -8.19,19.98zm-32.38 -7.27c3.35,3.33 7.49,4.99 12.44,4.99 4.95,0 9.09,-1.66 12.44,-4.99 3.35,-3.32 5.03,-7.56 5.03,-12.71 0,-5.15 -1.68,-9.4 -5.03,-12.75 -3.35,-3.35 -7.49,-5.03 -12.44,-5.03 -4.95,0 -9.09,1.68 -12.44,5.03 -3.35,3.35 -5.03,7.6 -5.03,12.75 0,5.15 1.68,9.39 5.03,12.71zm59.04 14.34l-18.16 -54.1 11.59 0 13.23 41.59 13.13 -41.59 11.67 0 -18.24 54.1 -13.22 0z"/>
   <path class="fil18 str0" d="M232.54 3122.12c2.95,2.35 4.42,5.51 4.42,9.49 0,3.97 -1.47,7.14 -4.42,9.48 -2.95,2.35 -6.89,3.69 -11.81,4.01l0 3.87 -4.45 0 0 -3.87c-4.89,-0.32 -8.81,-1.66 -11.76,-4.01 -2.95,-2.34 -4.43,-5.51 -4.43,-9.48 0,-3.98 1.48,-7.14 4.43,-9.49 2.95,-2.34 6.87,-3.68 11.76,-4.01l0 -3.86 4.45 0 0 3.86c4.92,0.33 8.86,1.67 11.81,4.01zm-11.81 18.83c3.68,-0.26 6.55,-1.17 8.6,-2.72 2.06,-1.54 3.08,-3.75 3.08,-6.62 0,-2.87 -1.02,-5.08 -3.08,-6.63 -2.05,-1.55 -4.92,-2.45 -8.6,-2.71l0 18.68zm-16.14 -9.34c0,2.83 1.03,5.03 3.08,6.57 2.06,1.55 4.93,2.46 8.61,2.72l0 -18.63c-3.68,0.26 -6.55,1.16 -8.61,2.71 -2.05,1.55 -3.08,3.76 -3.08,6.63zm70.85 17.11l0 -25.62 -17.69 25.62 -3.58 0 0 -34.23 4.55 0 0 25.58 17.6 -25.58 3.67 0 0 34.23 -4.55 0zm46.01 -34.23l0 4.31 -10.12 0 0 29.92 -4.5 0 0 -29.92 -10.07 0 0 -4.31 24.69 0zm37.9 0l4.5 0 0 34.23 -4.5 0 0 -15.4 -16.63 0 0 15.4 -4.54 0 0 -34.23 4.54 0 0 14.53 16.63 0 0 -14.53zm28.6 29.93l15.89 0 0 4.3 -20.43 0 0 -34.23 20.19 0 0 4.31 -15.65 0 0 10.51 14.43 0 0 4.25 -14.43 0 0 10.86zm49.44 4.94c-5.19,0 -9.46,-1.71 -12.84,-5.14 -3.37,-3.42 -5.06,-7.62 -5.06,-12.61 0,-4.99 1.69,-9.19 5.06,-12.62 3.38,-3.42 7.65,-5.13 12.84,-5.13 3.13,0 6,0.75 8.63,2.25 2.62,1.5 4.67,3.52 6.13,6.06l-3.96 2.3c-0.98,-1.89 -2.43,-3.4 -4.37,-4.52 -1.94,-1.13 -4.09,-1.69 -6.43,-1.69 -3.95,0 -7.17,1.27 -9.66,3.81 -2.49,2.55 -3.74,5.72 -3.74,9.54 0,3.78 1.25,6.94 3.74,9.48 2.49,2.55 5.71,3.82 9.66,3.82 2.34,0 4.49,-0.57 6.43,-1.69 1.94,-1.12 3.39,-2.62 4.37,-4.47l3.96 2.25c-1.43,2.54 -3.47,4.57 -6.11,6.08 -2.64,1.52 -5.52,2.28 -8.65,2.28zm65.23 -25.09l0 24.45 -4.26 0 0 -20.39 -12.66 0 0 20.39 -4.26 0 0 -24.45 21.18 0zm39.31 21.37c-2.51,2.48 -5.56,3.72 -9.15,3.72 -3.58,0 -6.62,-1.24 -9.12,-3.72 -2.49,-2.48 -3.74,-5.52 -3.74,-9.14 0,-3.62 1.25,-6.67 3.74,-9.15 2.5,-2.47 5.54,-3.71 9.12,-3.71 3.59,0 6.64,1.24 9.15,3.71 2.51,2.48 3.76,5.53 3.76,9.15 0,3.62 -1.25,6.66 -3.76,9.14zm-9.15 -0.44c2.45,0 4.5,-0.83 6.17,-2.49 1.66,-1.66 2.49,-3.74 2.49,-6.21 0,-2.48 -0.83,-4.55 -2.49,-6.21 -1.67,-1.66 -3.72,-2.5 -6.17,-2.5 -2.41,0 -4.45,0.84 -6.11,2.5 -1.66,1.66 -2.49,3.73 -2.49,6.21 0,2.47 0.83,4.55 2.49,6.21 1.66,1.66 3.7,2.49 6.11,2.49zm64.01 -30.71l4.5 0 0 34.23 -4.5 0 0 -15.4 -16.63 0 0 15.4 -4.54 0 0 -34.23 4.54 0 0 14.53 16.63 0 0 -14.53zm46.6 34.23l-2.8 -7.67 -15.38 0 -2.8 7.67 -4.84 0 12.76 -34.23 5.14 0 12.76 34.23 -4.84 0zm-16.64 -11.93l12.29 0 -6.14 -16.89 -6.15 16.89zm55.41 -22.3l4.6 0 -11 26.11c-1.24,2.94 -2.82,5.07 -4.75,6.39 -1.92,1.32 -4.27,1.89 -7.04,1.73l0 -4.2c1.89,0.19 3.42,-0.09 4.59,-0.84 1.17,-0.74 2.15,-2.03 2.93,-3.87l0.34 -0.8 -11.57 -24.52 4.59 0 9.07 19.55 8.24 -19.55zm45.87 34.23l-5.58 0 -14.76 -16.44 0 16.44 -4.55 0 0 -34.23 4.55 0 0 15.5 14.27 -15.5 5.58 0 -15.11 16.63 15.6 17.6zm20.83 -4.3l15.89 0 0 4.3 -20.44 0 0 -34.23 20.19 0 0 4.31 -15.64 0 0 10.51 14.42 0 0 4.25 -14.42 0 0 10.86z"/>
  </g>
 </g>
</svg>
