<?xml version="1.0" encoding="UTF-8"?>
<!DOCTYPE svg PUBLIC "-//W3C//DTD SVG 1.1//EN" "http://www.w3.org/Graphics/SVG/1.1/DTD/svg11.dtd">
<!-- Creator: CorelDRAW 2020 (64-Bit) -->
<svg xmlns="http://www.w3.org/2000/svg" xml:space="preserve" width="2480px" height="3508px" version="1.1" style="shape-rendering:geometricPrecision; text-rendering:geometricPrecision; image-rendering:optimizeQuality; fill-rule:evenodd; clip-rule:evenodd"
viewBox="0 0 2480 3507.43"
 xmlns:xlink="http://www.w3.org/1999/xlink"
 xmlns:xodm="http://www.corel.com/coreldraw/odm/2003">
 <defs>
  <style type="text/css">
   <![CDATA[
    .fil10 {fill:black}
    .fil8 {fill:#009933}
    .fil6 {fill:#023047}
    .fil3 {fill:#3A3285}
    .fil4 {fill:#999999}
    .fil0 {fill:white}
    .fil1 {fill:url(#id0)}
    .fil2 {fill:url(#id1)}
    .fil7 {fill:url(#id2)}
    .fil9 {fill:url(#id3)}
    .fil5 {fill:url(#id4)}
    .fil11 {fill:url(#id5)}
   ]]>
  </style>
  <linearGradient id="id0" gradientUnits="objectBoundingBox" x1="0%" y1="50%" x2="100%" y2="50%">
   <stop offset="0" style="stop-opacity:1; stop-color:#1C265A"/>
   <stop offset="1" style="stop-opacity:1; stop-color:#3CBCDD"/>
  </linearGradient>
  <linearGradient id="id1" gradientUnits="objectBoundingBox" xlink:href="#id0" x1="0%" y1="50%" x2="100%" y2="50%">
  </linearGradient>
  <radialGradient id="id2" gradientUnits="userSpaceOnUse" gradientTransform="matrix(1.51518 -0 -0 1.51518 -261 -856)" cx="505.94" cy="1661.95" r="19.53" fx="505.94" fy="1661.95">
   <stop offset="0" style="stop-opacity:1; stop-color:#99FF00"/>
   <stop offset="1" style="stop-opacity:1; stop-color:#006633"/>
  </radialGradient>
  <radialGradient id="id3" gradientUnits="objectBoundingBox" cx="25%" cy="31.9998%" r="32.9994%" fx="25%" fy="31.9998%">
   <stop offset="0" style="stop-opacity:1; stop-color:#FFFF66"/>
   <stop offset="1" style="stop-opacity:1; stop-color:#FFCC00"/>
  </radialGradient>
  <radialGradient id="id4" gradientUnits="objectBoundingBox" cx="31.0001%" cy="33.9991%" r="36.0005%" fx="31.0001%" fy="33.9991%">
   <stop offset="0" style="stop-opacity:1; stop-color:#3CBCDD"/>
   <stop offset="1" style="stop-opacity:1; stop-color:#1C265A"/>
  </radialGradient>
  <radialGradient id="id5" gradientUnits="objectBoundingBox" xlink:href="#id3" cx="25%" cy="31.9993%" r="33.0003%" fx="25%" fy="31.9993%">
  </radialGradient>
 </defs>
 <g id="Слой_x0020_1">
  <metadata id="CorelCorpID_0Corel-Layer"/>
  <path class="fil0" d="M603.47 133.36c273.35,0 494.94,221.59 494.94,494.94 0,273.35 -221.59,494.94 -494.94,494.94 -273.34,0 -494.93,-221.59 -494.93,-494.94 0,-273.35 221.59,-494.94 494.93,-494.94z"/>
  <path class="fil1" d="M603.47 112.53c142.43,0 271.37,57.73 364.71,151.07 93.33,93.33 151.06,222.28 151.06,364.7 0,142.42 -57.73,271.36 -151.06,364.7 -93.34,93.34 -222.28,151.07 -364.71,151.07 -142.42,0 -271.36,-57.73 -364.7,-151.07 -93.33,-93.34 -151.06,-222.28 -151.06,-364.7 0,-142.42 57.73,-271.37 151.06,-364.7 93.34,-93.34 222.28,-151.07 364.7,-151.07zm335.25 180.52c-85.79,-85.79 -204.32,-138.86 -335.25,-138.86 -130.92,0 -249.45,53.07 -335.24,138.86 -85.8,85.8 -138.86,204.33 -138.86,335.25 0,130.92 53.06,249.45 138.86,335.25 85.79,85.79 204.32,138.86 335.24,138.86 130.93,0 249.46,-53.07 335.25,-138.86 85.79,-85.8 138.86,-204.33 138.86,-335.25 0,-130.92 -53.07,-249.45 -138.86,-335.25z"/>
  <g id="_1595947000576">
   <path class="fil2" d="M673.2 331.31l-348.71 0c-10.17,0 -15.25,5.09 -15.25,15.26l0 510.4c5.18,-15.53 19.33,-26.96 36.29,-28.16l1.48 -18.33c-8.11,-12.68 -14.65,-26.57 -19.51,-41.72l-2.9 -9.06 27.79 -16.09 12.13 -150.63c-9.29,-19.71 -14.53,-42.36 -14.53,-68.4 0,-34.84 8.99,-65.96 27.29,-92.86 -18.17,-4.38 -31.68,-20.74 -31.68,-40.25 0,-22.86 18.54,-41.4 41.41,-41.4 20.04,0 36.77,14.25 40.58,33.18 34.23,-21.78 74.07,-30.39 115.72,-30.39 43.02,0 83.9,9.86 120.93,31.92 36.75,21.89 62.93,53.31 79.41,92.75l3.98 9.53 -7.45 4.35 28.86 8.7c6.36,-13.04 19.74,-22.03 35.23,-22.03 21.62,0 39.16,17.54 39.16,39.17 0,19.5 -14.26,35.68 -32.92,38.67l0 159.86c22.83,-15.94 41.72,-36.2 56.68,-60.78 20.35,-33.42 30.52,-70.48 30.52,-111.16 0,-59.58 -21.25,-109.9 -63.76,-150.95 -42.5,-41.05 -96.09,-61.58 -160.75,-61.58zm-363.96 551.86l0 26.86c0,10.17 5.44,15.26 16.34,15.26l144.9 0c9.44,0 289.58,0 321.51,0l79.56 0c5.82,0 9.99,-1.64 12.54,-4.91 2.54,-3.27 2.36,-7.44 -0.55,-12.53l-73.03 -130.01 0 40.87c18.66,3 32.92,19.17 32.92,38.67 0,21.63 -17.54,39.17 -39.16,39.17 -19.14,0 -35.07,-13.73 -38.49,-31.86l-76.22 2.12c-41.03,27.91 -91.3,36.93 -140.49,36.93 -45.54,0 -91.41,-7.68 -131.65,-29.36l-27.89 0.78c-2.51,20.44 -19.94,36.27 -41.05,36.27 -18.26,0 -33.76,-11.84 -39.24,-28.26zm488.78 -127.58l-13.65 -24.3c4.68,-2.34 9.23,-4.82 13.65,-7.45l0 -167.92c-7.76,-1.25 -14.75,-4.77 -20.28,-9.86l-78.88 62.06c1.07,0.74 2.14,1.48 3.21,2.22 18.44,12.91 32.48,29.68 41.79,50.17 9.98,21.95 13.66,46.1 13.66,70.07 0,23.21 -3.44,45.11 -10.97,65.13l33.51 30.88c5.11,-4.02 11.25,-6.8 17.96,-7.88l0 -63.12zm-336.35 -75.24c-4.35,-1.99 -8.61,-4.06 -12.8,-6.22l-8.98 18.83 21.78 -12.61zm-23.78 -12.21c-25.25,-14.57 -46.9,-32.88 -62.4,-55.88l-9.96 123.74 55.24 -31.98 17.12 -35.88zm287.57 -168.13l-14.17 8.29 46.14 1.35 -31.97 -9.64zm-34.48 20.15l-79.88 46.68c13.71,4.43 27.31,9.35 40.52,14.92 12.56,5.3 24.65,11.85 36.24,19.13l82.16 -64.63c-2.35,-4.22 -3.94,-8.92 -4.59,-13.92l-74.45 -2.18zm50.36 287.72c-8.21,17.04 -19.75,32.5 -35.07,46l59.17 -1.65c0.79,-6.03 2.95,-11.62 6.16,-16.47l-30.26 -27.88zm-343.4 54.58c-3.9,-2.68 -7.66,-5.47 -11.3,-8.36 1.14,2.73 2.01,5.61 2.54,8.61l8.76 -0.25zm-36.96 -33.09c-0.91,-1.08 -1.81,-2.16 -2.7,-3.26l-0.3 3.7c0.84,0.2 1.66,0.42 2.48,0.67l0.52 -1.11zm109.91 -144.99l2.02 5.14c8.82,22.42 21.55,38.5 39.18,47.66l36.76 -28.1c-3.84,-1.06 -7.69,-2.09 -11.49,-3.11 -9.5,-2.56 -19.01,-5.18 -28.43,-8.02 -13.03,-3.93 -25.78,-8.43 -38.04,-13.57zm54.69 58.18c8.16,2.37 17.17,3.58 27.1,3.58 8.12,0 31.55,-0.77 36.19,-9.53 0.74,-1.41 0.98,-3.02 0.98,-4.59 0,-2.43 -0.52,-4.64 -1.81,-6.7 -1.41,-2.25 -6.01,-4.5 -8.32,-5.49 -5.3,-2.27 -10.69,-4.46 -16.15,-6.3l-37.99 29.03zm80.08 -177.44l-3.48 -8.86c-6.97,-17.8 -16.74,-31.97 -31.25,-39.61l-9.45 -0.27c-1.95,10.73 -8.04,20.03 -16.55,26.17l2.28 4.46c1.4,0.48 2.79,0.96 4.16,1.42 13.16,4.48 26.55,8.47 39.9,12.35 4.8,1.39 9.6,2.84 14.39,4.34z"/>
   <path class="fil3" d="M549.07 891.93c-40,0 -75.14,-6.1 -105.4,-18.28l221.72 -6.17c-31.46,16.3 -70.23,24.45 -116.32,24.45zm-129.87 -30.06c-2.36,-1.34 -4.69,-2.73 -6.98,-4.16 -6.87,-4.29 -13.32,-8.87 -19.33,-13.73l121.42 -92.81c11.37,4.52 24.16,6.78 38.37,6.78 32.65,0 48.98,-8.64 48.98,-25.93 0,-4.8 -1.2,-9.12 -3.61,-12.96 -1.4,-2.26 -3.56,-4.35 -6.46,-6.27 4.25,1.48 8.82,2.29 13.57,2.29 9.73,0 18.66,-3.37 25.71,-9.01l101.36 93.41c-8.83,19.62 -21.98,36.4 -39.46,50.31 -2,1.59 -4.04,3.14 -6.12,4.64l-267.45 7.44zm162.86 -153.88c-2.58,-1.08 -5.04,-2.07 -7.36,-2.97l1.9 -1.45c1.69,1.62 3.52,3.1 5.46,4.42zm-198.79 127.64c-2.68,-2.51 -5.27,-5.09 -7.76,-7.73l55.38 -116.09 31.03 -17.96c9.25,23.51 22.57,40.56 39.96,51.13l-118.61 90.65zm-16.68 -18.02c-2.41,-3.03 -4.7,-6.14 -6.88,-9.32l4.67 -57.97 47.4 -27.45 -45.19 94.74zm-17.9 -28.03c-3.89,-7.76 -7.2,-15.9 -9.94,-24.42l12.49 -7.24 -2.55 31.66zm211.81 -89.39c-5.02,-1.5 -11.71,-3.37 -20.07,-5.62 -12.49,-3.36 -21.85,-6.01 -28.09,-7.93 -21.85,-6.58 -41.32,-14.29 -58.41,-23.13l54.82 -114.92c3.8,1.15 7.82,1.77 11.99,1.77 1,0 1.98,-0.04 2.96,-0.11 3.72,1.84 8.48,3.84 14.26,6.02l43.11 84.22c-10.35,7.48 -17.09,19.66 -17.09,33.41 0,7.16 1.83,13.9 5.05,19.77l-8.53 6.52zm-117.53 -42.7c-30.59,-17.8 -52.53,-39.7 -65.83,-65.69l12.67 -157.37c0.43,-0.59 0.86,-1.18 1.3,-1.76 8.54,-0.84 16.32,-4.28 22.53,-9.51l72.24 63.46c-4.14,6.44 -6.54,14.11 -6.54,22.33 0,14.24 7.19,26.81 18.14,34.26l-54.51 114.28zm-76.17 -92.79c-3.33,-12.59 -5,-25.96 -5,-40.12 0,-23.93 4.5,-45.73 13.49,-65.39l-8.49 105.51zm57.6 -155.44l285.62 86.1 -21.03 12.29 -116.58 -3.41c-3.54,-1.55 -7.25,-2.78 -11.12,-3.69 -3.89,-18.83 -20.57,-33 -40.55,-33 -10.14,0 -19.44,3.65 -26.64,9.71l-72.23 -63.45c0.93,-1.46 1.78,-2.98 2.53,-4.55zm3.62 -12.1c30.95,-21.66 69.38,-32.49 115.29,-32.49 42.74,0 81.03,10.09 114.89,30.25 33.85,20.17 58.7,49.22 74.55,87.16l-8.01 4.68 -296.75 -89.45 0.03 -0.15zm240.67 122.35l-55.51 32.44c-5.7,-14.54 -12.92,-26.11 -21.68,-34.7l77.19 2.26zm-113.73 42.66c9.4,3.06 20.4,6.37 33.01,9.95 24.01,7.2 43.7,14.04 59.06,20.53 10.01,4.22 20.32,9.56 30.94,16.02l-44.68 35.15c-7.36,-6.89 -17.25,-11.11 -28.13,-11.11 -4.55,0 -8.92,0.74 -13.01,2.1l-37.19 -72.64zm134.15 53.62c2.05,1.37 4.11,2.78 6.18,4.23 16.81,11.76 29.42,26.89 37.82,45.37 8.4,18.49 12.6,40.22 12.6,65.19 0,20.71 -2.86,39.52 -8.59,56.44l-97.79 -90.12c4.43,-6.57 7.02,-14.48 7.02,-23 0,-7.37 -1.94,-14.29 -5.33,-20.27l48.09 -37.84z"/>
   <path class="fil4" d="M520.74 479.36c16.34,0 29.59,13.25 29.59,29.59 0,16.35 -13.25,29.6 -29.59,29.6 -16.34,0 -29.59,-13.25 -29.59,-29.6 0,-16.34 13.25,-29.59 29.59,-29.59z"/>
   <path class="fil4" d="M605.16 644.52c16.23,0 29.38,13.15 29.38,29.38 0,16.22 -13.15,29.37 -29.38,29.37 -16.22,0 -29.37,-13.15 -29.37,-29.37 0,-16.23 13.15,-29.38 29.37,-29.38z"/>
   <path class="fil4" d="M348.48 840.52c16.32,0 29.55,13.23 29.55,29.55 0,16.32 -13.23,29.55 -29.55,29.55 -16.32,0 -29.56,-13.23 -29.56,-29.55 0,-16.32 13.24,-29.55 29.56,-29.55z"/>
   <path class="fil4" d="M804.27 489.89c15.1,0 27.35,12.25 27.35,27.36 0,15.11 -12.25,27.36 -27.35,27.36 -15.11,0 -27.36,-12.25 -27.36,-27.36 0,-15.11 12.25,-27.36 27.36,-27.36z"/>
   <path class="fil4" d="M804.27 830.03c15.1,0 27.35,12.24 27.35,27.35 0,15.11 -12.25,27.36 -27.35,27.36 -15.11,0 -27.36,-12.25 -27.36,-27.36 0,-15.11 12.25,-27.35 27.36,-27.35z"/>
   <path class="fil4" d="M387.01 361.88c16.34,0 29.59,13.25 29.59,29.59 0,16.34 -13.25,29.59 -29.59,29.59 -16.35,0 -29.6,-13.25 -29.6,-29.59 0,-16.34 13.25,-29.59 29.6,-29.59z"/>
   <path class="fil5" d="M520.74 479.36c16.34,0 29.59,13.25 29.59,29.59 0,16.35 -13.25,29.6 -29.59,29.6 -16.34,0 -29.59,-13.25 -29.59,-29.6 0,-16.34 13.25,-29.59 29.59,-29.59z"/>
   <path class="fil5" d="M605.16 644.52c16.23,0 29.38,13.15 29.38,29.38 0,16.22 -13.15,29.37 -29.38,29.37 -16.22,0 -29.37,-13.15 -29.37,-29.37 0,-16.23 13.15,-29.38 29.37,-29.38z"/>
   <path class="fil5" d="M348.48 840.52c16.32,0 29.55,13.23 29.55,29.55 0,16.32 -13.23,29.55 -29.55,29.55 -16.32,0 -29.56,-13.23 -29.56,-29.55 0,-16.32 13.24,-29.55 29.56,-29.55z"/>
   <path class="fil5" d="M804.27 489.89c15.1,0 27.35,12.25 27.35,27.36 0,15.11 -12.25,27.36 -27.35,27.36 -15.11,0 -27.36,-12.25 -27.36,-27.36 0,-15.11 12.25,-27.36 27.36,-27.36z"/>
   <path class="fil5" d="M804.27 830.03c15.1,0 27.35,12.24 27.35,27.35 0,15.11 -12.25,27.36 -27.35,27.36 -15.11,0 -27.36,-12.25 -27.36,-27.36 0,-15.11 12.25,-27.35 27.36,-27.35z"/>
   <path class="fil5" d="M387.01 361.88c16.34,0 29.59,13.25 29.59,29.59 0,16.34 -13.25,29.59 -29.59,29.59 -16.35,0 -29.6,-13.25 -29.6,-29.59 0,-16.34 13.25,-29.59 29.6,-29.59z"/>
  </g>
  <path class="fil0" d="M603.47 1297.02c273.35,0 494.94,221.59 494.94,494.93 0,273.35 -221.59,494.94 -494.94,494.94 -273.34,0 -494.93,-221.59 -494.93,-494.94 0,-273.34 221.59,-494.93 494.93,-494.93z"/>
  <path class="fil6" d="M603.47 1276.18c142.43,0 271.37,57.74 364.71,151.07 93.33,93.34 151.06,222.28 151.06,364.7 0,142.42 -57.73,271.37 -151.06,364.7 -93.34,93.34 -222.28,151.07 -364.71,151.07 -142.42,0 -271.36,-57.73 -364.7,-151.07 -93.33,-93.33 -151.06,-222.28 -151.06,-364.7 0,-142.42 57.73,-271.36 151.06,-364.7 93.34,-93.33 222.28,-151.07 364.7,-151.07zm335.25 180.53c-85.79,-85.8 -204.32,-138.86 -335.25,-138.86 -130.92,0 -249.45,53.06 -335.24,138.86 -85.8,85.79 -138.86,204.32 -138.86,335.24 0,130.93 53.06,249.45 138.86,335.25 85.79,85.79 204.32,138.86 335.24,138.86 130.93,0 249.46,-53.07 335.25,-138.86 85.79,-85.8 138.86,-204.32 138.86,-335.25 0,-130.92 -53.07,-249.45 -138.86,-335.24z"/>
  <g id="_1595946998464">
   <path class="fil4" d="M673.2 1494.96l-348.71 0c-10.17,0 -15.25,5.09 -15.25,15.26l0 510.4c5.18,-15.53 19.33,-26.96 36.29,-28.15l1.48 -18.33c-8.11,-12.69 -14.65,-26.58 -19.51,-41.72l-2.9 -9.06 27.79 -16.1 12.13 -150.63c-9.29,-19.7 -14.53,-42.35 -14.53,-68.4 0,-34.83 8.99,-65.95 27.29,-92.86 -18.17,-4.38 -31.68,-20.74 -31.68,-40.25 0,-22.86 18.54,-41.4 41.41,-41.4 20.04,0 36.77,14.26 40.58,33.18 34.23,-21.78 74.07,-30.38 115.72,-30.38 43.02,0 83.9,9.85 120.93,31.91 36.75,21.89 62.93,53.31 79.41,92.75l3.98 9.54 -7.45 4.35 28.86 8.7c6.36,-13.05 19.74,-22.03 35.23,-22.03 21.62,0 39.16,17.54 39.16,39.16 0,19.5 -14.26,35.68 -32.92,38.67l0 159.86c22.83,-15.94 41.72,-36.19 56.68,-60.78 20.35,-33.42 30.52,-70.47 30.52,-111.16 0,-59.58 -21.25,-109.9 -63.76,-150.95 -42.5,-41.05 -96.09,-61.58 -160.75,-61.58zm-363.96 551.86l0 26.86c0,10.17 5.44,15.26 16.34,15.26l144.9 0c9.44,0 289.58,0 321.51,0l79.56 0c5.82,0 9.99,-1.63 12.54,-4.9 2.54,-3.27 2.36,-7.45 -0.55,-12.54l-73.03 -130 0 40.87c18.66,2.99 32.92,19.17 32.92,38.67 0,21.62 -17.54,39.16 -39.16,39.16 -19.14,0 -35.07,-13.72 -38.49,-31.86l-76.22 2.12c-41.03,27.91 -91.3,36.93 -140.49,36.93 -45.54,0 -91.41,-7.68 -131.65,-29.36l-27.89 0.78c-2.51,20.44 -19.94,36.28 -41.05,36.28 -18.26,0 -33.76,-11.85 -39.24,-28.27zm488.78 -127.58l-13.65 -24.3c4.68,-2.34 9.23,-4.82 13.65,-7.45l0 -167.92c-7.76,-1.24 -14.75,-4.77 -20.28,-9.86l-78.88 62.06c1.07,0.74 2.14,1.48 3.21,2.22 18.44,12.91 32.48,29.68 41.79,50.17 9.98,21.95 13.66,46.1 13.66,70.07 0,23.22 -3.44,45.12 -10.97,65.13l33.51 30.89c5.11,-4.03 11.25,-6.81 17.96,-7.88l0 -63.13zm-336.35 -75.24c-4.35,-1.98 -8.61,-4.06 -12.8,-6.22l-8.98 18.83 21.78 -12.61zm-23.78 -12.21c-25.25,-14.57 -46.9,-32.87 -62.4,-55.88l-9.96 123.75 55.24 -31.99 17.12 -35.88zm287.57 -168.12l-14.17 8.28 46.14 1.35 -31.97 -9.63zm-34.48 20.15l-79.88 46.68c13.71,4.43 27.31,9.34 40.52,14.92 12.56,5.29 24.65,11.84 36.24,19.13l82.16 -64.64c-2.35,-4.22 -3.94,-8.92 -4.59,-13.91l-74.45 -2.18zm50.36 287.71c-8.21,17.04 -19.75,32.51 -35.07,46l59.17 -1.64c0.79,-6.03 2.95,-11.63 6.16,-16.47l-30.26 -27.89zm-343.4 54.59c-3.9,-2.68 -7.66,-5.47 -11.3,-8.37 1.14,2.74 2.01,5.62 2.54,8.61l8.76 -0.24zm-36.96 -33.1c-0.91,-1.07 -1.81,-2.16 -2.7,-3.26l-0.3 3.7c0.84,0.2 1.66,0.42 2.48,0.67l0.52 -1.11zm109.91 -144.99l2.02 5.15c8.82,22.42 21.55,38.49 39.18,47.65l36.76 -28.09c-3.84,-1.07 -7.69,-2.1 -11.49,-3.12 -9.5,-2.55 -19.01,-5.17 -28.43,-8.02 -13.03,-3.93 -25.78,-8.42 -38.04,-13.57zm54.69 58.18c8.16,2.38 17.17,3.59 27.1,3.59 8.12,0 31.55,-0.77 36.19,-9.54 0.74,-1.41 0.98,-3.01 0.98,-4.59 0,-2.43 -0.52,-4.63 -1.81,-6.7 -1.41,-2.25 -6.01,-4.5 -8.32,-5.49 -5.3,-2.27 -10.69,-4.45 -16.15,-6.3l-37.99 29.03zm80.08 -177.44l-3.48 -8.86c-6.97,-17.8 -16.74,-31.97 -31.25,-39.6l-9.45 -0.28c-1.95,10.74 -8.04,20.03 -16.55,26.18l2.28 4.45c1.4,0.49 2.79,0.96 4.16,1.43 13.16,4.47 26.55,8.46 39.9,12.34 4.8,1.39 9.6,2.84 14.39,4.34z"/>
   <path class="fil6" d="M549.07 2055.58c-40,0 -75.14,-6.09 -105.4,-18.28l221.72 -6.17c-31.46,16.3 -70.23,24.45 -116.32,24.45zm-129.87 -30.06c-2.36,-1.34 -4.69,-2.72 -6.98,-4.15 -6.87,-4.3 -13.32,-8.88 -19.33,-13.74l121.42 -92.81c11.37,4.52 24.16,6.79 38.37,6.79 32.65,0 48.98,-8.65 48.98,-25.94 0,-4.8 -1.2,-9.12 -3.61,-12.96 -1.4,-2.25 -3.56,-4.35 -6.46,-6.27 4.25,1.48 8.82,2.29 13.57,2.29 9.73,0 18.66,-3.37 25.71,-9.01l101.36 93.41c-8.83,19.63 -21.98,36.4 -39.46,50.31 -2,1.59 -4.04,3.14 -6.12,4.64l-267.45 7.44zm162.86 -153.87c-2.58,-1.09 -5.04,-2.08 -7.36,-2.98l1.9 -1.45c1.69,1.62 3.52,3.11 5.46,4.43zm-198.79 127.63c-2.68,-2.51 -5.27,-5.08 -7.76,-7.73l55.38 -116.09 31.03 -17.96c9.25,23.52 22.57,40.56 39.96,51.14l-118.61 90.64zm-16.68 -18.02c-2.41,-3.03 -4.7,-6.13 -6.88,-9.32l4.67 -57.97 47.4 -27.44 -45.19 94.73zm-17.9 -28.03c-3.89,-7.75 -7.2,-15.89 -9.94,-24.42l12.49 -7.23 -2.55 31.65zm211.81 -89.39c-5.02,-1.5 -11.71,-3.37 -20.07,-5.62 -12.49,-3.36 -21.85,-6 -28.09,-7.92 -21.85,-6.59 -41.32,-14.3 -58.41,-23.14l54.82 -114.92c3.8,1.15 7.82,1.77 11.99,1.77 1,0 1.98,-0.04 2.96,-0.11 3.72,1.84 8.48,3.85 14.26,6.02l43.11 84.22c-10.35,7.49 -17.09,19.66 -17.09,33.41 0,7.16 1.83,13.9 5.05,19.77l-8.53 6.52zm-117.53 -42.69c-30.59,-17.81 -52.53,-39.71 -65.83,-65.7l12.67 -157.37c0.43,-0.59 0.86,-1.17 1.3,-1.76 8.54,-0.84 16.32,-4.28 22.53,-9.51l72.24 63.46c-4.14,6.45 -6.54,14.11 -6.54,22.34 0,14.24 7.19,26.8 18.14,34.25l-54.51 114.29zm-76.17 -92.8c-3.33,-12.59 -5,-25.96 -5,-40.12 0,-23.93 4.5,-45.72 13.49,-65.38l-8.49 105.5zm57.6 -155.44l285.62 86.1 -21.03 12.29 -116.58 -3.41c-3.54,-1.55 -7.25,-2.78 -11.12,-3.69 -3.89,-18.83 -20.57,-33 -40.55,-33 -10.14,0 -19.44,3.66 -26.64,9.72l-72.23 -63.46c0.93,-1.46 1.78,-2.98 2.53,-4.55zm3.62 -12.1c30.95,-21.66 69.38,-32.49 115.29,-32.49 42.74,0 81.03,10.09 114.89,30.26 33.85,20.17 58.7,49.22 74.55,87.15l-8.01 4.68 -296.75 -89.45 0.03 -0.15zm240.67 122.36l-55.51 32.43c-5.7,-14.54 -12.92,-26.1 -21.68,-34.69l77.19 2.26zm-113.73 42.65c9.4,3.06 20.4,6.37 33.01,9.95 24.01,7.2 43.7,14.04 59.06,20.53 10.01,4.22 20.32,9.56 30.94,16.02l-44.68 35.15c-7.36,-6.89 -17.25,-11.11 -28.13,-11.11 -4.55,0 -8.92,0.74 -13.01,2.11l-37.19 -72.65zm134.15 53.62c2.05,1.37 4.11,2.78 6.18,4.23 16.81,11.76 29.42,26.89 37.82,45.38 8.4,18.49 12.6,40.21 12.6,65.18 0,20.71 -2.86,39.52 -8.59,56.44l-97.79 -90.12c4.43,-6.57 7.02,-14.48 7.02,-23 0,-7.37 -1.94,-14.29 -5.33,-20.27l48.09 -37.84z"/>
   <g>
    <path class="fil4" d="M520.74 1643.01c16.34,0 29.59,13.25 29.59,29.6 0,16.34 -13.25,29.59 -29.59,29.59 -16.34,0 -29.59,-13.25 -29.59,-29.59 0,-16.35 13.25,-29.6 29.59,-29.6z"/>
    <path class="fil4" d="M605.16 1808.17c16.23,0 29.38,13.15 29.38,29.38 0,16.22 -13.15,29.37 -29.38,29.37 -16.22,0 -29.37,-13.15 -29.37,-29.37 0,-16.23 13.15,-29.38 29.37,-29.38z"/>
    <path class="fil4" d="M348.48 2004.17c16.32,0 29.55,13.23 29.55,29.55 0,16.32 -13.23,29.56 -29.55,29.56 -16.32,0 -29.56,-13.24 -29.56,-29.56 0,-16.32 13.24,-29.55 29.56,-29.55z"/>
    <path class="fil4" d="M804.27 1653.54c15.1,0 27.35,12.25 27.35,27.36 0,15.11 -12.25,27.36 -27.35,27.36 -15.11,0 -27.36,-12.25 -27.36,-27.36 0,-15.11 12.25,-27.36 27.36,-27.36z"/>
    <path class="fil4" d="M804.27 1993.68c15.1,0 27.35,12.25 27.35,27.36 0,15.1 -12.25,27.35 -27.35,27.35 -15.11,0 -27.36,-12.25 -27.36,-27.35 0,-15.11 12.25,-27.36 27.36,-27.36z"/>
    <path class="fil4" d="M387.01 1525.53c16.34,0 29.59,13.25 29.59,29.59 0,16.34 -13.25,29.59 -29.59,29.59 -16.35,0 -29.6,-13.25 -29.6,-29.59 0,-16.34 13.25,-29.59 29.6,-29.59z"/>
   </g>
   <path class="fil7" d="M520.74 1643.01c16.34,0 29.59,13.25 29.59,29.6 0,16.34 -13.25,29.59 -29.59,29.59 -16.34,0 -29.59,-13.25 -29.59,-29.59 0,-16.35 13.25,-29.6 29.59,-29.6z"/>
   <path class="fil7" d="M605.16 1808.17c16.23,0 29.38,13.15 29.38,29.38 0,16.22 -13.15,29.37 -29.38,29.37 -16.22,0 -29.37,-13.15 -29.37,-29.37 0,-16.23 13.15,-29.38 29.37,-29.38z"/>
   <path class="fil7" d="M348.48 2004.17c16.32,0 29.55,13.23 29.55,29.55 0,16.32 -13.23,29.56 -29.55,29.56 -16.32,0 -29.56,-13.24 -29.56,-29.56 0,-16.32 13.24,-29.55 29.56,-29.55z"/>
   <path class="fil7" d="M804.27 1653.54c15.1,0 27.35,12.25 27.35,27.36 0,15.11 -12.25,27.36 -27.35,27.36 -15.11,0 -27.36,-12.25 -27.36,-27.36 0,-15.11 12.25,-27.36 27.36,-27.36z"/>
   <path class="fil7" d="M804.27 1993.68c15.1,0 27.35,12.25 27.35,27.36 0,15.1 -12.25,27.35 -27.35,27.35 -15.11,0 -27.36,-12.25 -27.36,-27.35 0,-15.11 12.25,-27.36 27.36,-27.36z"/>
   <path class="fil7" d="M387.01 1525.53c16.34,0 29.59,13.25 29.59,29.59 0,16.34 -13.25,29.59 -29.59,29.59 -16.35,0 -29.6,-13.25 -29.6,-29.59 0,-16.34 13.25,-29.59 29.6,-29.59z"/>
  </g>
  <path class="fil0" d="M603.47 2384.32c273.35,0 494.94,221.59 494.94,494.93 0,273.35 -221.59,494.94 -494.94,494.94 -273.34,0 -494.93,-221.59 -494.93,-494.94 0,-273.34 221.59,-494.93 494.93,-494.93z"/>
  <path class="fil8" d="M603.47 2363.49c142.43,0 271.37,57.73 364.71,151.06 93.33,93.34 151.06,222.28 151.06,364.7 0,142.43 -57.73,271.37 -151.06,364.71 -93.34,93.33 -222.28,151.06 -364.71,151.06 -142.42,0 -271.36,-57.73 -364.7,-151.06 -93.33,-93.34 -151.06,-222.28 -151.06,-364.71 0,-142.42 57.73,-271.36 151.06,-364.7 93.34,-93.33 222.28,-151.06 364.7,-151.06zm335.25 180.52c-85.79,-85.8 -204.32,-138.86 -335.25,-138.86 -130.92,0 -249.45,53.06 -335.24,138.86 -85.8,85.79 -138.86,204.32 -138.86,335.24 0,130.93 53.06,249.46 138.86,335.25 85.79,85.79 204.32,138.86 335.24,138.86 130.93,0 249.46,-53.07 335.25,-138.86 85.79,-85.79 138.86,-204.32 138.86,-335.25 0,-130.92 -53.07,-249.45 -138.86,-335.24z"/>
  <g id="_1595946995536">
   <path class="fil3" d="M673.2 2582.27l-348.71 0c-10.17,0 -15.25,5.08 -15.25,15.25l0 510.41c5.18,-15.53 19.33,-26.97 36.29,-28.16l1.48 -18.33c-8.11,-12.68 -14.65,-26.58 -19.51,-41.72l-2.9 -9.06 27.79 -16.1 12.13 -150.63c-9.29,-19.7 -14.53,-42.35 -14.53,-68.4 0,-34.83 8.99,-65.95 27.29,-92.86 -18.17,-4.37 -31.68,-20.74 -31.68,-40.25 0,-22.86 18.54,-41.4 41.41,-41.4 20.04,0 36.77,14.26 40.58,33.18 34.23,-21.78 74.07,-30.38 115.72,-30.38 43.02,0 83.9,9.85 120.93,31.91 36.75,21.89 62.93,53.32 79.41,92.75l3.98 9.54 -7.45 4.35 28.86 8.7c6.36,-13.04 19.74,-22.03 35.23,-22.03 21.62,0 39.16,17.54 39.16,39.16 0,19.5 -14.26,35.68 -32.92,38.67l0 159.86c22.83,-15.93 41.72,-36.19 56.68,-60.77 20.35,-33.43 30.52,-70.48 30.52,-111.17 0,-59.58 -21.25,-109.9 -63.76,-150.95 -42.5,-41.05 -96.09,-61.57 -160.75,-61.57zm-363.96 551.86l0 26.85c0,10.18 5.44,15.26 16.34,15.26l144.9 0c9.44,0 289.58,0 321.51,0l79.56 0c5.82,0 9.99,-1.63 12.54,-4.9 2.54,-3.27 2.36,-7.45 -0.55,-12.54l-73.03 -130 0 40.87c18.66,2.99 32.92,19.17 32.92,38.67 0,21.62 -17.54,39.16 -39.16,39.16 -19.14,0 -35.07,-13.72 -38.49,-31.86l-76.22 2.12c-41.03,27.91 -91.3,36.93 -140.49,36.93 -45.54,0 -91.41,-7.68 -131.65,-29.35l-27.89 0.77c-2.51,20.44 -19.94,36.28 -41.05,36.28 -18.26,0 -33.76,-11.84 -39.24,-28.26zm488.78 -127.58l-13.65 -24.3c4.68,-2.34 9.23,-4.83 13.65,-7.46l0 -167.92c-7.76,-1.24 -14.75,-4.76 -20.28,-9.86l-78.88 62.07c1.07,0.73 2.14,1.47 3.21,2.22 18.44,12.91 32.48,29.67 41.79,50.16 9.98,21.96 13.66,46.1 13.66,70.08 0,23.21 -3.44,45.11 -10.97,65.12l33.51 30.89c5.11,-4.03 11.25,-6.8 17.96,-7.88l0 -63.12zm-336.35 -75.25c-4.35,-1.98 -8.61,-4.06 -12.8,-6.22l-8.98 18.83 21.78 -12.61zm-23.78 -12.21c-25.25,-14.57 -46.9,-32.87 -62.4,-55.87l-9.96 123.74 55.24 -31.98 17.12 -35.89zm287.57 -168.12l-14.17 8.28 46.14 1.35 -31.97 -9.63zm-34.48 20.15l-79.88 46.68c13.71,4.43 27.31,9.34 40.52,14.92 12.56,5.3 24.65,11.85 36.24,19.13l82.16 -64.64c-2.35,-4.22 -3.94,-8.92 -4.59,-13.91l-74.45 -2.18zm50.36 287.71c-8.21,17.04 -19.75,32.51 -35.07,46.01l59.17 -1.65c0.79,-6.03 2.95,-11.63 6.16,-16.47l-30.26 -27.89zm-343.4 54.59c-3.9,-2.68 -7.66,-5.47 -11.3,-8.36 1.14,2.73 2.01,5.61 2.54,8.6l8.76 -0.24zm-36.96 -33.1c-0.91,-1.07 -1.81,-2.16 -2.7,-3.26l-0.3 3.7c0.84,0.2 1.66,0.42 2.48,0.67l0.52 -1.11zm109.91 -144.99l2.02 5.15c8.82,22.42 21.55,38.49 39.18,47.65l36.76 -28.09c-3.84,-1.07 -7.69,-2.09 -11.49,-3.12 -9.5,-2.55 -19.01,-5.17 -28.43,-8.02 -13.03,-3.93 -25.78,-8.42 -38.04,-13.57zm54.69 58.18c8.16,2.38 17.17,3.59 27.1,3.59 8.12,0 31.55,-0.77 36.19,-9.54 0.74,-1.4 0.98,-3.01 0.98,-4.58 0,-2.44 -0.52,-4.64 -1.81,-6.71 -1.41,-2.25 -6.01,-4.5 -8.32,-5.49 -5.3,-2.27 -10.69,-4.45 -16.15,-6.3l-37.99 29.03zm80.08 -177.44l-3.48 -8.86c-6.97,-17.8 -16.74,-31.97 -31.25,-39.6l-9.45 -0.28c-1.95,10.74 -8.04,20.04 -16.55,26.18l2.28 4.45c1.4,0.49 2.79,0.96 4.16,1.43 13.16,4.47 26.55,8.46 39.9,12.34 4.8,1.4 9.6,2.84 14.39,4.34z"/>
   <path class="fil8" d="M549.07 3142.88c-40,0 -75.14,-6.09 -105.4,-18.27l221.72 -6.18c-31.46,16.3 -70.23,24.45 -116.32,24.45zm-129.87 -30.05c-2.36,-1.35 -4.69,-2.73 -6.98,-4.16 -6.87,-4.3 -13.32,-8.88 -19.33,-13.74l121.42 -92.8c11.37,4.51 24.16,6.78 38.37,6.78 32.65,0 48.98,-8.65 48.98,-25.93 0,-4.81 -1.2,-9.13 -3.61,-12.97 -1.4,-2.25 -3.56,-4.34 -6.46,-6.27 4.25,1.49 8.82,2.3 13.57,2.3 9.73,0 18.66,-3.38 25.71,-9.02l101.36 93.41c-8.83,19.63 -21.98,36.4 -39.46,50.31 -2,1.6 -4.04,3.14 -6.12,4.64l-267.45 7.45zm162.86 -153.88c-2.58,-1.09 -5.04,-2.08 -7.36,-2.98l1.9 -1.45c1.69,1.62 3.52,3.11 5.46,4.43zm-198.79 127.63c-2.68,-2.5 -5.27,-5.08 -7.76,-7.72l55.38 -116.1 31.03 -17.96c9.25,23.52 22.57,40.56 39.96,51.14l-118.61 90.64zm-16.68 -18.02c-2.41,-3.02 -4.7,-6.13 -6.88,-9.31l4.67 -57.98 47.4 -27.44 -45.19 94.73zm-17.9 -28.03c-3.89,-7.75 -7.2,-15.89 -9.94,-24.42l12.49 -7.23 -2.55 31.65zm211.81 -89.39c-5.02,-1.5 -11.71,-3.37 -20.07,-5.62 -12.49,-3.36 -21.85,-6 -28.09,-7.92 -21.85,-6.59 -41.32,-14.3 -58.41,-23.14l54.82 -114.92c3.8,1.15 7.82,1.77 11.99,1.77 1,0 1.98,-0.04 2.96,-0.11 3.72,1.84 8.48,3.85 14.26,6.02l43.11 84.23c-10.35,7.48 -17.09,19.65 -17.09,33.4 0,7.16 1.83,13.9 5.05,19.77l-8.53 6.52zm-117.53 -42.69c-30.59,-17.8 -52.53,-39.71 -65.83,-65.7l12.67 -157.37c0.43,-0.59 0.86,-1.17 1.3,-1.76 8.54,-0.84 16.32,-4.28 22.53,-9.51l72.24 63.46c-4.14,6.45 -6.54,14.11 -6.54,22.34 0,14.24 7.19,26.8 18.14,34.25l-54.51 114.29zm-76.17 -92.8c-3.33,-12.59 -5,-25.95 -5,-40.12 0,-23.93 4.5,-45.72 13.49,-65.38l-8.49 105.5zm57.6 -155.44l285.62 86.1 -21.03 12.29 -116.58 -3.41c-3.54,-1.55 -7.25,-2.78 -11.12,-3.68 -3.89,-18.84 -20.57,-33 -40.55,-33 -10.14,0 -19.44,3.65 -26.64,9.71l-72.23 -63.46c0.93,-1.45 1.78,-2.97 2.53,-4.55zm3.62 -12.1c30.95,-21.65 69.38,-32.48 115.29,-32.48 42.74,0 81.03,10.08 114.89,30.25 33.85,20.17 58.7,49.22 74.55,87.15l-8.01 4.68 -296.75 -89.45 0.03 -0.15zm240.67 122.36l-55.51 32.43c-5.7,-14.54 -12.92,-26.1 -21.68,-34.69l77.19 2.26zm-113.73 42.65c9.4,3.06 20.4,6.38 33.01,9.95 24.01,7.2 43.7,14.05 59.06,20.53 10.01,4.22 20.32,9.56 30.94,16.03l-44.68 35.15c-7.36,-6.89 -17.25,-11.11 -28.13,-11.11 -4.55,0 -8.92,0.74 -13.01,2.1l-37.19 -72.65zm134.15 53.62c2.05,1.37 4.11,2.78 6.18,4.23 16.81,11.77 29.42,26.89 37.82,45.38 8.4,18.49 12.6,40.22 12.6,65.19 0,20.7 -2.86,39.51 -8.59,56.43l-97.79 -90.12c4.43,-6.56 7.02,-14.48 7.02,-23 0,-7.37 -1.94,-14.28 -5.33,-20.27l48.09 -37.84z"/>
   <g>
    <path class="fil4" d="M520.74 2730.32c16.34,0 29.59,13.24 29.59,29.59 0,16.34 -13.25,29.59 -29.59,29.59 -16.34,0 -29.59,-13.25 -29.59,-29.59 0,-16.35 13.25,-29.59 29.59,-29.59z"/>
    <path class="fil4" d="M605.16 2895.48c16.23,0 29.38,13.15 29.38,29.37 0,16.22 -13.15,29.38 -29.38,29.38 -16.22,0 -29.37,-13.16 -29.37,-29.38 0,-16.22 13.15,-29.37 29.37,-29.37z"/>
    <path class="fil4" d="M348.48 3091.47c16.32,0 29.55,13.23 29.55,29.56 0,16.32 -13.23,29.55 -29.55,29.55 -16.32,0 -29.56,-13.23 -29.56,-29.55 0,-16.33 13.24,-29.56 29.56,-29.56z"/>
    <path class="fil4" d="M804.27 2740.85c15.1,0 27.35,12.25 27.35,27.35 0,15.11 -12.25,27.36 -27.35,27.36 -15.11,0 -27.36,-12.25 -27.36,-27.36 0,-15.1 12.25,-27.35 27.36,-27.35z"/>
    <path class="fil4" d="M804.27 3080.98c15.1,0 27.35,12.25 27.35,27.36 0,15.11 -12.25,27.36 -27.35,27.36 -15.11,0 -27.36,-12.25 -27.36,-27.36 0,-15.11 12.25,-27.36 27.36,-27.36z"/>
    <path class="fil4" d="M387.01 2612.83c16.34,0 29.59,13.25 29.59,29.59 0,16.35 -13.25,29.6 -29.59,29.6 -16.35,0 -29.6,-13.25 -29.6,-29.6 0,-16.34 13.25,-29.59 29.6,-29.59z"/>
   </g>
   <path class="fil9" d="M520.74 2730.32c16.34,0 29.59,13.24 29.59,29.59 0,16.34 -13.25,29.59 -29.59,29.59 -16.34,0 -29.59,-13.25 -29.59,-29.59 0,-16.35 13.25,-29.59 29.59,-29.59z"/>
   <path class="fil9" d="M605.16 2895.48c16.23,0 29.38,13.15 29.38,29.37 0,16.22 -13.15,29.38 -29.38,29.38 -16.22,0 -29.37,-13.16 -29.37,-29.38 0,-16.22 13.15,-29.37 29.37,-29.37z"/>
   <path class="fil9" d="M348.48 3091.47c16.32,0 29.55,13.23 29.55,29.56 0,16.32 -13.23,29.55 -29.55,29.55 -16.32,0 -29.56,-13.23 -29.56,-29.55 0,-16.33 13.24,-29.56 29.56,-29.56z"/>
   <path class="fil9" d="M804.27 2740.85c15.1,0 27.35,12.25 27.35,27.35 0,15.11 -12.25,27.36 -27.35,27.36 -15.11,0 -27.36,-12.25 -27.36,-27.36 0,-15.1 12.25,-27.35 27.36,-27.35z"/>
   <path class="fil9" d="M804.27 3080.98c15.1,0 27.35,12.25 27.35,27.36 0,15.11 -12.25,27.36 -27.35,27.36 -15.11,0 -27.36,-12.25 -27.36,-27.36 0,-15.11 12.25,-27.36 27.36,-27.36z"/>
   <path class="fil9" d="M387.01 2612.83c16.34,0 29.59,13.25 29.59,29.59 0,16.35 -13.25,29.6 -29.59,29.6 -16.35,0 -29.6,-13.25 -29.6,-29.6 0,-16.34 13.25,-29.59 29.6,-29.59z"/>
  </g>
  <path class="fil10" d="M1874.84 133.36c273.35,0 494.94,221.59 494.94,494.94 0,273.35 -221.59,494.94 -494.94,494.94 -273.34,0 -494.93,-221.59 -494.93,-494.94 0,-273.35 221.59,-494.94 494.93,-494.94z"/>
  <path class="fil1" d="M1874.84 112.53c142.43,0 271.37,57.73 364.7,151.07 93.34,93.33 151.07,222.28 151.07,364.7 0,142.42 -57.73,271.36 -151.07,364.7 -93.33,93.34 -222.27,151.07 -364.7,151.07 -142.42,0 -271.36,-57.73 -364.7,-151.07 -93.33,-93.34 -151.07,-222.28 -151.07,-364.7 0,-142.42 57.74,-271.37 151.07,-364.7 93.34,-93.34 222.28,-151.07 364.7,-151.07zm335.25 180.52c-85.8,-85.79 -204.32,-138.86 -335.25,-138.86 -130.92,0 -249.45,53.07 -335.24,138.86 -85.8,85.8 -138.86,204.33 -138.86,335.25 0,130.92 53.06,249.45 138.86,335.25 85.79,85.79 204.32,138.86 335.24,138.86 130.93,0 249.45,-53.07 335.25,-138.86 85.79,-85.8 138.86,-204.33 138.86,-335.25 0,-130.92 -53.07,-249.45 -138.86,-335.25z"/>
  <g id="_1595946993904">
   <path class="fil2" d="M1944.57 331.31l-348.71 0c-10.17,0 -15.26,5.09 -15.26,15.26l0 510.4c5.19,-15.53 19.33,-26.96 36.3,-28.16l1.48 -18.33c-8.11,-12.68 -14.65,-26.57 -19.51,-41.72l-2.91 -9.06 27.8 -16.09 12.13 -150.63c-9.3,-19.71 -14.53,-42.36 -14.53,-68.4 0,-34.84 8.99,-65.96 27.29,-92.86 -18.17,-4.38 -31.68,-20.74 -31.68,-40.25 0,-22.86 18.54,-41.4 41.4,-41.4 20.05,0 36.77,14.25 40.59,33.18 34.23,-21.78 74.07,-30.39 115.72,-30.39 43.02,0 83.9,9.86 120.93,31.92 36.75,21.89 62.93,53.31 79.4,92.75l3.99 9.53 -7.45 4.35 28.86 8.7c6.36,-13.04 19.74,-22.03 35.22,-22.03 21.63,0 39.17,17.54 39.17,39.17 0,19.5 -14.26,35.68 -32.92,38.67l0 159.86c22.83,-15.94 41.72,-36.2 56.68,-60.78 20.35,-33.42 30.52,-70.48 30.52,-111.16 0,-59.58 -21.25,-109.9 -63.76,-150.95 -42.5,-41.05 -96.09,-61.58 -160.75,-61.58zm-363.97 551.86l0 26.86c0,10.17 5.45,15.26 16.35,15.26l144.9 0c9.44,0 289.58,0 321.51,0l79.56 0c5.82,0 9.99,-1.64 12.54,-4.91 2.54,-3.27 2.36,-7.44 -0.55,-12.53l-73.03 -130.01 0 40.87c18.66,3 32.92,19.17 32.92,38.67 0,21.63 -17.54,39.17 -39.17,39.17 -19.13,0 -35.06,-13.73 -38.48,-31.86l-76.22 2.12c-41.03,27.91 -91.3,36.93 -140.49,36.93 -45.54,0 -91.41,-7.68 -131.65,-29.36l-27.9 0.78c-2.5,20.44 -19.93,36.27 -41.04,36.27 -18.26,0 -33.76,-11.84 -39.25,-28.26zm488.78 -127.58l-13.65 -24.3c4.69,-2.34 9.23,-4.82 13.65,-7.45l0 -167.92c-7.75,-1.25 -14.74,-4.77 -20.27,-9.86l-78.88 62.06c1.07,0.74 2.14,1.48 3.21,2.22 18.44,12.91 32.47,29.68 41.79,50.17 9.98,21.95 13.66,46.1 13.66,70.07 0,23.21 -3.44,45.11 -10.98,65.13l33.52 30.88c5.11,-4.02 11.25,-6.8 17.95,-7.88l0 -63.12zm-336.34 -75.24c-4.35,-1.99 -8.62,-4.06 -12.8,-6.22l-8.99 18.83 21.79 -12.61zm-23.78 -12.21c-25.25,-14.57 -46.9,-32.88 -62.4,-55.88l-9.96 123.74 55.24 -31.98 17.12 -35.88zm287.57 -168.13l-14.18 8.29 46.15 1.35 -31.97 -9.64zm-34.48 20.15l-79.89 46.68c13.72,4.43 27.31,9.35 40.53,14.92 12.56,5.3 24.65,11.85 36.23,19.13l82.16 -64.63c-2.34,-4.22 -3.93,-8.92 -4.58,-13.92l-74.45 -2.18zm50.36 287.72c-8.21,17.04 -19.75,32.5 -35.07,46l59.16 -1.65c0.8,-6.03 2.96,-11.62 6.17,-16.47l-30.26 -27.88zm-343.4 54.58c-3.9,-2.68 -7.67,-5.47 -11.3,-8.36 1.14,2.73 2,5.61 2.54,8.61l8.76 -0.25zm-36.96 -33.09c-0.91,-1.08 -1.81,-2.16 -2.7,-3.26l-0.3 3.7c0.84,0.2 1.66,0.42 2.47,0.67l0.53 -1.11zm109.9 -144.99l2.03 5.14c8.81,22.42 21.55,38.5 39.18,47.66l36.76 -28.1c-3.84,-1.06 -7.7,-2.09 -11.49,-3.11 -9.5,-2.56 -19.01,-5.18 -28.43,-8.02 -13.03,-3.93 -25.79,-8.43 -38.05,-13.57zm54.7 58.18c8.16,2.37 17.17,3.58 27.09,3.58 8.13,0 31.56,-0.77 36.2,-9.53 0.74,-1.41 0.97,-3.02 0.97,-4.59 0,-2.43 -0.51,-4.64 -1.8,-6.7 -1.41,-2.25 -6.01,-4.5 -8.33,-5.49 -5.29,-2.27 -10.68,-4.46 -16.15,-6.3l-37.98 29.03zm80.07 -177.44l-3.47 -8.86c-6.97,-17.8 -16.75,-31.97 -31.25,-39.61l-9.46 -0.27c-1.94,10.73 -8.03,20.03 -16.54,26.17l2.27 4.46c1.41,0.48 2.8,0.96 4.17,1.42 13.16,4.48 26.55,8.47 39.89,12.35 4.8,1.39 9.6,2.84 14.39,4.34z"/>
   <path class="fil3" d="M1820.44 891.93c-40,0 -75.14,-6.1 -105.4,-18.28l221.72 -6.17c-31.46,16.3 -70.23,24.45 -116.32,24.45zm-129.87 -30.06c-2.37,-1.34 -4.69,-2.73 -6.98,-4.16 -6.87,-4.29 -13.32,-8.87 -19.34,-13.73l121.43 -92.81c11.37,4.52 24.15,6.78 38.36,6.78 32.66,0 48.98,-8.64 48.98,-25.93 0,-4.8 -1.2,-9.12 -3.6,-12.96 -1.41,-2.26 -3.56,-4.35 -6.46,-6.27 4.25,1.48 8.82,2.29 13.57,2.29 9.72,0 18.66,-3.37 25.71,-9.01l101.35 93.41c-8.82,19.62 -21.97,36.4 -39.45,50.31 -2,1.59 -4.04,3.14 -6.12,4.64l-267.45 7.44zm162.86 -153.88c-2.59,-1.08 -5.04,-2.07 -7.36,-2.97l1.9 -1.45c1.69,1.62 3.51,3.1 5.46,4.42zm-198.79 127.64c-2.68,-2.51 -5.27,-5.09 -7.76,-7.73l55.38 -116.09 31.03 -17.96c9.25,23.51 22.57,40.56 39.96,51.13l-118.61 90.65zm-16.68 -18.02c-2.41,-3.03 -4.7,-6.14 -6.88,-9.32l4.67 -57.97 47.4 -27.45 -45.19 94.74zm-17.9 -28.03c-3.89,-7.76 -7.21,-15.9 -9.94,-24.42l12.49 -7.24 -2.55 31.66zm211.8 -89.39c-5.02,-1.5 -11.71,-3.37 -20.06,-5.62 -12.49,-3.36 -21.85,-6.01 -28.09,-7.93 -21.85,-6.58 -41.32,-14.29 -58.41,-23.13l54.82 -114.92c3.79,1.15 7.82,1.77 11.99,1.77 0.99,0 1.98,-0.04 2.96,-0.11 3.72,1.84 8.48,3.84 14.26,6.02l43.11 84.22c-10.35,7.48 -17.09,19.66 -17.09,33.41 0,7.16 1.83,13.9 5.05,19.77l-8.54 6.52zm-117.53 -42.7c-30.58,-17.8 -52.52,-39.7 -65.82,-65.69l12.67 -157.37c0.43,-0.59 0.86,-1.18 1.3,-1.76 8.54,-0.84 16.31,-4.28 22.53,-9.51l72.23 63.46c-4.13,6.44 -6.53,14.11 -6.53,22.33 0,14.24 7.19,26.81 18.14,34.26l-54.52 114.28zm-76.17 -92.79c-3.32,-12.59 -4.99,-25.96 -4.99,-40.12 0,-23.93 4.49,-45.73 13.49,-65.39l-8.5 105.51zm57.6 -155.44l285.63 86.1 -21.03 12.29 -116.58 -3.41c-3.54,-1.55 -7.25,-2.78 -11.12,-3.69 -3.89,-18.83 -20.57,-33 -40.55,-33 -10.15,0 -19.44,3.65 -26.64,9.71l-72.23 -63.45c0.93,-1.46 1.78,-2.98 2.52,-4.55zm3.62 -12.1c30.96,-21.66 69.39,-32.49 115.3,-32.49 42.74,0 81.03,10.09 114.89,30.25 33.85,20.17 58.7,49.22 74.55,87.16l-8.01 4.68 -296.75 -89.45 0.02 -0.15zm240.68 122.35l-55.51 32.44c-5.7,-14.54 -12.93,-26.11 -21.68,-34.7l77.19 2.26zm-113.73 42.66c9.4,3.06 20.4,6.37 33.01,9.95 24.01,7.2 43.7,14.04 59.06,20.53 10.01,4.22 20.32,9.56 30.94,16.02l-44.68 35.15c-7.36,-6.89 -17.25,-11.11 -28.13,-11.11 -4.55,0 -8.92,0.74 -13.01,2.1l-37.19 -72.64zm134.15 53.62c2.05,1.37 4.11,2.78 6.18,4.23 16.81,11.76 29.41,26.89 37.82,45.37 8.4,18.49 12.6,40.22 12.6,65.19 0,20.71 -2.87,39.52 -8.6,56.44l-97.79 -90.12c4.44,-6.57 7.02,-14.48 7.02,-23 0,-7.37 -1.93,-14.29 -5.32,-20.27l48.09 -37.84z"/>
   <path class="fil4" d="M1792.11 479.36c16.34,0 29.59,13.25 29.59,29.59 0,16.35 -13.25,29.6 -29.59,29.6 -16.35,0 -29.6,-13.25 -29.6,-29.6 0,-16.34 13.25,-29.59 29.6,-29.59z"/>
   <path class="fil4" d="M1876.53 644.52c16.22,0 29.37,13.15 29.37,29.38 0,16.22 -13.15,29.37 -29.37,29.37 -16.22,0 -29.38,-13.15 -29.38,-29.37 0,-16.23 13.16,-29.38 29.38,-29.38z"/>
   <path class="fil4" d="M1619.85 840.52c16.32,0 29.55,13.23 29.55,29.55 0,16.32 -13.23,29.55 -29.55,29.55 -16.33,0 -29.56,-13.23 -29.56,-29.55 0,-16.32 13.23,-29.55 29.56,-29.55z"/>
   <path class="fil4" d="M2075.63 489.89c15.11,0 27.36,12.25 27.36,27.36 0,15.11 -12.25,27.36 -27.36,27.36 -15.11,0 -27.35,-12.25 -27.35,-27.36 0,-15.11 12.24,-27.36 27.35,-27.36z"/>
   <path class="fil4" d="M2075.63 830.03c15.11,0 27.36,12.24 27.36,27.35 0,15.11 -12.25,27.36 -27.36,27.36 -15.11,0 -27.35,-12.25 -27.35,-27.36 0,-15.11 12.24,-27.35 27.35,-27.35z"/>
   <path class="fil4" d="M1658.37 361.88c16.35,0 29.6,13.25 29.6,29.59 0,16.34 -13.25,29.59 -29.6,29.59 -16.34,0 -29.59,-13.25 -29.59,-29.59 0,-16.34 13.25,-29.59 29.59,-29.59z"/>
   <path class="fil5" d="M1792.11 479.36c16.34,0 29.59,13.25 29.59,29.59 0,16.35 -13.25,29.6 -29.59,29.6 -16.35,0 -29.6,-13.25 -29.6,-29.6 0,-16.34 13.25,-29.59 29.6,-29.59z"/>
   <path class="fil5" d="M1876.53 644.52c16.22,0 29.37,13.15 29.37,29.38 0,16.22 -13.15,29.37 -29.37,29.37 -16.22,0 -29.38,-13.15 -29.38,-29.37 0,-16.23 13.16,-29.38 29.38,-29.38z"/>
   <path class="fil5" d="M1619.85 840.52c16.32,0 29.55,13.23 29.55,29.55 0,16.32 -13.23,29.55 -29.55,29.55 -16.33,0 -29.56,-13.23 -29.56,-29.55 0,-16.32 13.23,-29.55 29.56,-29.55z"/>
   <path class="fil5" d="M2075.63 489.89c15.11,0 27.36,12.25 27.36,27.36 0,15.11 -12.25,27.36 -27.36,27.36 -15.11,0 -27.35,-12.25 -27.35,-27.36 0,-15.11 12.24,-27.36 27.35,-27.36z"/>
   <path class="fil5" d="M2075.63 830.03c15.11,0 27.36,12.24 27.36,27.35 0,15.11 -12.25,27.36 -27.36,27.36 -15.11,0 -27.35,-12.25 -27.35,-27.36 0,-15.11 12.24,-27.35 27.35,-27.35z"/>
   <path class="fil5" d="M1658.37 361.88c16.35,0 29.6,13.25 29.6,29.59 0,16.34 -13.25,29.59 -29.6,29.59 -16.34,0 -29.59,-13.25 -29.59,-29.59 0,-16.34 13.25,-29.59 29.59,-29.59z"/>
  </g>
  <path class="fil10" d="M1874.84 1297.02c273.35,0 494.94,221.59 494.94,494.93 0,273.35 -221.59,494.94 -494.94,494.94 -273.34,0 -494.93,-221.59 -494.93,-494.94 0,-273.34 221.59,-494.93 494.93,-494.93z"/>
  <path class="fil6" d="M1874.84 1276.18c142.43,0 271.37,57.74 364.7,151.07 93.34,93.34 151.07,222.28 151.07,364.7 0,142.42 -57.73,271.37 -151.07,364.7 -93.33,93.34 -222.27,151.07 -364.7,151.07 -142.42,0 -271.36,-57.73 -364.7,-151.07 -93.33,-93.33 -151.07,-222.28 -151.07,-364.7 0,-142.42 57.74,-271.36 151.07,-364.7 93.34,-93.33 222.28,-151.07 364.7,-151.07zm335.25 180.53c-85.8,-85.8 -204.32,-138.86 -335.25,-138.86 -130.92,0 -249.45,53.06 -335.24,138.86 -85.8,85.79 -138.86,204.32 -138.86,335.24 0,130.93 53.06,249.45 138.86,335.25 85.79,85.79 204.32,138.86 335.24,138.86 130.93,0 249.45,-53.07 335.25,-138.86 85.79,-85.8 138.86,-204.32 138.86,-335.25 0,-130.92 -53.07,-249.45 -138.86,-335.24z"/>
  <g id="_1595946989392">
   <path class="fil4" d="M1944.57 1494.96l-348.71 0c-10.17,0 -15.26,5.09 -15.26,15.26l0 510.4c5.19,-15.53 19.33,-26.96 36.3,-28.15l1.48 -18.33c-8.11,-12.69 -14.65,-26.58 -19.51,-41.72l-2.91 -9.06 27.8 -16.1 12.13 -150.63c-9.3,-19.7 -14.53,-42.35 -14.53,-68.4 0,-34.83 8.99,-65.95 27.29,-92.86 -18.17,-4.38 -31.68,-20.74 -31.68,-40.25 0,-22.86 18.54,-41.4 41.4,-41.4 20.05,0 36.77,14.26 40.59,33.18 34.23,-21.78 74.07,-30.38 115.72,-30.38 43.02,0 83.9,9.85 120.93,31.91 36.75,21.89 62.93,53.31 79.4,92.75l3.99 9.54 -7.45 4.35 28.86 8.7c6.36,-13.05 19.74,-22.03 35.22,-22.03 21.63,0 39.17,17.54 39.17,39.16 0,19.5 -14.26,35.68 -32.92,38.67l0 159.86c22.83,-15.94 41.72,-36.19 56.68,-60.78 20.35,-33.42 30.52,-70.47 30.52,-111.16 0,-59.58 -21.25,-109.9 -63.76,-150.95 -42.5,-41.05 -96.09,-61.58 -160.75,-61.58zm-363.97 551.86l0 26.86c0,10.17 5.45,15.26 16.35,15.26l144.9 0c9.44,0 289.58,0 321.51,0l79.56 0c5.82,0 9.99,-1.63 12.54,-4.9 2.54,-3.27 2.36,-7.45 -0.55,-12.54l-73.03 -130 0 40.87c18.66,2.99 32.92,19.17 32.92,38.67 0,21.62 -17.54,39.16 -39.17,39.16 -19.13,0 -35.06,-13.72 -38.48,-31.86l-76.22 2.12c-41.03,27.91 -91.3,36.93 -140.49,36.93 -45.54,0 -91.41,-7.68 -131.65,-29.36l-27.9 0.78c-2.5,20.44 -19.93,36.28 -41.04,36.28 -18.26,0 -33.76,-11.85 -39.25,-28.27zm488.78 -127.58l-13.65 -24.3c4.69,-2.34 9.23,-4.82 13.65,-7.45l0 -167.92c-7.75,-1.24 -14.74,-4.77 -20.27,-9.86l-78.88 62.06c1.07,0.74 2.14,1.48 3.21,2.22 18.44,12.91 32.47,29.68 41.79,50.17 9.98,21.95 13.66,46.1 13.66,70.07 0,23.22 -3.44,45.12 -10.98,65.13l33.52 30.89c5.11,-4.03 11.25,-6.81 17.95,-7.88l0 -63.13zm-336.34 -75.24c-4.35,-1.98 -8.62,-4.06 -12.8,-6.22l-8.99 18.83 21.79 -12.61zm-23.78 -12.21c-25.25,-14.57 -46.9,-32.87 -62.4,-55.88l-9.96 123.75 55.24 -31.99 17.12 -35.88zm287.57 -168.12l-14.18 8.28 46.15 1.35 -31.97 -9.63zm-34.48 20.15l-79.89 46.68c13.72,4.43 27.31,9.34 40.53,14.92 12.56,5.29 24.65,11.84 36.23,19.13l82.16 -64.64c-2.34,-4.22 -3.93,-8.92 -4.58,-13.91l-74.45 -2.18zm50.36 287.71c-8.21,17.04 -19.75,32.51 -35.07,46l59.16 -1.64c0.8,-6.03 2.96,-11.63 6.17,-16.47l-30.26 -27.89zm-343.4 54.59c-3.9,-2.68 -7.67,-5.47 -11.3,-8.37 1.14,2.74 2,5.62 2.54,8.61l8.76 -0.24zm-36.96 -33.1c-0.91,-1.07 -1.81,-2.16 -2.7,-3.26l-0.3 3.7c0.84,0.2 1.66,0.42 2.47,0.67l0.53 -1.11zm109.9 -144.99l2.03 5.15c8.81,22.42 21.55,38.49 39.18,47.65l36.76 -28.09c-3.84,-1.07 -7.7,-2.1 -11.49,-3.12 -9.5,-2.55 -19.01,-5.17 -28.43,-8.02 -13.03,-3.93 -25.79,-8.42 -38.05,-13.57zm54.7 58.18c8.16,2.38 17.17,3.59 27.09,3.59 8.13,0 31.56,-0.77 36.2,-9.54 0.74,-1.41 0.97,-3.01 0.97,-4.59 0,-2.43 -0.51,-4.63 -1.8,-6.7 -1.41,-2.25 -6.01,-4.5 -8.33,-5.49 -5.29,-2.27 -10.68,-4.45 -16.15,-6.3l-37.98 29.03zm80.07 -177.44l-3.47 -8.86c-6.97,-17.8 -16.75,-31.97 -31.25,-39.6l-9.46 -0.28c-1.94,10.74 -8.03,20.03 -16.54,26.18l2.27 4.45c1.41,0.49 2.8,0.96 4.17,1.43 13.16,4.47 26.55,8.46 39.89,12.34 4.8,1.39 9.6,2.84 14.39,4.34z"/>
   <path class="fil6" d="M1820.44 2055.58c-40,0 -75.14,-6.09 -105.4,-18.28l221.72 -6.17c-31.46,16.3 -70.23,24.45 -116.32,24.45zm-129.87 -30.06c-2.37,-1.34 -4.69,-2.72 -6.98,-4.15 -6.87,-4.3 -13.32,-8.88 -19.34,-13.74l121.43 -92.81c11.37,4.52 24.15,6.79 38.36,6.79 32.66,0 48.98,-8.65 48.98,-25.94 0,-4.8 -1.2,-9.12 -3.6,-12.96 -1.41,-2.25 -3.56,-4.35 -6.46,-6.27 4.25,1.48 8.82,2.29 13.57,2.29 9.72,0 18.66,-3.37 25.71,-9.01l101.35 93.41c-8.82,19.63 -21.97,36.4 -39.45,50.31 -2,1.59 -4.04,3.14 -6.12,4.64l-267.45 7.44zm162.86 -153.87c-2.59,-1.09 -5.04,-2.08 -7.36,-2.98l1.9 -1.45c1.69,1.62 3.51,3.11 5.46,4.43zm-198.79 127.63c-2.68,-2.51 -5.27,-5.08 -7.76,-7.73l55.38 -116.09 31.03 -17.96c9.25,23.52 22.57,40.56 39.96,51.14l-118.61 90.64zm-16.68 -18.02c-2.41,-3.03 -4.7,-6.13 -6.88,-9.32l4.67 -57.97 47.4 -27.44 -45.19 94.73zm-17.9 -28.03c-3.89,-7.75 -7.21,-15.89 -9.94,-24.42l12.49 -7.23 -2.55 31.65zm211.8 -89.39c-5.02,-1.5 -11.71,-3.37 -20.06,-5.62 -12.49,-3.36 -21.85,-6 -28.09,-7.92 -21.85,-6.59 -41.32,-14.3 -58.41,-23.14l54.82 -114.92c3.79,1.15 7.82,1.77 11.99,1.77 0.99,0 1.98,-0.04 2.96,-0.11 3.72,1.84 8.48,3.85 14.26,6.02l43.11 84.22c-10.35,7.49 -17.09,19.66 -17.09,33.41 0,7.16 1.83,13.9 5.05,19.77l-8.54 6.52zm-117.53 -42.69c-30.58,-17.81 -52.52,-39.71 -65.82,-65.7l12.67 -157.37c0.43,-0.59 0.86,-1.17 1.3,-1.76 8.54,-0.84 16.31,-4.28 22.53,-9.51l72.23 63.46c-4.13,6.45 -6.53,14.11 -6.53,22.34 0,14.24 7.19,26.8 18.14,34.25l-54.52 114.29zm-76.17 -92.8c-3.32,-12.59 -4.99,-25.96 -4.99,-40.12 0,-23.93 4.49,-45.72 13.49,-65.38l-8.5 105.5zm57.6 -155.44l285.63 86.1 -21.03 12.29 -116.58 -3.41c-3.54,-1.55 -7.25,-2.78 -11.12,-3.69 -3.89,-18.83 -20.57,-33 -40.55,-33 -10.15,0 -19.44,3.66 -26.64,9.72l-72.23 -63.46c0.93,-1.46 1.78,-2.98 2.52,-4.55zm3.62 -12.1c30.96,-21.66 69.39,-32.49 115.3,-32.49 42.74,0 81.03,10.09 114.89,30.26 33.85,20.17 58.7,49.22 74.55,87.15l-8.01 4.68 -296.75 -89.45 0.02 -0.15zm240.68 122.36l-55.51 32.43c-5.7,-14.54 -12.93,-26.1 -21.68,-34.69l77.19 2.26zm-113.73 42.65c9.4,3.06 20.4,6.37 33.01,9.95 24.01,7.2 43.7,14.04 59.06,20.53 10.01,4.22 20.32,9.56 30.94,16.02l-44.68 35.15c-7.36,-6.89 -17.25,-11.11 -28.13,-11.11 -4.55,0 -8.92,0.74 -13.01,2.11l-37.19 -72.65zm134.15 53.62c2.05,1.37 4.11,2.78 6.18,4.23 16.81,11.76 29.41,26.89 37.82,45.38 8.4,18.49 12.6,40.21 12.6,65.18 0,20.71 -2.87,39.52 -8.6,56.44l-97.79 -90.12c4.44,-6.57 7.02,-14.48 7.02,-23 0,-7.37 -1.93,-14.29 -5.32,-20.27l48.09 -37.84z"/>
   <g>
    <path class="fil4" d="M1792.11 1643.01c16.34,0 29.59,13.25 29.59,29.6 0,16.34 -13.25,29.59 -29.59,29.59 -16.35,0 -29.6,-13.25 -29.6,-29.59 0,-16.35 13.25,-29.6 29.6,-29.6z"/>
    <path class="fil4" d="M1876.53 1808.17c16.22,0 29.37,13.15 29.37,29.38 0,16.22 -13.15,29.37 -29.37,29.37 -16.22,0 -29.38,-13.15 -29.38,-29.37 0,-16.23 13.16,-29.38 29.38,-29.38z"/>
    <path class="fil4" d="M1619.85 2004.17c16.32,0 29.55,13.23 29.55,29.55 0,16.32 -13.23,29.56 -29.55,29.56 -16.33,0 -29.56,-13.24 -29.56,-29.56 0,-16.32 13.23,-29.55 29.56,-29.55z"/>
    <path class="fil4" d="M2075.63 1653.54c15.11,0 27.36,12.25 27.36,27.36 0,15.11 -12.25,27.36 -27.36,27.36 -15.11,0 -27.35,-12.25 -27.35,-27.36 0,-15.11 12.24,-27.36 27.35,-27.36z"/>
    <path class="fil4" d="M2075.63 1993.68c15.11,0 27.36,12.25 27.36,27.36 0,15.1 -12.25,27.35 -27.36,27.35 -15.11,0 -27.35,-12.25 -27.35,-27.35 0,-15.11 12.24,-27.36 27.35,-27.36z"/>
    <path class="fil4" d="M1658.37 1525.53c16.35,0 29.6,13.25 29.6,29.59 0,16.34 -13.25,29.59 -29.6,29.59 -16.34,0 -29.59,-13.25 -29.59,-29.59 0,-16.34 13.25,-29.59 29.59,-29.59z"/>
   </g>
   <path class="fil7" d="M1792.11 1643.01c16.34,0 29.59,13.25 29.59,29.6 0,16.34 -13.25,29.59 -29.59,29.59 -16.35,0 -29.6,-13.25 -29.6,-29.59 0,-16.35 13.25,-29.6 29.6,-29.6z"/>
   <path class="fil7" d="M1876.53 1808.17c16.22,0 29.37,13.15 29.37,29.38 0,16.22 -13.15,29.37 -29.37,29.37 -16.22,0 -29.38,-13.15 -29.38,-29.37 0,-16.23 13.16,-29.38 29.38,-29.38z"/>
   <path class="fil7" d="M1619.85 2004.17c16.32,0 29.55,13.23 29.55,29.55 0,16.32 -13.23,29.56 -29.55,29.56 -16.33,0 -29.56,-13.24 -29.56,-29.56 0,-16.32 13.23,-29.55 29.56,-29.55z"/>
   <path class="fil7" d="M2075.63 1653.54c15.11,0 27.36,12.25 27.36,27.36 0,15.11 -12.25,27.36 -27.36,27.36 -15.11,0 -27.35,-12.25 -27.35,-27.36 0,-15.11 12.24,-27.36 27.35,-27.36z"/>
   <path class="fil7" d="M2075.63 1993.68c15.11,0 27.36,12.25 27.36,27.36 0,15.1 -12.25,27.35 -27.36,27.35 -15.11,0 -27.35,-12.25 -27.35,-27.35 0,-15.11 12.24,-27.36 27.35,-27.36z"/>
   <path class="fil7" d="M1658.37 1525.53c16.35,0 29.6,13.25 29.6,29.59 0,16.34 -13.25,29.59 -29.6,29.59 -16.34,0 -29.59,-13.25 -29.59,-29.59 0,-16.34 13.25,-29.59 29.59,-29.59z"/>
  </g>
  <path class="fil10" d="M1874.84 2384.32c273.35,0 494.94,221.59 494.94,494.93 0,273.35 -221.59,494.94 -494.94,494.94 -273.34,0 -494.93,-221.59 -494.93,-494.94 0,-273.34 221.59,-494.93 494.93,-494.93z"/>
  <path class="fil8" d="M1874.84 2363.49c142.43,0 271.37,57.73 364.7,151.06 93.34,93.34 151.07,222.28 151.07,364.7 0,142.43 -57.73,271.37 -151.07,364.71 -93.33,93.33 -222.27,151.06 -364.7,151.06 -142.42,0 -271.36,-57.73 -364.7,-151.06 -93.33,-93.34 -151.07,-222.28 -151.07,-364.71 0,-142.42 57.74,-271.36 151.07,-364.7 93.34,-93.33 222.28,-151.06 364.7,-151.06zm335.25 180.52c-85.8,-85.8 -204.32,-138.86 -335.25,-138.86 -130.92,0 -249.45,53.06 -335.24,138.86 -85.8,85.79 -138.86,204.32 -138.86,335.24 0,130.93 53.06,249.46 138.86,335.25 85.79,85.79 204.32,138.86 335.24,138.86 130.93,0 249.45,-53.07 335.25,-138.86 85.79,-85.79 138.86,-204.32 138.86,-335.25 0,-130.92 -53.07,-249.45 -138.86,-335.24z"/>
  <g id="_1595946985888">
   <path class="fil3" d="M1944.57 2582.27l-348.71 0c-10.17,0 -15.26,5.08 -15.26,15.25l0 510.41c5.19,-15.53 19.33,-26.97 36.3,-28.16l1.48 -18.33c-8.11,-12.68 -14.65,-26.58 -19.51,-41.72l-2.91 -9.06 27.8 -16.1 12.13 -150.63c-9.3,-19.7 -14.53,-42.35 -14.53,-68.4 0,-34.83 8.99,-65.95 27.29,-92.86 -18.17,-4.37 -31.68,-20.74 -31.68,-40.25 0,-22.86 18.54,-41.4 41.4,-41.4 20.05,0 36.77,14.26 40.59,33.18 34.23,-21.78 74.07,-30.38 115.72,-30.38 43.02,0 83.9,9.85 120.93,31.91 36.75,21.89 62.93,53.32 79.4,92.75l3.99 9.54 -7.45 4.35 28.86 8.7c6.36,-13.04 19.74,-22.03 35.22,-22.03 21.63,0 39.17,17.54 39.17,39.16 0,19.5 -14.26,35.68 -32.92,38.67l0 159.86c22.83,-15.93 41.72,-36.19 56.68,-60.77 20.35,-33.43 30.52,-70.48 30.52,-111.17 0,-59.58 -21.25,-109.9 -63.76,-150.95 -42.5,-41.05 -96.09,-61.57 -160.75,-61.57zm-363.97 551.86l0 26.85c0,10.18 5.45,15.26 16.35,15.26l144.9 0c9.44,0 289.58,0 321.51,0l79.56 0c5.82,0 9.99,-1.63 12.54,-4.9 2.54,-3.27 2.36,-7.45 -0.55,-12.54l-73.03 -130 0 40.87c18.66,2.99 32.92,19.17 32.92,38.67 0,21.62 -17.54,39.16 -39.17,39.16 -19.13,0 -35.06,-13.72 -38.48,-31.86l-76.22 2.12c-41.03,27.91 -91.3,36.93 -140.49,36.93 -45.54,0 -91.41,-7.68 -131.65,-29.35l-27.9 0.77c-2.5,20.44 -19.93,36.28 -41.04,36.28 -18.26,0 -33.76,-11.84 -39.25,-28.26zm488.78 -127.58l-13.65 -24.3c4.69,-2.34 9.23,-4.83 13.65,-7.46l0 -167.92c-7.75,-1.24 -14.74,-4.76 -20.27,-9.86l-78.88 62.07c1.07,0.73 2.14,1.47 3.21,2.22 18.44,12.91 32.47,29.67 41.79,50.16 9.98,21.96 13.66,46.1 13.66,70.08 0,23.21 -3.44,45.11 -10.98,65.12l33.52 30.89c5.11,-4.03 11.25,-6.8 17.95,-7.88l0 -63.12zm-336.34 -75.25c-4.35,-1.98 -8.62,-4.06 -12.8,-6.22l-8.99 18.83 21.79 -12.61zm-23.78 -12.21c-25.25,-14.57 -46.9,-32.87 -62.4,-55.87l-9.96 123.74 55.24 -31.98 17.12 -35.89zm287.57 -168.12l-14.18 8.28 46.15 1.35 -31.97 -9.63zm-34.48 20.15l-79.89 46.68c13.72,4.43 27.31,9.34 40.53,14.92 12.56,5.3 24.65,11.85 36.23,19.13l82.16 -64.64c-2.34,-4.22 -3.93,-8.92 -4.58,-13.91l-74.45 -2.18zm50.36 287.71c-8.21,17.04 -19.75,32.51 -35.07,46.01l59.16 -1.65c0.8,-6.03 2.96,-11.63 6.17,-16.47l-30.26 -27.89zm-343.4 54.59c-3.9,-2.68 -7.67,-5.47 -11.3,-8.36 1.14,2.73 2,5.61 2.54,8.6l8.76 -0.24zm-36.96 -33.1c-0.91,-1.07 -1.81,-2.16 -2.7,-3.26l-0.3 3.7c0.84,0.2 1.66,0.42 2.47,0.67l0.53 -1.11zm109.9 -144.99l2.03 5.15c8.81,22.42 21.55,38.49 39.18,47.65l36.76 -28.09c-3.84,-1.07 -7.7,-2.09 -11.49,-3.12 -9.5,-2.55 -19.01,-5.17 -28.43,-8.02 -13.03,-3.93 -25.79,-8.42 -38.05,-13.57zm54.7 58.18c8.16,2.38 17.17,3.59 27.09,3.59 8.13,0 31.56,-0.77 36.2,-9.54 0.74,-1.4 0.97,-3.01 0.97,-4.58 0,-2.44 -0.51,-4.64 -1.8,-6.71 -1.41,-2.25 -6.01,-4.5 -8.33,-5.49 -5.29,-2.27 -10.68,-4.45 -16.15,-6.3l-37.98 29.03zm80.07 -177.44l-3.47 -8.86c-6.97,-17.8 -16.75,-31.97 -31.25,-39.6l-9.46 -0.28c-1.94,10.74 -8.03,20.04 -16.54,26.18l2.27 4.45c1.41,0.49 2.8,0.96 4.17,1.43 13.16,4.47 26.55,8.46 39.89,12.34 4.8,1.4 9.6,2.84 14.39,4.34z"/>
   <path class="fil8" d="M1820.44 3142.88c-40,0 -75.14,-6.09 -105.4,-18.27l221.72 -6.18c-31.46,16.3 -70.23,24.45 -116.32,24.45zm-129.87 -30.05c-2.37,-1.35 -4.69,-2.73 -6.98,-4.16 -6.87,-4.3 -13.32,-8.88 -19.34,-13.74l121.43 -92.8c11.37,4.51 24.15,6.78 38.36,6.78 32.66,0 48.98,-8.65 48.98,-25.93 0,-4.81 -1.2,-9.13 -3.6,-12.97 -1.41,-2.25 -3.56,-4.34 -6.46,-6.27 4.25,1.49 8.82,2.3 13.57,2.3 9.72,0 18.66,-3.38 25.71,-9.02l101.35 93.41c-8.82,19.63 -21.97,36.4 -39.45,50.31 -2,1.6 -4.04,3.14 -6.12,4.64l-267.45 7.45zm162.86 -153.88c-2.59,-1.09 -5.04,-2.08 -7.36,-2.98l1.9 -1.45c1.69,1.62 3.51,3.11 5.46,4.43zm-198.79 127.63c-2.68,-2.5 -5.27,-5.08 -7.76,-7.72l55.38 -116.1 31.03 -17.96c9.25,23.52 22.57,40.56 39.96,51.14l-118.61 90.64zm-16.68 -18.02c-2.41,-3.02 -4.7,-6.13 -6.88,-9.31l4.67 -57.98 47.4 -27.44 -45.19 94.73zm-17.9 -28.03c-3.89,-7.75 -7.21,-15.89 -9.94,-24.42l12.49 -7.23 -2.55 31.65zm211.8 -89.39c-5.02,-1.5 -11.71,-3.37 -20.06,-5.62 -12.49,-3.36 -21.85,-6 -28.09,-7.92 -21.85,-6.59 -41.32,-14.3 -58.41,-23.14l54.82 -114.92c3.79,1.15 7.82,1.77 11.99,1.77 0.99,0 1.98,-0.04 2.96,-0.11 3.72,1.84 8.48,3.85 14.26,6.02l43.11 84.23c-10.35,7.48 -17.09,19.65 -17.09,33.4 0,7.16 1.83,13.9 5.05,19.77l-8.54 6.52zm-117.53 -42.69c-30.58,-17.8 -52.52,-39.71 -65.82,-65.7l12.67 -157.37c0.43,-0.59 0.86,-1.17 1.3,-1.76 8.54,-0.84 16.31,-4.28 22.53,-9.51l72.23 63.46c-4.13,6.45 -6.53,14.11 -6.53,22.34 0,14.24 7.19,26.8 18.14,34.25l-54.52 114.29zm-76.17 -92.8c-3.32,-12.59 -4.99,-25.95 -4.99,-40.12 0,-23.93 4.49,-45.72 13.49,-65.38l-8.5 105.5zm57.6 -155.44l285.63 86.1 -21.03 12.29 -116.58 -3.41c-3.54,-1.55 -7.25,-2.78 -11.12,-3.68 -3.89,-18.84 -20.57,-33 -40.55,-33 -10.15,0 -19.44,3.65 -26.64,9.71l-72.23 -63.46c0.93,-1.45 1.78,-2.97 2.52,-4.55zm3.62 -12.1c30.96,-21.65 69.39,-32.48 115.3,-32.48 42.74,0 81.03,10.08 114.89,30.25 33.85,20.17 58.7,49.22 74.55,87.15l-8.01 4.68 -296.75 -89.45 0.02 -0.15zm240.68 122.36l-55.51 32.43c-5.7,-14.54 -12.93,-26.1 -21.68,-34.69l77.19 2.26zm-113.73 42.65c9.4,3.06 20.4,6.38 33.01,9.95 24.01,7.2 43.7,14.05 59.06,20.53 10.01,4.22 20.32,9.56 30.94,16.03l-44.68 35.15c-7.36,-6.89 -17.25,-11.11 -28.13,-11.11 -4.55,0 -8.92,0.74 -13.01,2.1l-37.19 -72.65zm134.15 53.62c2.05,1.37 4.11,2.78 6.18,4.23 16.81,11.77 29.41,26.89 37.82,45.38 8.4,18.49 12.6,40.22 12.6,65.19 0,20.7 -2.87,39.51 -8.6,56.43l-97.79 -90.12c4.44,-6.56 7.02,-14.48 7.02,-23 0,-7.37 -1.93,-14.28 -5.32,-20.27l48.09 -37.84z"/>
   <g>
    <path class="fil4" d="M1792.11 2730.32c16.34,0 29.59,13.24 29.59,29.59 0,16.34 -13.25,29.59 -29.59,29.59 -16.35,0 -29.6,-13.25 -29.6,-29.59 0,-16.35 13.25,-29.59 29.6,-29.59z"/>
    <path class="fil4" d="M1876.53 2895.48c16.22,0 29.37,13.15 29.37,29.37 0,16.22 -13.15,29.38 -29.37,29.38 -16.22,0 -29.38,-13.16 -29.38,-29.38 0,-16.22 13.16,-29.37 29.38,-29.37z"/>
    <path class="fil4" d="M1619.85 3091.47c16.32,0 29.55,13.23 29.55,29.56 0,16.32 -13.23,29.55 -29.55,29.55 -16.33,0 -29.56,-13.23 -29.56,-29.55 0,-16.33 13.23,-29.56 29.56,-29.56z"/>
    <path class="fil4" d="M2075.63 2740.85c15.11,0 27.36,12.25 27.36,27.35 0,15.11 -12.25,27.36 -27.36,27.36 -15.11,0 -27.35,-12.25 -27.35,-27.36 0,-15.1 12.24,-27.35 27.35,-27.35z"/>
    <path class="fil4" d="M2075.63 3080.98c15.11,0 27.36,12.25 27.36,27.36 0,15.11 -12.25,27.36 -27.36,27.36 -15.11,0 -27.35,-12.25 -27.35,-27.36 0,-15.11 12.24,-27.36 27.35,-27.36z"/>
    <path class="fil4" d="M1658.37 2612.83c16.35,0 29.6,13.25 29.6,29.59 0,16.35 -13.25,29.6 -29.6,29.6 -16.34,0 -29.59,-13.25 -29.59,-29.6 0,-16.34 13.25,-29.59 29.59,-29.59z"/>
   </g>
   <path class="fil9" d="M1792.11 2730.32c16.34,0 29.59,13.24 29.59,29.59 0,16.34 -13.25,29.59 -29.59,29.59 -16.35,0 -29.6,-13.25 -29.6,-29.59 0,-16.35 13.25,-29.59 29.6,-29.59z"/>
   <path class="fil9" d="M1876.53 2895.48c16.22,0 29.37,13.15 29.37,29.37 0,16.22 -13.15,29.38 -29.37,29.38 -16.22,0 -29.38,-13.16 -29.38,-29.38 0,-16.22 13.16,-29.37 29.38,-29.37z"/>
   <path class="fil11" d="M1619.85 3091.47c16.32,0 29.55,13.23 29.55,29.56 0,16.32 -13.23,29.55 -29.55,29.55 -16.33,0 -29.56,-13.23 -29.56,-29.55 0,-16.33 13.23,-29.56 29.56,-29.56z"/>
   <path class="fil9" d="M2075.63 2740.85c15.11,0 27.36,12.25 27.36,27.35 0,15.11 -12.25,27.36 -27.36,27.36 -15.11,0 -27.35,-12.25 -27.35,-27.36 0,-15.1 12.24,-27.35 27.35,-27.35z"/>
   <path class="fil9" d="M2075.63 3080.98c15.11,0 27.36,12.25 27.36,27.36 0,15.11 -12.25,27.36 -27.36,27.36 -15.11,0 -27.35,-12.25 -27.35,-27.36 0,-15.11 12.24,-27.36 27.35,-27.36z"/>
   <path class="fil9" d="M1658.37 2612.83c16.35,0 29.6,13.25 29.6,29.59 0,16.35 -13.25,29.6 -29.6,29.6 -16.34,0 -29.59,-13.25 -29.59,-29.6 0,-16.34 13.25,-29.59 29.59,-29.59z"/>
  </g>
 </g>
</svg>
